<svg xmlns="http://www.w3.org/2000/svg" viewBox="0 0 1330.51 1445.77"><defs><style>.cls-1{fill-rule:evenodd;}</style></defs><g id="Ebene_2" data-name="Ebene 2"><g id="Ebene_1-2" data-name="Ebene 1"><path class="cls-1" d="M1329.37,1173.9c-14.83,124.73-152.25,24.34-266.31,77.46-104.62,48.74-182.62,145.18-199.22,156.53-85.16,58.24-170.68,32.92-233.23,29.36-76-4.33-161.3-5.91-217.24-79.21-39.44-51.68-81-132.18-156.65-159.83-80.8-29.55-192.19-.59-244.35-7-30.7-64.77,4.85-129.42,9.49-166.66C29,967.28,23.78,910.35,64,876.31c20.78-17.58,80.44,2,97.69-19.63,16.17-20.3-18.65-66-12.76-95.8,11.9-60.3,80.48-80.22,107.14-112.69,33.15-40.36,39.85-105.76,82.25-131.46,14.09-8.53,57.1,28.52,71.1,19.29,13.66-9-4.84-62,8.22-72.75,39.07-32.13,108.41-42.82,130-89.54,21.26-46-13.69-115.08.78-162,11.92-38.68,73.79-56.7,87.36-87.84,17.6-40.41,3.54-107,34.82-120.42,43-18.49,57.19,41.1,77.59,79.79,15.51,29.44,76.74,48.24,87.86,86.13,9.23,31.43-32.21,81-21.29,104.79,16.17,35.3,49.91,19.82,81.41,5.5,52.66-23.94,69,30.86,72.52,85.16,2.19,34.32,44.25,88.77,21.43,137C960.92,563.57,867,599.2,801.42,654.6c-60.71,51.26-110.3,139-186.87,154.37-66.94,13.44-138.84,7.2-163.79,47C415,913,460.67,977,489.18,1008.25c15.95,17.51,22.84,90.89,71.1,110.82,35.34,14.58,83.54-28.09,126.87-33.57,39.59-5,104.32,21.38,140.87-9.75,34.37-29.28,18.82-95.41,30.73-137.91,25.66-91.54,135.53-10.93,231.67,66.22C1190.56,1084.42,1345.36,1039.27,1329.37,1173.9Z"/></g></g></svg>