<svg xmlns="http://www.w3.org/2000/svg" viewBox="0 0 2124.98 2354.59"><defs><style>.cls-1{fill-rule:evenodd;}</style></defs><g id="Ebene_2" data-name="Ebene 2"><g id="Ebene_1-2" data-name="Ebene 1"><path class="cls-1" d="M251.53,1482.94c42.56,6,85.29,40.56,119.88,17.3,30.9-20.78,26.25-91.17,56.75-121,22.53-22.07,81.79-4.67,106.76-25.3,24.71-20.41,31.74-86.51,61.05-100.2,52,6.93,129.16,81.6,213.71,133,64.92,39.5,165,58.76,206,133.87,26.44,48.44-7.08,114.72,3.92,160.29C1032,1732.52,1090.63,1773,1096,1821s-71.5,182.89-73,303.93c-1.62,127.48,49.34,216,153.59,207.28,69.16,20,123.13,39,150-1.75,23.1-35.09-3-114,29.53-159.77,18.64-26.19,73.42-33.31,81.11-59,9.74-32.6-6.52-92.25,31-91.17,46.22-5.28,94.36,14.48,108.54-9.45,22.19-37.44-4.83-122.7,22.29-125.77,24-2.71,48.75,55,79.72,63.2,25.72,6.85,68.65-35.57,96.37-26.19,45.39,15.34,79.29,83.33,121.15,89.35,51.8,7.44,78.08-41.65,105.57-82.82,40.4-60.47,116.83-106.49,122.87-172,5.86-63.62-58-117.47-99-184-16.92-27.47-4-88-35.62-112.25-26.74-20.52-88.46,3.38-120-17.38-57.09-37.63-83.59-119-132-168.15-48.64-49.36-131-86.17-139-161-4.24-39.75,52.09-75.39,58.46-110.73,7.05-39.17-34-88.4-23.58-122.13l52.78,8-52.78-8c3.16-10.19,57.9-4.5,60.76-14.19,3-10.3-46.28-34.37-43.9-44.11,5-20.55,64.34-15,81-33.1,15-16.28-4.76-70.41,12.34-85.25,23.36-20.27,85.87-4.49,97.85-23.2,14.93-23.32-23.91-38.26-57.48-61.42-20.46-14.11-5-70.35-19.65-82.65-20.07-16.81-71.61,8.39-84.59-4.15-39.11-37.75-46.49-98.46-98.81-78.7C1555.91,464,1544.65,531,1495,559.53c-41,23.56-85.37-15.89-106.66-14.12-38,3.17-73.86,17.38-93.14-17.08-14.74-26.31,8.46-91.63-24.48-118.8-23-18.95-77.87,11-120.08-.88-53.48-15-49.4-70.41-59.4-88.23-15.07-26.85-37.22-60.38-10.44-96,15.43-20.53,78.11-15,89.53-39.13,11.29-23.89-33.51-56.11-38.91-84.09C1119.18,38,1068.79-6.24,979.73.72,912.94,6,840.37,75.88,777.91,89.24c-66.88.38-64.28-60-130.87-66.15S576.11,69.5,509.41,64.65c8.2,3.15,8.82,4.64,17,7.75s25.93,7.95,34.13,10.88C495.33,82.94,496.24,27.5,431,25.71s-60.64,20.2-119.74,47.86c-17.37,72.77-5.77,140.34,55.11,199,59.58,57.37,164,56.08,222.69,73.83,38.69,11.71,32.55,69.88,47.11,89,18.45,24.21,71.28,32.8,76.45,64.87,1.68,10.43-49.67,30.93-47.41,41.88,2.14,10.34,56.84,7,60.35,17.63,6.62,20.16,1.25,151.82,91,231.69,53.93,48,146.74,40.52,242.22,48.77,28.46,2.47,23.48,58.9,37.57,77.44,13.79,18.14,69.61,15.07,78.89,38.4,10.06,25.29-25.62,78-9.67,97.06,15.64,18.69,58-13,90.39-12.49,46.33.73,65.46,62.88,91,80,44.39,29.78,102.73,45,106,61.1,11.63,57-197,16.38-385.81-17.09-187.13-33.16-204.9,28.62-388.84-27.69-77.22-23.63-62.82-86.57-139.05-103.63-65.36-14.63-111.06,19.31-127.35,62.77-20.13,53.71-93.86,47.31-140.73,63.3-46.47,15.86-89.51,71.78-137.85,74.87-24.08,1.54-52.45-50.67-72.48-47.79-26.95,3.86-26.39,56.54-39.61,69.18-36.72,35.12-27.77,100.78,41.53,161.73C111.74,1460.4,199.33,1455.71,251.53,1482.94Z"/></g></g></svg>