<svg xmlns="http://www.w3.org/2000/svg" viewBox="0 0 410.62 316.62"><defs><style>.cls-1{fill-rule:evenodd;}</style></defs><g id="Ebene_2" data-name="Ebene 2"><g id="Ebene_1-2" data-name="Ebene 1"><path class="cls-1" d="M70.1,176.61c-9,3.08-51.76-28.74-65.53-15.07-15.62,15.53,14,62.32,12,66.67-5,11,11.83,40.67,61.53,51.86,42.12,9.48,93.51-36.62,108.6-35.69,14.45.89,35,62.83,62.45,69.75,35,8.84,47.53-7.33,44.72-25-1.55-9.77,41.68-47,32.64-69.37-9.67-23.92-68.82-24.39-72.11-30.54-1.86-3.46,49.67-5,57.59-13.1,7.33-7.49-30-23.94-32.17-29.13-6.8-16.5,40.25-5.56,64.71-6.3,20.16-.62,49-50.79,59.57-47.8,12.6,3.57,6.66-16.47-15.79-40.17-19.16-20.24-44.51,2.18-53.36,9C326.84,68,313.19,20,302,12.73c-9.95-6.46-45.81,31.48-51.64,24.9C233.17,33.1,214.43-7.1,205.7,1.1c-9.06,8.51,29.67,49.43,25.46,63.05-2.29,7.43-49.8-20.25-62.95-15.38-12.34,4.56-.93,56.18-7,60.29-7.23,4.87-43.24-41.14-57.08-38.14-18,3.91-6.16,18.67,1.11,28.61,8.05,11-30.78,13.82-37.47,19.78C63.2,123.36,81.79,172.64,70.1,176.61Z"/></g></g></svg>