<svg xmlns="http://www.w3.org/2000/svg" viewBox="0 0 584.46 553.07"><g id="Ebene_2" data-name="Ebene 2"><g id="Ebene_4" data-name="Ebene 4"><path d="M322.63,368.05c32-119.91,119.68-165.48,229.4-106.85q16.23,1.32,32.43,2.79C564.65,200.29,563,12.3,493.91,0c-25,7.78-46.74,23.72-70.27,35C353.87,71.51,278.09,99.44,198.28,97.6c-53.13,44.91-114.82,78.06-184.41,82.34C29.43,233,26.77,289.05,0,337.67c36.52,10.64,70.9,28.7,95.34,58.38,0,0,65.29,125,151.29,157,3.05,1.13,159.46-32.54,162-32C478,535.69,321.77,371.28,322.63,368.05Z"/></g></g></svg>