<svg xmlns="http://www.w3.org/2000/svg" viewBox="0 0 1782.44 959.45"><g id="Ebene_2" data-name="Ebene 2"><g id="Ebene_4" data-name="Ebene 4"><path d="M50.64,1.83A421.38,421.38,0,0,0,0,14.67c213.83,48.17,530.79,101,585.58,352.5,44.6,139.23,51.43,296.07,7.36,436.3,33.34,14.78,59.21,41.8,79.86,71.66,0,0,98.85,104,270.85,81s302.23-81,302.23-81c-85.57-173.38-85.73-529,199.33-538,85.68-1.2,100.43-10.8,125.17,70.73,76,33.47,122.29,110.85,120.2,193.34,10.59,10.13,18.37,23.14,28,34.26,28.75-18.42,34.14-57.56,63.85-77-3-23.46-21.14-41.64-25.44-66q-2.88-21.39-5.75-42.78c-229.81-211-35.86-528.6-400.06-330.91-80.48,96.56-171.75,124.49-231,235.39-18.06,24.63-16.16,124.38-41.84,142.09-37.71,53.86-99.36,83.23-164.45,85.42-88-1.35-170.24-60.46-192.85-146.83-14.38-71.05-3.84-144.24-18.77-214.53-36.73-46-61-103.26-74.42-162.13C436.25,37.24,244.06-9.84,50.64,1.83Z"/></g></g></svg>