<svg xmlns="http://www.w3.org/2000/svg" viewBox="0 0 3926.31 7702"><g id="Ebene_2" data-name="Ebene 2"><g id="Ebene_4" data-name="Ebene 4"><path d="M174.34,7671.56c48.41-45.46,84.31-102.54,141.91-138.17,141.31-92.54,286.12-97.47,403.27,34.71C838.13,7442,883.71,7552,835.61,7318.57c-144.08-84.45-329.34-63.74-471.9-152.29-205.63-122.77-206.79-426.9-46.6-588.41-139.21-94.4-203.4-359.4-112.6-501.75-39.45-81.52-13.65-187.09,41.67-255.4,56.95-79.53,154.46-118.91,250-123.81,133.79,4.83,270.7,16.63,401.47,46.19,134.39,47.5,254.23,127.13,380.13,192.65,50.83-22.11,108-21.06,160.47-4.18,57.13,3.74,114.54,4.91,171.14,14.55-69.69-79.59-175.09-137.67-193-251.83-206.67,3.79-384.65-111.81-581.4-150-155.93-1.9-321.49,14.23-461.4-69.34C85.85,5303.45,189.36,4805.9,482.39,4694.37c-60.32-65.14-119-136.12-200.1-175.95-76.48-43.75-116.17-141.13-91.91-225.86,11.39-25.55,19.63-53.93,38.66-75,5.51-62.79,43.72-120.08,97.67-151.68,244.58-177.48,571.21-173.28,837.39-49.52,37.08.51,72.59-13.65,108.39-22-138.9-59.37-270.65-137.5-423.71-154.22-242.53-23.94-631,60.67-626.77-301.47-69.78-91.52-58.29-214.11-22.69-317,43.87-161.32,78.75-369.94,271.38-411.27C409.76,2582.61,293.37,2618,363,2308c-107.82-113.58-149-193-135-318,9.84-87.84,183.29,149.4,231,77,261-396,48-42,593.88-107.57,183.6-22.06,427-52.12,305.12,181.57-78.32,128.94-308.62,265.39-425,204-76.16,99.48-82.66-121.51-142,163,.09-.42-60,121,61,173,64.19,27.59-40.37,121.23,23.36,140,490.14,5.27,690.93,110.89,1096.15,361.18-3.32-67,13.83-133.54,43.39-193.51-22.57-40.78-28.61-91.13-19.09-136.43.35-4.49-1.48-8.67-3.94-12.32-15.3-19-32-37.68-43.36-59.39-186.46,102-588.64,49.45-529.8-232.92,11.79-26.82,20.72-56.59,41.35-78,6.91-66.9,51.84-119,99.47-163C1465.38,2155.39,1531.29,2080,1708,2019c154.33-46.8,519.52-128.61,456,19,145.6-20.11,112.27,128.78,128.19,295.43,38,38,65.69,85.05,81.47,136.35,10.17,29.83,2.92,63.34,16.14,91.69C2809.49,2390.74,3421,2653.3,3851,2611c-67.48-56.94-300.38-122.61-379.24-162.25-98.91,13.68-139.3-39.13-209.94-89.63-248.06-56.41-397.62,3.75-609.82-197.12-214.41-238.23-372.13-458.6-785.71-398.3-461.48,138.09-577.54,113-1029.5-13.89-165.22-33.21-480.21,6.39-573.09-149.31-56.61-90.72,12.61-94.77,105.3-146.5,78.38-49.31,266.79-57.63,350-45,149.06,17.32,381-3,381-3s1266.93-683.91,1615.53-328.61c145.91,125.32,268.47,306.06,467.77,346.1C3409.49,1415.71,3526,1717,3926,1639c0,0,14.08-786.48-149-705-225.65,112.74-336.49,213.42-526.75-199.1a238,238,0,0,0-73.56,3.92c-97.87,352.74-520.79,264.86-706.05,34.49-322.39-227.5-572.37,68.64-956.95-95.85-39.71-4.57-75.23,6-107.52,29.39-21.45,17.27-36,40.16-47.27,65.07-60.87,183.84-188,271.22-377.63,286.33C896.41,1250.44,661.57,1241,484,1232.12,82.73,1254.46-.16,839.71,280.86,606.4,81.85,416.92,185.67,211.83,271.18,0H0V7702H150C157.84,7691.65,165.9,7681.44,174.34,7671.56Z"/></g></g></svg>