<svg xmlns="http://www.w3.org/2000/svg" viewBox="0 0 3200.17 1279.86"><g id="Ebene_2" data-name="Ebene 2"><g id="Ebene_4" data-name="Ebene 4"><path d="M3183.88,3.44c-9.87,69.07-2.26,139.93,16.29,207.09C2826.18,100.71,2054.09,78.6,2039.1,615.4c-99.88,66.05-111.09,221-24.94,303,61.06,59.94,155.68,75.52,232.2,36.81,150,106.78,322.28,184.71,507.73,198.7-39.17,15-71.38,42.11-103.59,68.2-160.05,54.18-519.25,90.94-663.79,13.3-91.16-146.18-222.3-151.7-377.6-168.59-222.39-20.78-460.66,29.48-629.33,182.84C610.61,1320.52,462.34,1067.3,0,1110.88c3.12-25,6.82-52.63,21.57-73.56,293.25-122.48,642.36,67.5,917-120.47,287.36-320.05,560.31-43.77,829.18-290.48,91.84-102.79,27.24-282.19-103.89-314-50.36-10.18-103.08-9.53-148.42,17-155.74,39.66-324.42-6.82-479,48.4-150.84,34.21-236,186-379.09,227.92-93.82,6.39-187.45-9.72-281.12-12.35C267.66,510.16,180.73,403.58,86.77,304.63c88.08-21.7,180.17-5.75,262.61,29.65,401.67,203.65,989.43-311.5,1376.79-118.56,263.76,112.44,432.17-40.31,630.57-187.62,221.94-51.58,457.38-13.78,684.08-26.6C3088.48,1.26,3136.32,0,3183.88,3.44Z"/></g></g></svg>