<svg xmlns="http://www.w3.org/2000/svg" viewBox="0 0 3755.53 6492.32"><g id="Ebene_2" data-name="Ebene 2"><g id="Ebene_4" data-name="Ebene 4"><path d="M3561.53,643.55c-107.11,235.88-280.14,262-447.63,85-172.41-202.75-183-136.61-422.25-118.38C2281.38,638.7,2059,220.23,1767.53,19.55c-282.65-90-133,159-785,177-9,.24-98.09,131-107,130,799,91,496.68-215,1089,125C2502.25,760.24,2661.69,671.1,2888,794.88c468.1,131.39,1093.82,707.61,344,967.45-316.74,60.49-641.19-51.63-959.49-68.78-305-28.18-402.55,163.38-551.91,410.71,33.63,13.18,63.86,35.71,84.33,66.15,476.21-455.69,904.31-201.65,1412.77-255.55,159.3-35.41-149.17,130.69,101.83,221.69C3676,2265.77,3030.35,2332.23,2799,2286.34c-149.72-31.86-341-203.15-450.87-91.57-64.68,65.7-237.75,213.13-418.89,241.84-522.4,82.8-874.91-315.39-1330.8-407.17-181.19-19.25-363.3-23.31-544.73-40.48-12,50.17-27.53,98.08-41.81,147.86,14.66,24.6,27.56,52,34.5,80.13,272.75-11.33,536.37,47.42,774.64,181.16,183.55,51.64,376.54,19.89,476.73,227.34,150.44-38.49,309.37-68.42,461.7-22.26,66.21,18.74,127.84,57,196,66.76,18.53-5.72,34.09-18.86,50.23-29.39,276.44-296,698.16-208.41,1061.54-222.9,215.83-14.32,494.7,27.8,567,266.69,23.64,73.72-11.35,140.23-13.85,212,65,144.9,78.94,237.92-19,373.86-66.9,168.55-272.59,288.58-440.37,182.12-65.68-43.21-66.06-68.2-152.75-81.2-169.94-2.88-373.74-14.15-525.67,51.12,119.52,76.66,177.93,125.29,325.32,149.05,207.62,6.73,411.44-20.91,537,185.49,53.25,121.86,21.6,46,114.06,122.36,119.14,49.49,151.24,174.58,106.31,288.68,3.76,45.32,30.86,86.37,43.25,130,37.26,165.35,64.77,353.31-10.13,511.93C3633,4951.25,3490.26,5089.31,3350,5046c-189.36-46.63-138.16-55.72-320.94,3.38-215.08,51-490.12-33-543.37-270.68-22.36-96.89-7.23-198.89-45.51-292.23-250.59,7.23-566.39,32.21-731.25-196.23-150.88-21.33-335.58-28.55-444.75,96.62,92.07,79.9,167.48,186.38,190.1,307.86,268.42-122,697.2-90.24,777.16,248.22,31.6,25.35,63.84,49.86,86.45,84.16,105.45,52.75,143,207.91,63.67,298.05-72.45,108.62-238.16,91.47-331.25,20.89-30.61-19.67-57.76-59.61-69-94.06-72.85-50.12-118-127.89-138.42-212.77-45-22.14-127.85-4.85-177.07,3-92.23,204-371.51,280.93-568,189.76-46.62-21.51-80.92-61-108.91-103.15-26-8.33-53.62-6.67-80.58-8.52-103.55,108.1-238.74,43.92-344.64-23.56-109.28-58.89-217.2-120.42-327.34-177.68-200-53.12-100.28-8-235.38,51.58-.34,21.22-1.34,42.49-.79,63.71,37.6,3.5,72.34,20.12,105.86,36.51,29.52,18.27,56.18,41,83,62.91,47,37.25,113.25,41.7,151.64,90.52,242.72,59.46,610.39-18.38,715.89,269.8,98.57-96,305-39.71,440-109.58,197-102,505.23-65.46,551,251.6,28.74,14.66,47,39.46,65.74,64.3,22.37,7.41,45.61,16.57,65.76,28.79,69-20.41,89.71-93.36,158.85-114.37,102.77-270.89,387.76-367.71,635.22-458.49,128.48-55.31,282.83,19.73,359.56,128.16,207-170.87,387.79,54.81,367.65,270.86-5.64,65.7-14.12,131.63-6.81,197.55,16.81,69.42,19.05,141.61-17.7,205.7-119,198.36-417.35,110.22-440.7-110.15-101-69.7-165.26-166.7-202-283-96.14,30-198.51,59.41-274.39,128.78,163.68,11.72,313,127.4,386.44,270.57,22.38,37.79,37,81.41,29.64,125.61,18.21,84.66,34,169.87,46.66,255.54,351.44,128.38,41.05,158.13,533.16,142.56l1-6305C3749.8,234.07,3584.05,595.44,3561.53,643.55Z"/></g></g></svg>