<svg width="6757" height="7706" viewBox="0 0 6757 7706" fill="none" xmlns="http://www.w3.org/2000/svg">
<g clip-path="url(#clip0_17_282)">
<path d="M2614.03 5028.16L2859.16 4857.19L3209.34 4950.57L3169.52 5145.57L3321.26 5263.68L3116.65 5406.5L2688.19 5263.68L2614.03 5028.16Z" fill="black"/>
<path d="M5684 3099.97L5929.13 2929L6279.31 3022.38L6239.49 3217.38L6391.23 3335.49L6186.62 3478.31L5758.16 3335.49L5684 3099.97Z" fill="black"/>
<path d="M4331.37 3378.12L4318.97 3676.73L4032.59 3898.84L3901.53 3749.06L3715.65 3798.28L3725.91 3548.97L4099.04 3294.51L4331.37 3378.12Z" fill="black"/>
<path d="M868.37 1993.12L855.97 2291.73L569.591 2513.84L438.532 2364.06L252.649 2413.28L262.911 2163.97L636.039 1909.51L868.37 1993.12Z" fill="black"/>
<path d="M5246.61 4265.81L5072.66 4022.79L5161.74 3671.49L5357.22 3708.92L5473.46 3555.75L5618.77 3758.59L5481.21 4188.77L5246.61 4265.81Z" fill="black"/>
<path d="M5307.64 4674.81L5167.4 4569.85L5096.78 4383.61L5262.42 4433.98L5315.19 4362.08L5255.23 4274.91L5470.65 4389.63L5425.04 4590.2L5307.64 4674.81Z" fill="black"/>
<path d="M2377.61 6473L2280.54 6558.21L2227 6670.34L2341.64 6814V6690.5L2441.11 6590.5L2377.61 6473Z" fill="black"/>
<path d="M1718.47 6237.98L1659.79 6353.05L1651.51 6477.03L1811.15 6568.11L1765.48 6453.36L1820.92 6323.67L1718.47 6237.98Z" fill="black"/>
<path d="M4600.61 5132L4503.54 5217.21L4450 5329.34L4564.64 5473V5349.5L4664.11 5249.5L4600.61 5132Z" fill="black"/>
<path d="M3653.19 5352.13L3624.26 5478.01L3646.38 5600.28L3823.38 5649.8L3751.17 5549.61L3773.4 5410.32L3653.19 5352.13Z" fill="black"/>
<path d="M6405.61 5368L6308.54 5453.21L6255 5565.34L6369.64 5709V5585.5L6469.11 5485.5L6405.61 5368Z" fill="black"/>
<path d="M5514.78 5164.91L5386.33 5178.49L5277.9 5239.17L5288.63 5422.65L5359.89 5321.79L5498.84 5297.52L5514.78 5164.91Z" fill="black"/>
<path d="M1208.61 3772L1111.54 3857.21L1058 3969.34L1172.64 4113V3989.5L1272.11 3889.5L1208.61 3772Z" fill="black"/>
<path d="M4793.61 6863L4696.54 6948.21L4643 7060.34L4757.64 7204V7080.5L4857.11 6980.5L4793.61 6863Z" fill="black"/>
<path d="M5061.61 6148L4964.54 6233.21L4911 6345.34L5025.64 6489V6365.5L5125.11 6265.5L5061.61 6148Z" fill="black"/>
<path d="M4659.5 4900L4756.57 4985.21L4810.11 5097.34L4695.47 5241V5117.5L4596 5017.5L4659.5 4900Z" fill="black"/>
<path d="M3751 5045.5L3626.5 5263.5L3789.01 5347.26L3928.18 5172.22L4139.09 5318.09L4182.5 5172.22L4007.5 5045.5H3751Z" fill="black"/>
<path d="M5332.71 6765.26L5508.21 6808.27L5722.21 6765.26L5570.9 6561.77L5638.21 6340.27L5480.71 6226.77L5480.71 6443.77L5332.71 6606.27L5332.71 6765.26Z" fill="black"/>
<path d="M1859.7 4503L1688 4745.96L1869.75 4866L2008.92 4690.96L2219.83 4836.83L2249 4726.35L2118.92 4512.57L1859.7 4503Z" fill="black"/>
<path d="M4807.41 3074.41L4930.95 3345.05L5126.15 3248.4L5044.92 3040.05L5277.11 2931.2L5196.32 2850.4L4946.12 2855.22L4807.41 3074.41Z" fill="black"/>
<path d="M5364.94 418.999L5309.05 403.058L5327.21 362.498L5370.13 372.086L5390.49 324.018L5407.51 337.263L5408.41 385.761L5364.94 418.999Z" fill="black"/>
<path d="M4858.91 4704.44L4713.43 4650.78L4677.52 4758.47L4784.41 4804.92L4739.43 4930.78L4798.98 4930.57L4889.06 4836.24L4858.91 4704.44Z" fill="black"/>
<path d="M4242.08 5472.23L4219.86 5677L4064.36 5618.46L3869.05 5618.46L3807.31 5419.27L3890.42 5355.93L3996.68 5333.17L4139.89 5361.6L4242.08 5472.23Z" fill="black"/>
<path d="M2947.97 2348.98L2910.42 2472.57L2924.05 2596.07L3097.21 2657.69L3032.09 2552.76L3063.88 2415.34L2947.97 2348.98Z" fill="black"/>
<path d="M3038 2031L2913.5 2249L3076.01 2332.76L3215.18 2157.72L3426.09 2303.59L3469.5 2157.72L3294.5 2031H3038Z" fill="black"/>
<path d="M3529.08 2457.73L3506.86 2662.5L3351.36 2603.96L3156.05 2603.96L3094.31 2404.77L3177.42 2341.43L3283.68 2318.67L3426.89 2347.1L3529.08 2457.73Z" fill="black"/>
<path d="M2546.79 2739.14L2647.07 2637.05L2706.66 2735.92L2813.16 2820.01L2761.07 2955.21L2688.48 2953.97L2620.73 2920.63L2554.88 2843.46L2546.79 2739.14Z" fill="black"/>
<path d="M3031.34 3863.43L3209.6 3966.62L3254.36 3806.61L3369.87 3649.12L3245.77 3481.53L3145.53 3511.08L3064.34 3583.31L3002.57 3715.61L3031.34 3863.43Z" fill="black"/>
<path d="M2117 3490.61L2117 3810L2245 3623.5L2245 3882.5L2497.5 3734.5L2626 3603L2497.5 3282.5L2368.5 3490.61L2117 3490.61Z" fill="black"/>
<path d="M2111.74 277.678L2224.96 105.619L2336.6 228.673L2510.38 317.806L2474.42 523.221L2371.56 541.655L2266.62 513.413L2152.17 422.748L2111.74 277.678Z" fill="black"/>
<path d="M4613.02 1679.82L4463.6 1538.06L4604.39 1449.84L4722.74 1294.48L4918.61 1366.06L4918.64 1470.56L4872.35 1568.88L4762.94 1665.57L4613.02 1679.82Z" fill="black"/>
<path d="M5809.85 328.188L6015.76 323.397L5978.09 485.225L6003.67 678.847L5814.28 766.149L5740.6 692.048L5704.12 589.686L5713.55 443.98L5809.85 328.188Z" fill="black"/>
<path d="M1106.95 1302.5L1135.17 1506.53L1288.88 1443.45L1484.1 1437.71L1539.97 1236.8L1455.03 1175.92L1348.15 1156.29L1205.84 1188.92L1106.95 1302.5Z" fill="black"/>
<path d="M1463.77 2558.62L1336.16 2642.6L1427.43 2725.41L1493.54 2854.3L1645.89 2827.62L1659.56 2751.33L1638.62 2673.5L1571.37 2588.61L1463.77 2558.62Z" fill="black"/>
<path d="M2321.55 5480.25L2238.93 5356.6L2282.16 5278.73L2144.43 5234L2072 5299.31L2192.46 5437.05L2321.55 5480.25Z" fill="black"/>
<path d="M3363.95 4856.5L3363.95 4756.88L3296.43 4652.57L3152.07 4641.08L3096.81 4721.44L3236.42 4750.26L3363.95 4856.5Z" fill="black"/>
<path d="M5555.4 5590.65L5497.18 5529.55L5385.05 5476L5256.03 5541.77L5251 5639.16L5385.05 5590.65H5555.4Z" fill="black"/>
<path d="M2219.7 6048.99L2197 6233.97L2350.87 6180.47L2529.96 6302.5L2649.78 6131.82L2590.08 6046.05L2495.91 5991.82L2350.87 5975L2219.7 6048.99Z" fill="black"/>
<path d="M2219.7 6048.99L2197 6233.97L2350.87 6180.47L2529.96 6302.5L2649.78 6131.82L2590.08 6046.05L2495.91 5991.82L2350.87 5975L2219.7 6048.99Z" fill="black"/>
<path d="M3948.92 4635.45L3993.27 4391.84L3813.99 4365L3770.36 4545.94L3560 4509.84L3576.74 4603.46L3749.92 4719.17L3948.92 4635.45Z" fill="black"/>
<path d="M2662.92 4635.45L2707.27 4391.84L2527.99 4365L2484.36 4545.94L2274 4509.84L2290.74 4603.46L2463.92 4719.17L2662.92 4635.45Z" fill="black"/>
<path d="M5301.92 3560.45L5346.27 3316.84L5166.99 3290L5123.36 3470.94L4913 3434.84L4929.74 3528.46L5102.92 3644.17L5301.92 3560.45Z" fill="black"/>
<path d="M4228.53 4680.93L4134.22 4841.67L4275.43 4902.79L4412.56 5036.82L4590.32 4927.77L4626 4809.5L4569.61 4680.93L4378.3 4665.12L4228.53 4680.93Z" fill="black"/>
<path d="M4957.78 2517L5026.24 2576.97L5064 2655.89L4983.15 2757V2670.08L4913 2599.7L4957.78 2517Z" fill="black"/>
<path d="M5286.75 2490.06L5353.15 2376.89L5253.73 2333.86L5157.19 2239.51L5032.05 2316.27L5006.93 2399.54L5046.63 2490.06L5181.31 2501.18L5286.75 2490.06Z" fill="black"/>
<path d="M4012.83 6031.47L3967.41 6146.91L4066.45 6172.5L4170.31 6246.44L4275.85 6156.37L4251.72 6091.17L4200.13 6040.55L4109.58 6005.59L4012.83 6031.47Z" fill="black"/>
<path d="M4883 6175.5L4673.1 6033L4405.09 6050.18L4231 6310.3L4446.5 6525L4545.5 6239.5L4883 6175.5Z" fill="black"/>
<path d="M2823.88 5692.9L3018.01 5659.54L2989.13 5518.25L2842.02 5535.04L2811.56 5368L2746.18 5406.07L2707 5567.06L2823.88 5692.9Z" fill="black"/>
<path d="M2157.88 7510.9L2352.01 7477.54L2323.13 7336.25L2176.02 7353.04L2145.56 7186L2080.18 7224.07L2041 7385.06L2157.88 7510.9Z" fill="black"/>
<path d="M1018.88 5822.9L1213.01 5789.54L1184.13 5648.25L1037.02 5665.04L1006.56 5498L941.18 5536.07L902 5697.06L1018.88 5822.9Z" fill="black"/>
<path d="M163.359 4310.41L244.381 4419.86L322.776 4358L266.629 4272.41L360.457 4201.55L316.574 4173.05L204.823 4199.03L163.359 4310.41Z" fill="black"/>
<path d="M2622.76 7458.24L2519.68 7290.39L2399.23 7369.69L2469.46 7500.04L2325.68 7590.36L2385.32 7636.92L2549.34 7613.5L2622.76 7458.24Z" fill="black"/>
<path d="M3096.37 5511.11L3087.25 5585.47L3159.5 5573.5L3221.1 5613.02L3269.27 5544.41L3245.27 5509.93L3207.41 5488.13L3149.1 5481.37L3096.37 5511.11Z" fill="black"/>
<path d="M4586.23 5573.49L4546.98 5543.31L4586.02 5514.9L4595.89 5467.64L4650.48 5476.8L4655.62 5504.06L4648.39 5531.95L4624.62 5562.49L4586.23 5573.49Z" fill="black"/>
<path d="M3459.73 4673.43L3401.76 4660.71L3429.63 4609.97L3416.22 4553.66L3480.12 4535.75L3499.61 4562.7L3505.99 4596.65L3495.77 4641.91L3459.73 4673.43Z" fill="black"/>
<path d="M4886.07 5298.89L4724.25 5327.79L4684.44 5526.23L4566.39 5703.21L4750.73 5804.68L4911.71 5541.15L4886.07 5298.89Z" fill="black"/>
<path d="M5681.61 1794L5584.54 1879.21L5531 1991.34L5645.64 2135V2011.5L5745.11 1911.5L5681.61 1794Z" fill="black"/>
<path d="M4117.61 1943L4020.54 2028.21L3967 2140.34L4081.64 2284V2160.5L4181.11 2060.5L4117.61 1943Z" fill="black"/>
<path d="M4683.78 1709.26L4754.04 1817.64L4775.09 1940.1L4625.73 2047.2L4659.29 1928.35L4590.74 1805.08L4683.78 1709.26Z" fill="black"/>
<path d="M5667.23 2235.49L5627.98 2205.31L5667.02 2176.9L5676.89 2129.64L5731.48 2138.8L5736.62 2166.06L5729.39 2193.95L5705.62 2224.49L5667.23 2235.49Z" fill="black"/>
<path d="M4562.19 1811.76L4416.65 1830.92L4342.35 2016.82L4204.81 2178.43L4343.58 2283.88L4535.59 2042.48L4562.19 1811.76Z" fill="black"/>
<path d="M5770.16 4915.39L5872.95 5032.38L5775.14 5175.3L5749.83 5353.64L5546.27 5300.54L5595.07 5044.1L5770.16 4915.39Z" fill="black"/>
<path d="M4889.81 6396.44L4709.07 6420.91L4605.1 6654.93L4424.76 6858.54L4588.88 6990.81L4841.7 6686.7L4889.81 6396.44Z" fill="black"/>
<path d="M5679.81 5546.72L5779.93 5699.18L5671.55 5931.17L5636.21 6200.86L5428.72 6163.79L5492.33 5773.47L5679.81 5546.72Z" fill="black"/>
<path d="M4210.37 6521.4L4361.83 6623.01L4352.05 6878.89L4424.21 7141.13L4218.6 7187.55L4125.66 6803.16L4210.37 6521.4Z" fill="black"/>
<path d="M2706.47 2982.72L2888.8 2977.64L3029.23 3191.76L3240.12 3363.54L3099.55 3520.6L2800.89 3261.37L2706.47 2982.72Z" fill="black"/>
<path d="M3132.98 630.689L3227.68 728.088L3413.86 686.705L3615.67 704.52L3622.19 547.662L3328.11 530.952L3132.98 630.689Z" fill="black"/>
<path d="M4622 4452.5L4398.19 4621.81L4585.6 4628.6L4707.5 4556.94L4814.88 4627.33L4860 4556.94L4827.5 4417.5L4622 4452.5Z" fill="black"/>
<path d="M1027.81 2713.24L804 2543.93L991.408 2537.14L1113.31 2608.8L1220.7 2538.41L1265.81 2608.8L1233.31 2748.24L1027.81 2713.24Z" fill="black"/>
<path d="M4451.5 1348.9L4345.5 1458.59L4451.5 1706.5L4194.39 1648.98L4200.78 1458.59L3983.95 1436.65L4025.94 1348.9L4227.89 1282.15L4451.5 1348.9Z" fill="black"/>
<path d="M2486.71 232.089L2697.69 232.089L2841.2 -25.2887L2608.18 -36.6271L2602.01 -185.452L2422.2 -120.41L2422.2 144.09L2486.71 232.089Z" fill="black"/>
<path d="M2533.81 2442.23L2705 2652.5L2842.02 2463.73L2705 2331.38L2845.52 2164.8L2754.32 2130.96L2562.8 2223.48L2533.81 2442.23Z" fill="black"/>
<path d="M4462.96 4244.49L4294.5 4151L4114.11 4282L3979.5 4327L4080.5 4420.5L4251.54 4356.87L4462.96 4244.49Z" fill="black"/>
<path d="M2822.92 4395.5L2817.1 4277.68L2747.35 4118.63L2550.75 4070.4L2456.49 4168.88L2638.64 4242.64L2822.92 4395.5Z" fill="black"/>
<path d="M4397.25 7470.73L4297.13 7408.35L4126.68 7375L3975 7509.04L4002.18 7642.62L4166.61 7535L4397.25 7470.73Z" fill="black"/>
<path d="M1538.69 4171.21L1472.35 4268.75L1329.95 4368.18L1137.02 4306.93L1107.86 4173.77L1301.76 4205.7L1538.69 4171.21Z" fill="black"/>
<path d="M2345.53 5647.99L2279.89 5600.7L2335.42 5555.55L2356.19 5474.4L2445.9 5486.53L2455.64 5530.83L2445.16 5576.82L2407.77 5628L2345.53 5647.99Z" fill="black"/>
<path d="M1613.06 6930.41L1524.28 7515.54L1954.49 7567.03L2045.97 7131.67L2551.09 7203.08L2504.49 6980.6L2082.58 6716.37L1613.06 6930.41Z" fill="black"/>
<path d="M1591.53 6180L1452.16 6312.82L1330 6568.6L1480.03 6862.92L1781.62 6779.47L1620.12 6497.97L1591.53 6180Z" fill="black"/>
<path d="M1320.38 5529.46L1308.84 5337.28L1192.26 5078.91L870.603 5003.62L739.752 5287.87L1059.02 5346.13L1320.38 5529.46Z" fill="black"/>
<path d="M1277.5 6369.76L1201.52 6192.86L1189.68 5909.65L1443.28 5697.95L1687.83 5893.18L1428.72 6088.59L1277.5 6369.76Z" fill="black"/>
<path d="M1583.42 3660.54L1439.5 3890.81L1583.42 4169.5L1583.42 4346L1815.5 4221.5L1642.5 3986.54L1583.42 3660.54Z" fill="black"/>
<path d="M2227.08 3415.53L2363.39 3212.35L2214.76 3003.58L2210.49 2860.72L2012.5 3074.5L2160.95 3158.56L2227.08 3415.53Z" fill="black"/>
<path d="M2738.58 7963.59L2546.5 6396.96L2764.7 6105L3056.67 6386.21L2928.5 7096.33L3035.92 7854.48L2738.58 7963.59Z" fill="black"/>
<path d="M2319.1 1597.26L2382 765.5L2781 155.5L3039.39 -116.281L3204.79 253.811L2781 826L2635.66 1607.45L2319.1 1597.26Z" fill="black"/>
<path d="M3533 7789L3671.08 7010.01L3619.9 6334.58L3882.65 6105L4117 6408.11L3840.67 7738.45L3533 7789Z" fill="black"/>
<path d="M5763.38 2463.44L5861.14 1728.55L5581.81 1419.6L5670.37 1057.14L5945 965.5L6042.51 1965.84L6060.95 2355.92L5763.38 2463.44Z" fill="black"/>
<path d="M1801.64 4143.26L1760.8 3719.91L1571.17 3422.31L1759.52 3207.27L2035.36 3254.89L2068.54 3994.35L1801.64 4143.26Z" fill="black"/>
<path d="M2471.09 2270.55L2117.84 2033.68L1945.89 1725.54L1667.22 1789.26L1578.22 2054.66L2213.36 2434.81L2471.09 2270.55Z" fill="black"/>
<path d="M3155.5 6355L2990.5 6257L2826 6103.5L2943.5 5955.5L3073.09 6134.5L3222.31 6183.22L3155.5 6355Z" fill="black"/>
<path d="M5160.41 2627.38L5340.81 2633.88L5485.43 2704.7L5441.58 2949.19L5356.04 2821.71L5162.39 2801.95L5160.41 2627.38Z" fill="black"/>
<path d="M2858.01 917.521L2886.39 835.779L2942.46 774.256L3060.54 809.141L2983.9 840.309L2946.95 927.273L2858.01 917.521Z" fill="black"/>
<path d="M2764.35 1409.34L2782.88 1242.33L2903.78 1260.98L2910.11 1410.51L3081.67 1414.61L3047.69 1510.65L2903.1 1510.33L2764.35 1409.34Z" fill="black"/>
<path d="M3558.79 1267.46L3558.79 1095.19L3437.88 1113.84L3393 1237L3260 1267.46L3332 1345.5L3492 1392.5L3558.79 1267.46Z" fill="black"/>
<path d="M3278.18 1191.33L3346.87 1071.66L3239.57 1042.07L3133.78 965.074L3021.82 1048.62L3041.86 1115.7L3090.44 1169.91L3179.22 1210.97L3278.18 1191.33Z" fill="black"/>
<path d="M3278.2 95.5468L3242.33 229.349L3379.55 335.576L3472.38 492.923L3615.83 391.987L3472.3 168.921L3278.2 95.5468Z" fill="black"/>
<path d="M3281.03 1394.73L3395.3 1477.9L3371.57 1673.88L3240.89 1588.16L3178.88 1666.34L3107.12 1560.22L3211.39 1416.96L3281.03 1394.73Z" fill="black"/>
<path d="M3253.57 943.678L3363.57 993.925L3471.44 994.913L3518.55 835.321L3429.06 886.001L3307.14 839.716L3253.57 943.678Z" fill="black"/>
<path d="M4491.22 4211.5L4584.85 4309.33L4708.66 4363.88L4868.77 4250.53L4731.93 4249.42L4621.93 4149.06L4491.22 4211.5Z" fill="black"/>
<path d="M3811.92 2775.14L4092.95 2673.44L4407.03 2854.28L4318.1 3032.33L4434.1 3185.68L4199.49 3270.68L3822.6 3021.83L3811.92 2775.14Z" fill="black"/>
<path d="M3801.5 780L4005.13 618L4355.31 711.38L4315.49 906.38L4467.23 1024.49L4262.62 1167.31L3834.16 1024.49L3801.5 780Z" fill="black"/>
<path d="M1777.63 377.969L1770.92 539.531L1615.97 659.705L1545.06 578.666L1444.49 605.297L1450.04 470.405L1651.93 332.727L1777.63 377.969Z" fill="black"/>
<path d="M735.922 -117.856L1016.95 -219.556L1331.03 -38.7243L1242.1 139.325L1358.1 292.684L1146.5 339.5L746.597 128.833L735.922 -117.856Z" fill="black"/>
<path d="M6120.97 367C6160.18 229.163 6068.06 46.1142 6120.97 -19H6757V7837.5C6650.99 7856.52 5771.44 7691.54 5771.44 7524.18C5771.44 7353.58 6633.82 7255.59 6542.6 6907.91C6476.1 6654.48 6326.74 6421.36 6055.82 6681.86C5691.12 7032.53 5596.13 5881.39 5856.9 5748.58C6098.33 5625.62 6321.7 5845.12 6504.92 5706.84C6688.15 5568.56 6516.91 5126.71 6385.88 5257.44C6003.1 5639.35 6108.71 5133.98 5913.24 4950.16C5756.86 4803.11 6001.34 4537.25 5856.9 4433.5C5760.25 4364.07 5979.96 4141.24 6057.5 3943C6105.67 3819.84 6183.55 3599.37 6307.5 3543C6431.45 3486.63 6066.19 4065.14 6120.97 4211.5C6180.14 4369.6 6153.21 4319.82 6232.74 4276.51C6385.88 4193.11 6341.48 3837.38 6484.12 3728.94C6626.76 3620.5 6255.76 3112.52 6438.98 2974.24C6622.21 2835.96 6618.92 2060.91 6484.12 1831C6349.33 1601.09 6465.92 1190.39 6504.92 1132C6632.13 941.545 6354.43 768.546 6158.95 745.5C5963.47 722.454 6071.95 539.296 6120.97 367Z" fill="black"/>
<path d="M4499.6 561.53L4693.73 528.17L4664.85 386.88L4517.74 403.67L4487.28 236.63L4421.9 274.7L4382.72 435.69L4499.6 561.53Z" fill="black"/>
<path d="M4964.49 508.87L4861.4 341.021L4740.95 420.317L4811.18 550.665L4667.41 640.993L4727.04 687.554L4891.06 664.131L4964.49 508.87Z" fill="black"/>
<path d="M3954.78 -18.96L3923.5 541L4296.21 617.66L4387.69 182.3L4892.81 253.71L4846.21 31.23L4424.3 -233L3954.78 -18.96Z" fill="black"/>
<path d="M4748.98 881.329L4683.39 938.323L4643.32 878.919L4570.2 827.644L4604.98 736.888L4653.68 737.569L4699.16 759.789L4743.43 811.395L4748.98 881.329Z" fill="black"/>
<path d="M5045 514L5163 630L5021.5 794.5L5147.5 1005.5L4893.49 977.044L4838 752L4965.5 661L5045 514Z" fill="black"/>
<path d="M4905.85 1057.54L4803.33 981.308L4636.67 1047.64L4446.64 1061.34L4464.09 1207.96L4739.64 1179.39L4905.85 1057.54Z" fill="black"/>
<path d="M5627.43 1086.39L5498.71 997.709L5304.45 1090.07L5078.07 1118.4L5110.51 1299.62L5438.07 1247.75L5627.43 1086.39Z" fill="black"/>
<path d="M511.919 7241.75C511.919 7448.26 143 7593.78 143 7706.5H0L-24 0H331.497C356.255 54.8352 394.133 192.74 347.582 305.677C289.393 446.849 511.918 681.357 789.44 704.691C1066.96 728.025 834.087 510.657 1083.22 558.492C1282.53 596.76 1226.19 733.109 1173.11 796.5C1028.82 788.916 1138.1 1168.46 995.703 1279.29C853.306 1390.13 1138.1 1525.47 1173.11 1644.47C1208.12 1763.48 608.25 1614.14 485.722 1749.48C387.699 1857.75 292.862 2099.88 197.615 2078.49C136.123 2234.72 24.9404 2473.42 287.501 2521.25C303.585 2680.51 862.294 2621.01 923.972 2795.43C973.315 2934.97 1217.85 2821.68 1333.96 2747.6C1505.98 2747.6 1345.65 2944.33 1526.97 2971.6C1600.63 2982.68 1626.03 2915.98 1737.02 2903.35C1838.26 2925.52 2045 2862.52 2045 2862.52C2045 2862.52 1921.05 3168.19 1772.98 3118.61C1506.07 3029.23 1596.99 3917.22 1407.28 3718.3C1321.84 3628.7 1038.28 3843.13 995.703 3974.97C953.126 4106.81 977.189 4307.93 1110.98 4366C1306.83 4451.01 898.528 4535.42 882.916 4480C837.618 4319.2 853.277 3457 511.919 3262.5C396.071 3196.49 218.842 3436.62 254.089 3647C290.264 3862.91 474.876 4100 331.497 4131.31C145.166 4172 299.446 4412.72 254.089 4480C209.951 4583.14 429.425 4662.75 347.582 4760.17C265.739 4857.59 614.577 5268.27 614.577 5268.27C614.577 5268.27 923.972 5666.11 923.972 5779.29C923.972 5892.46 630.078 6020.44 739.766 6056.96C787.075 6072.71 1008.48 5953.12 961.169 6031.88C913.86 6110.63 913.86 6210.38 830.598 6210.38C747.336 6210.38 783.61 6307.17 739.766 6309.55C645.528 6314.69 653.626 6472.7 669.455 6551.06C674.753 6643 646.747 6725.48 646.747 6725.48C646.747 6725.48 550.238 6828.74 511.919 6896.41C473.599 6964.08 511.919 7035.24 511.919 7241.75Z" fill="black"/>
</g>
<defs>
<clipPath id="clip0_17_282">
<rect width="6757" height="7706" fill="white"/>
</clipPath>
</defs>
</svg>
