<svg width="4321" height="7706" viewBox="0 0 4321 7706" fill="none" xmlns="http://www.w3.org/2000/svg">
<g clip-path="url(#clip0_17_2)">
<path d="M3647.03 4031.05C3420.33 4043.86 3184.89 4006.05 2962.95 4057.64C2764.55 4204.95 2596.13 4357.71 2332.38 4245.27C1945.02 4052.33 1334.18 4492.98 936.471 4281.7C710.351 4161.58 830.551 4399 742.471 4420.7C836.471 4519.65 873.871 4539.7 982.381 4622.83C1076.06 4625.47 1169.68 4641.57 1263.51 4635.18C1406.57 4593.24 1491.76 4441.48 1642.59 4407.26C1797.23 4352.05 1965.9 4398.52 2121.65 4358.87C2166.99 4332.35 2219.71 4331.7 2270.07 4341.87C2401.2 4373.72 2465.79 4553.12 2373.96 4655.87C2105.09 4902.59 1832.13 4626.31 1544.77 4946.36C1270.14 5134.36 1023.02 4923.36 729.771 5045.83C715.031 5066.76 711.331 5094.43 708.211 5119.39C1170.55 5075.81 1216.82 5350.02 1585.99 5279.13C1754.65 5125.77 1992.93 5075.5 2215.32 5096.29C2370.62 5113.17 2501.76 5118.69 2592.92 5264.88C2737.45 5342.51 3096.66 5305.76 3256.71 5251.58C3288.91 5225.49 3321.13 5198.34 3360.3 5183.38C3174.85 5169.38 3002.58 5091.46 2852.57 4984.68C2776.04 5023.39 2681.42 5007.8 2620.37 4947.87C2534.21 4865.87 2545.43 4710.96 2645.3 4644.87C2660.3 4108.06 3432.39 4130.17 3806.37 4239.99C3787.82 4172.83 3780.22 4101.99 3790.09 4032.91C3742.53 4029.54 3694.69 4030.81 3647.03 4031.05Z" fill="black"/>
<path d="M363.7 7166.28C158.08 7043.52 156.91 6739.39 317.11 6577.88C177.89 6483.48 113.71 6218.48 204.5 6076.13C165.06 5994.6 190.86 5889.03 246.18 5820.72C303.18 5741.2 400.64 5701.82 496.18 5696.92C629.97 5701.74 766.89 5713.54 897.66 5743.11C1032.05 5790.61 1151.89 5870.23 1277.79 5935.75C1328.62 5913.64 1372.99 5949.36 1397.5 5998.7C1445.75 6095.82 1591.64 5958.61 1613.5 6011.7C1553.6 5866.27 1250.4 5842.86 1232.5 5728.7C1025.83 5732.49 1031.75 5582.49 835 5544.32C679.08 5542.42 513.51 5558.55 373.61 5474.99C85.87 5303.45 189.39 4805.91 482.41 4694.37C422.09 4629.23 363.41 4558.25 282.32 4518.42C205.84 4474.68 166.15 4377.29 190.4 4292.56C201.8 4267.01 210.04 4238.64 229.07 4217.56C234.58 4154.78 272.79 4097.49 326.74 4065.89C571.32 3888.4 897.95 3892.6 1164.13 4016.36C1201.21 4016.88 1236.71 4002.71 1272.51 3994.36C1133.62 3935 1001.86 3856.86 848.81 3840.15C606.28 3816.2 217.81 3900.81 222.04 3538.67C152.25 3447.16 163.74 3324.57 199.35 3221.67C243.22 3060.35 278.09 2851.72 470.73 2810.39C409.79 2582.6 293.39 2618.02 363.03 2307.98C255.21 2194.4 214.03 2114.98 228.03 1989.98C237.86 1902.15 411.31 2139.38 459.03 2066.98C720.03 1670.98 507.03 2024.98 1052.9 1959.41C1236.51 1937.41 1479.9 1907.29 1358.03 2140.98C1279.71 2269.92 1049.4 2406.38 933.03 2344.98C856.87 2444.47 850.36 2223.48 791.03 2507.98C791.11 2507.56 731.03 2628.98 852.03 2680.98C916.22 2708.57 811.66 2802.22 875.38 2820.98C1365.47 2826.29 1566.29 2931.91 1971.47 3182.2C1968.15 3115.2 1985.3 3048.66 2014.86 2988.69C1992.29 2947.91 1986.24 2897.56 1995.77 2852.26C1996.11 2847.78 1994.29 2843.59 1991.82 2839.94C1976.52 2820.94 1959.82 2802.26 1948.47 2780.55C1762 2882.55 1359.83 2830.01 1418.66 2547.63C1430.46 2520.82 1439.38 2491.05 1460.02 2469.63C1466.92 2402.74 1511.85 2350.63 1559.48 2306.63C1465.34 2155.44 1531.24 2080.03 1707.96 2019.05C1862.28 1972.25 2227.48 1890.44 2163.96 2038.05C2309.56 2017.95 2276.23 2166.83 2292.15 2333.48C2330.15 2371.48 2357.84 2418.53 2373.62 2469.83C2383.79 2499.66 2376.53 2533.18 2389.75 2561.53C2809.47 2390.7 3260.47 2626 3690.47 2583.7C3622.99 2526.76 3550.62 2488.4 3471.76 2448.75C3372.84 2462.43 3332.46 2409.62 3261.82 2359.12C3013.76 2302.72 2864.19 2362.87 2652 2162C2437.59 1923.77 2279.87 1703.4 1866.28 1763.7C1404.8 1901.79 1288.75 1876.7 836.78 1749.82C671.57 1716.6 356.57 1756.21 263.69 1600.5C207.08 1509.78 276.31 1505.74 369 1454C447.37 1404.69 635.79 1396.38 719 1409C868.05 1426.32 1100 1406 1100 1406C1100 1406 2366.92 722.1 2715.53 1077.4C2861.44 1202.71 2984 1383.4 3183.29 1423.5C3409.47 1415.7 3454.47 1646.7 3854.47 1568.7C3854.47 1568.7 3940.07 852.53 3777 934C3551.34 1046.75 3440.5 1147.42 3250.24 734.91C3225.67 732.389 3200.86 733.708 3176.69 738.82C3078.81 1091.56 2655.89 1003.69 2470.63 773.32C2148.24 545.82 1898.26 841.95 1513.68 677.47C1473.98 672.9 1438.46 683.52 1406.16 706.85C1384.72 724.13 1370.16 747.01 1358.9 771.93C1298.02 955.76 1170.9 1043.15 981.26 1058.25C896.4 1250.45 661.56 1240.95 483.96 1232.12C82.73 1254.47 -0.169983 839.7 280.86 606.4C81.86 416.92 185.67 211.83 271.17 0H0V7702H150C157.88 7691.66 165.94 7681.44 174.38 7671.56C222.8 7626.11 258.69 7569.02 316.3 7533.4C457.6 7440.86 602.42 7435.93 719.57 7568.1C838.18 7441.96 883.75 7552 835.65 7318.58C691.53 7234.13 506.27 7254.84 363.7 7166.28Z" fill="black"/>
<path d="M3764.11 5819.7C3789.35 5824.39 3788.18 5820.25 3810.36 5811.54C3809.76 5766.6 3806.79 5721.66 3802.87 5676.9C3793.11 5606.27 3752.47 5544.8 3740.19 5474.95C3671.7 5503.56 3607.4 5544.73 3530.66 5546.11C3499.15 5588.11 3454.84 5618.93 3403.39 5631.51C3425.05 5710.61 3432.74 5793.05 3435.83 5874.89C3437.77 5875.35 3439.71 5875.78 3441.66 5876.2C3552.95 5883.7 3649.77 5797.92 3764.11 5819.7Z" fill="black"/>
<path d="M3295.06 7305.96C3270.06 7313.74 3248.32 7329.68 3224.79 7340.96C3155.02 7377.45 3079.24 7405.38 2999.44 7403.53C2946.3 7448.45 2884.61 7481.6 2815.02 7485.88C2830.58 7538.88 2827.92 7594.99 2801.15 7643.61C2837.67 7654.25 2872.05 7672.31 2896.49 7701.98H3065.84C3066.57 7698.63 3067.36 7695.28 3068.26 7691.92C3100.26 7572.01 3243.46 7508.51 3353.18 7567.14C3364 7568.02 3374.81 7568.95 3385.61 7569.93C3365.8 7506.24 3364.13 7318.26 3295.06 7305.96Z" fill="black"/>
<path d="M2380.03 7276.53C2150.22 7065.53 2344.17 6747.93 1979.97 6945.62C1899.49 7042.18 1808.22 7070.11 1748.97 7181C1730.91 7205.64 1732.81 7305.39 1707.12 7323.1C1669.41 7376.95 1607.76 7406.33 1542.67 7408.51C1454.67 7407.17 1372.43 7348.05 1349.82 7261.68C1335.44 7190.68 1345.98 7117.45 1331.05 7047.16C1294.32 7001.16 1270.05 6943.89 1256.63 6885.02C1065 6864.12 872.81 6817.02 679.39 6828.71C662.26 6831.93 645.347 6836.22 628.75 6841.55C842.58 6889.72 1159.55 6942.55 1214.33 7194.04C1258.93 7333.28 1265.76 7490.11 1221.69 7630.34C1255.03 7645.13 1280.9 7672.15 1301.55 7702H1874.67C1789.09 7528.63 1788.93 7173 2074 7164C2159.67 7162.81 2174.42 7153.21 2199.17 7234.74C2275.17 7268.2 2321.45 7345.59 2319.37 7428.07C2329.95 7438.2 2337.73 7451.21 2347.37 7462.34C2376.11 7443.91 2381.5 7404.78 2411.21 7385.34C2408.21 7361.87 2390.08 7343.7 2385.77 7319.34C2383.86 7305.06 2381.94 7290.79 2380.03 7276.53Z" fill="black"/>
<path d="M4127 1857C4019.89 2092.89 3888.8 2066.55 3679.36 1942C3428.47 1792.75 3496.36 1805.4 3257.11 1823.62C2846.84 1852.15 2641.96 1509.39 2350.47 1308.7C2067.81 1218.7 2452.94 1403.4 1730.47 1410.7C1721.47 1410.79 1449.92 1539.13 1441 1540C2200.47 1465.7 1937.68 1325 2530 1665C3067.72 1973.7 3227.15 1884.55 3453.48 2008.33C3921.57 2139.72 4547.29 2715.95 3797.48 2975.79C3480.75 3036.28 3156.3 2924.15 2837.99 2907.01C2532.99 2878.83 2435.45 3070.38 2286.08 3317.72C2319.71 3330.9 2349.94 3353.43 2370.42 3383.87C2846.63 2928.17 3274.73 3182.22 3783.18 3128.32C3942.49 3092.91 3634.02 3259 3885.02 3350C4241.41 3479.22 3595.82 3545.7 3364.47 3499.8C3214.74 3467.94 3023.47 3296.65 2913.6 3408.23C2848.92 3473.93 2675.84 3621.36 2494.7 3650.07C1972.3 3732.87 1619.79 3334.68 1163.91 3242.9C982.709 3223.65 800.599 3219.59 619.179 3202.41C607.179 3252.59 591.639 3300.5 577.369 3350.28C592.019 3374.88 604.919 3402.28 611.869 3430.4C884.619 3419.08 1148.23 3477.83 1386.5 3611.57C1570.05 3663.21 1763.04 3631.46 1863.24 3838.91C2013.68 3800.42 2172.6 3770.49 2324.93 3816.65C2391.15 3835.39 2452.78 3873.65 2520.98 3883.41C2539.5 3877.69 2555.07 3864.55 2571.2 3854.01C2847.64 3558.01 3269.36 3645.61 3632.75 3631.12C3848.58 3616.8 4127.44 3658.92 4199.75 3897.8C4223.38 3971.53 4188.4 4038.04 4185.89 4109.8C4250.94 4254.71 4264.83 4347.73 4166.89 4483.67C4100 4652.22 3894.31 4772.24 3726.53 4665.79C3660.84 4622.58 3660.47 4597.59 3573.77 4584.59C3403.84 4581.71 3200.03 4570.44 3048.11 4635.71C3167.62 4712.37 3226.03 4761 3373.43 4784.76C3581.04 4791.49 3784.86 4763.85 3910.43 4970.25C3963.68 5092.11 3932.03 5016.25 4024.49 5092.61C4143.64 5142.1 4175.73 5267.19 4130.8 5381.29C4134.56 5426.61 4161.67 5467.65 4174.05 5511.29C4211.32 5676.64 4238.82 5864.6 4163.92 6023.22C4198.47 6164.7 4055.73 6302.77 3915.47 6259.47C3726.11 6212.84 3777.3 6203.74 3594.52 6262.85C3379.45 6313.85 3104.4 6229.85 3051.16 5992.16C3028.8 5895.28 3043.92 5793.28 3005.65 5699.93C2755.06 5707.16 2439.25 5732.15 2274.4 5503.71C2123.51 5482.38 1938.82 5475.16 1829.65 5600.32C1921.71 5680.22 1997.13 5786.71 2019.74 5908.18C2288.16 5786.18 2716.94 5817.94 2796.91 6156.4C2828.5 6181.75 2860.74 6206.27 2883.35 6240.56C2988.8 6293.32 3026.35 6448.48 2947.02 6538.62C2874.57 6647.24 2708.87 6630.09 2615.78 6559.5C2585.17 6539.83 2558.02 6499.9 2546.78 6465.44C2473.93 6415.32 2428.78 6337.56 2408.35 6252.67C2363.35 6230.54 2280.51 6247.83 2231.29 6255.67C2139.05 6459.67 1859.77 6536.6 1663.29 6445.43C1616.68 6423.91 1582.38 6384.43 1554.38 6342.28C1528.38 6333.95 1500.76 6335.61 1473.81 6333.75C1370.26 6441.86 1235.06 6377.68 1129.17 6310.19C1019.88 6251.31 911.959 6189.78 801.819 6132.52C601.819 6079.4 701.549 6124.57 566.449 6184.1C566.099 6205.32 565.099 6226.58 565.659 6247.81C603.259 6251.3 637.999 6267.93 671.509 6284.32C701.039 6302.59 727.699 6325.32 754.509 6347.23C801.559 6384.47 867.759 6388.93 906.159 6437.75C1148.87 6497.21 1516.54 6419.37 1622.04 6707.55C1720.61 6611.55 1927.04 6667.84 2062.04 6597.96C2259.04 6495.96 2567.27 6532.51 2612.98 6849.57C2641.72 6864.23 2659.98 6889.03 2678.73 6913.87C2701.09 6921.28 2724.33 6930.43 2744.49 6942.66C2813.49 6922.25 2834.2 6849.29 2903.33 6828.28C3006.11 6557.4 3291.09 6460.58 3538.55 6369.8C3667.04 6314.49 3821.38 6389.53 3898.11 6497.96C4105.11 6327.09 4285.9 6552.76 4265.77 6768.81C4260.13 6834.52 4251.65 6900.44 4258.96 6966.36C4275.77 7035.78 4277.96 7107.98 4241.25 7172.06C4122.25 7370.43 3823.9 7282.28 3800.55 7061.91C3699.55 6992.22 3635.3 6895.22 3598.55 6778.91C3502.41 6808.91 3400.03 6838.32 3324.16 6907.68C3487.84 6919.41 3637.16 7035.09 3710.59 7178.26C3732.97 7216.05 3747.59 7259.67 3740.24 7303.86C3758.45 7388.53 3774.24 7473.74 3786.89 7559.4C4138.34 7687.78 3827.89 7717.54 4320.06 7701.96L4321.06 1396.96C4315.27 1447.53 4149.47 1808.9 4127 1857Z" fill="black"/>
</g>
<defs>
<clipPath id="clip0_17_2">
<rect width="4321" height="7705.78" fill="white"/>
</clipPath>
</defs>
</svg>
