<svg width="6781" height="9486" viewBox="0 0 6781 9486" fill="none" xmlns="http://www.w3.org/2000/svg">
<g clip-path="url(#clip0_19_553)">
<path d="M2626.03 6551.16L2871.16 6380.19L3221.34 6473.57L3181.52 6668.57L3333.26 6786.68L3128.65 6929.5L2700.19 6786.68L2626.03 6551.16Z" fill="black"/>
<path d="M5696 4622.97L5941.13 4452L6291.31 4545.38L6251.49 4740.38L6403.23 4858.49L6198.62 5001.31L5770.16 4858.49L5696 4622.97Z" fill="black"/>
<path d="M4343.37 4901.13L4330.97 5199.73L4044.59 5421.84L3913.53 5272.06L3727.65 5321.29L3737.91 5071.97L4111.04 4817.51L4343.37 4901.13Z" fill="black"/>
<path d="M880.37 3516.12L867.97 3814.73L581.591 4036.84L450.532 3887.06L264.649 3936.28L274.911 3686.97L648.039 3432.51L880.37 3516.12Z" fill="black"/>
<path d="M5258.61 5788.81L5084.66 5545.79L5173.74 5194.49L5369.22 5231.93L5485.46 5078.75L5630.77 5281.6L5493.21 5711.77L5258.61 5788.81Z" fill="black"/>
<path d="M5319.64 6197.81L5179.4 6092.85L5108.78 5906.61L5274.42 5956.98L5327.19 5885.08L5267.23 5797.91L5482.65 5912.63L5437.04 6113.2L5319.64 6197.81Z" fill="black"/>
<path d="M2389.61 7996L2292.54 8081.21L2239 8193.34L2353.64 8337V8213.5L2453.11 8113.5L2389.61 7996Z" fill="black"/>
<path d="M1730.47 7760.98L1671.79 7876.04L1663.51 8000.02L1823.15 8091.11L1777.48 7976.36L1832.92 7846.67L1730.47 7760.98Z" fill="black"/>
<path d="M2495.03 8887.03L2458.65 8792.98L2390.84 8723.6L2254.73 8769.03L2345.26 8802.22L2391.83 8902L2495.03 8887.03Z" fill="black"/>
<path d="M4612.61 6655L4515.54 6740.21L4462 6852.34L4576.64 6996V6872.5L4676.11 6772.5L4612.61 6655Z" fill="black"/>
<path d="M3665.19 6875.13L3636.26 7001.01L3658.38 7123.28L3835.38 7172.8L3763.17 7072.61L3785.4 6933.33L3665.19 6875.13Z" fill="black"/>
<path d="M6441.5 6858.5L6247 7008.5V7138L6381.64 7232L6417.61 7088.5L6533 7008.5L6441.5 6858.5Z" fill="black"/>
<path d="M5526.78 6687.91L5398.33 6701.49L5289.9 6762.17L5300.63 6945.65L5371.89 6844.79L5510.84 6820.52L5526.78 6687.91Z" fill="black"/>
<path d="M1220.61 5295L1123.54 5380.21L1070 5492.34L1184.64 5636V5512.5L1284.11 5412.5L1220.61 5295Z" fill="black"/>
<path d="M4805.61 8386L4708.54 8471.21L4655 8583.34L4769.64 8727V8603.5L4869.11 8503.5L4805.61 8386Z" fill="black"/>
<path d="M5073.61 7671L4976.54 7756.21L4923 7868.34L5037.64 8012V7888.5L5137.11 7788.5L5073.61 7671Z" fill="black"/>
<path d="M4671.5 6423L4768.57 6508.21L4822.11 6620.34L4707.47 6764V6640.5L4608 6540.5L4671.5 6423Z" fill="black"/>
<path d="M3763 6568.5L3638.5 6786.5L3801.01 6870.26L3940.18 6695.22L4151.09 6841.09L4194.5 6695.22L4019.5 6568.5H3763Z" fill="black"/>
<path d="M5344.71 8288.26L5520.21 8331.27L5734.21 8288.26L5582.9 8084.77L5650.21 7863.27L5492.71 7749.77L5492.71 7966.77L5344.71 8129.27L5344.71 8288.26Z" fill="black"/>
<path d="M1871.7 6026L1700 6268.96L1881.75 6389L2020.92 6213.96L2231.83 6359.83L2261 6249.35L2130.92 6035.57L1871.7 6026Z" fill="black"/>
<path d="M4819.41 4597.42L4942.95 4868.06L5138.15 4771.41L5056.92 4563.06L5289.11 4454.21L5208.32 4373.4L4958.12 4378.23L4819.41 4597.42Z" fill="black"/>
<path d="M6186.5 3978.5L6419.09 3845.68L6532.01 4031.64L6419.09 4174.5L6489.61 4379.95L6378.24 4404.87L6169.79 4266.93L6186.5 3978.5Z" fill="black"/>
<path d="M5376.94 1941.99L5321.05 1926.05L5339.21 1885.49L5382.13 1895.08L5402.49 1847.01L5419.51 1860.26L5420.41 1908.75L5376.94 1941.99Z" fill="black"/>
<path d="M4870.91 6227.44L4725.43 6173.78L4689.52 6281.47L4796.41 6327.92L4751.43 6453.78L4810.98 6453.57L4901.06 6359.24L4870.91 6227.44Z" fill="black"/>
<path d="M4254.08 6995.23L4231.86 7200L4076.36 7141.46L3881.05 7141.46L3819.31 6942.28L3902.42 6878.93L4008.68 6856.17L4151.89 6884.61L4254.08 6995.23Z" fill="black"/>
<path d="M2925.97 3889.48L2888.42 4013.07L2902.05 4136.57L3075.21 4198.2L3010.09 4093.26L3041.88 3955.84L2925.97 3889.48Z" fill="black"/>
<path d="M3081.83 3369.52L2969.98 3434.12L2834.49 3575.8L2931.99 3712.59L2969.98 3552.59L3121.15 3497.17L3081.83 3369.52Z" fill="black"/>
<path d="M3050 3554L2925.5 3772L3088.01 3855.76L3227.18 3680.72L3438.09 3826.59L3481.5 3680.72L3306.5 3554H3050Z" fill="black"/>
<path d="M3582.91 4000.72L3567.45 4207.66L3385 4140.45L3159.51 4130.73L3078.31 3925.28L3171.11 3865.05L3292.66 3847.21L3459.43 3883.23L3582.91 4000.72Z" fill="black"/>
<path d="M2558.79 4262.14L2659.07 4160.05L2718.66 4258.92L2825.16 4343.01L2773.07 4478.21L2700.48 4476.97L2632.73 4443.63L2566.88 4366.46L2558.79 4262.14Z" fill="black"/>
<path d="M1999 2844.64L1945.25 2753.24L2053.5 2753.24L2119.65 2668.31L2209.06 2731.3L2191.74 2783.28L2151.5 2825.71L2078.89 2858.51L1999 2844.64Z" fill="black"/>
<path d="M3043.34 5386.44L3221.6 5489.62L3266.36 5329.61L3381.87 5172.13L3257.77 5004.53L3157.53 5034.09L3076.34 5106.31L3014.57 5238.61L3043.34 5386.44Z" fill="black"/>
<path d="M2117.03 5057.86L2171.89 5372.51L2265.96 5166.8L2310.44 5421.95L2533.77 5232.79L2637.77 5081.17L2456.14 4787.5L2364.8 5014.67L2117.03 5057.86Z" fill="black"/>
<path d="M2213.24 1923.45L2277.56 1727.78L2417.49 1817.38L2608.52 1858L2627.49 2065.68L2533.02 2110.35L2424.36 2110.52L2290.19 2052.91L2213.24 1923.45Z" fill="black"/>
<path d="M4625.02 3202.82L4475.6 3061.06L4616.39 2972.84L4734.74 2817.48L4930.61 2889.06L4930.64 2993.56L4884.35 3091.88L4774.94 3188.57L4625.02 3202.82Z" fill="black"/>
<path d="M5821.85 1851.18L6027.76 1846.39L5990.09 2008.22L6015.67 2201.84L5826.28 2289.14L5752.6 2215.04L5716.12 2112.68L5725.55 1966.97L5821.85 1851.18Z" fill="black"/>
<path d="M1118.95 2825.5L1147.17 3029.53L1300.88 2966.45L1496.1 2960.71L1551.97 2759.8L1467.03 2698.92L1360.15 2679.29L1217.84 2711.92L1118.95 2825.5Z" fill="black"/>
<path d="M1475.77 4081.63L1348.16 4165.6L1439.43 4248.41L1505.54 4377.3L1657.89 4350.63L1671.56 4274.33L1650.62 4196.5L1583.37 4111.62L1475.77 4081.63Z" fill="black"/>
<path d="M2333.55 7003.25L2250.93 6879.6L2294.16 6801.73L2156.43 6757L2084 6822.31L2204.46 6960.05L2333.55 7003.25Z" fill="black"/>
<path d="M3291.9 6412.06L3345.86 6328.33L3345.61 6204.07L3230.49 6116.21L3140.51 6153.82L3242.25 6253.68L3291.9 6412.06Z" fill="black"/>
<path d="M5567.4 7113.65L5509.18 7052.55L5397.05 6999L5268.03 7064.77L5263 7162.16L5397.05 7113.65H5567.4Z" fill="black"/>
<path d="M2231.7 7571.99L2209 7756.97L2362.87 7703.47L2541.96 7825.5L2661.78 7654.82L2602.08 7569.05L2507.91 7514.82L2362.87 7498L2231.7 7571.99Z" fill="black"/>
<path d="M2231.7 7571.99L2209 7756.97L2362.87 7703.47L2541.96 7825.5L2661.78 7654.82L2602.08 7569.05L2507.91 7514.82L2362.87 7498L2231.7 7571.99Z" fill="black"/>
<path d="M3960.92 6158.45L4005.27 5914.84L3825.99 5888L3782.36 6068.94L3572 6032.84L3588.74 6126.46L3761.92 6242.17L3960.92 6158.45Z" fill="black"/>
<path d="M2674.92 6158.45L2719.27 5914.84L2539.99 5888L2496.36 6068.94L2286 6032.84L2302.74 6126.46L2475.92 6242.17L2674.92 6158.45Z" fill="black"/>
<path d="M5313.92 5083.45L5358.27 4839.84L5178.99 4813L5135.36 4993.94L4925 4957.84L4941.74 5051.46L5114.92 5167.17L5313.92 5083.45Z" fill="black"/>
<path d="M4240.53 6203.93L4146.22 6364.67L4287.43 6425.79L4424.56 6559.82L4602.32 6450.77L4638 6332.5L4581.61 6203.93L4390.3 6188.12L4240.53 6203.93Z" fill="black"/>
<path d="M4969.78 4040L5038.24 4099.97L5076 4178.89L4995.15 4280V4193.08L4925 4122.7L4969.78 4040Z" fill="black"/>
<path d="M5298.75 4013.06L5365.15 3899.89L5265.73 3856.86L5169.19 3762.51L5044.05 3839.28L5018.93 3922.54L5058.63 4013.06L5193.31 4024.19L5298.75 4013.06Z" fill="black"/>
<path d="M4024.83 7554.47L3979.41 7669.91L4078.45 7695.5L4182.31 7769.44L4287.85 7679.37L4263.72 7614.17L4212.13 7563.55L4121.58 7528.59L4024.83 7554.47Z" fill="black"/>
<path d="M4895 7698.5L4685.1 7556L4417.09 7573.18L4243 7833.3L4458.5 8048L4557.5 7762.5L4895 7698.5Z" fill="black"/>
<path d="M2835.88 7215.9L3030.01 7182.54L3001.13 7041.25L2854.02 7058.04L2823.56 6891L2758.18 6929.07L2719 7090.06L2835.88 7215.9Z" fill="black"/>
<path d="M2169.88 9033.9L2364.01 9000.54L2335.13 8859.25L2188.02 8876.04L2157.56 8709L2092.18 8747.07L2053 8908.06L2169.88 9033.9Z" fill="black"/>
<path d="M1055.88 7290.9L1250.01 7257.54L1221.13 7116.25L1074.02 7133.04L1043.56 6966L978.18 7004.07L939 7165.06L1055.88 7290.9Z" fill="black"/>
<path d="M175.359 5833.41L256.381 5942.86L334.776 5881L278.629 5795.41L372.457 5724.55L328.574 5696.05L216.823 5722.04L175.359 5833.41Z" fill="black"/>
<path d="M2719.76 8957.24L2616.68 8789.39L2496.23 8868.69L2566.46 8999.03L2422.68 9089.36L2482.32 9135.92L2646.34 9112.5L2719.76 8957.24Z" fill="black"/>
<path d="M3108.37 7034.11L3099.25 7108.47L3171.5 7096.5L3233.1 7136.02L3281.27 7067.41L3257.27 7032.93L3219.41 7011.13L3161.1 7004.37L3108.37 7034.11Z" fill="black"/>
<path d="M2129 5980L2382.5 5980L2382.5 5873.5L2491.5 5768.8L2351.14 5714.31L2294.96 5729.55L2248.86 5768.8L2212.86 5841.74L2129 5980Z" fill="black"/>
<path d="M4598.23 7096.49L4558.98 7066.31L4598.02 7037.91L4607.89 6990.64L4662.48 6999.8L4667.62 7027.06L4660.39 7054.95L4636.62 7085.49L4598.23 7096.49Z" fill="black"/>
<path d="M3471.73 6196.43L3413.76 6183.71L3441.63 6132.97L3428.22 6076.66L3492.12 6058.75L3511.61 6085.7L3517.99 6119.65L3507.77 6164.91L3471.73 6196.43Z" fill="black"/>
<path d="M4898.07 6821.89L4736.25 6850.79L4696.44 7049.23L4578.39 7226.21L4762.73 7327.68L4923.71 7064.15L4898.07 6821.89Z" fill="black"/>
<path d="M5693.61 3317L5596.54 3402.21L5543 3514.34L5657.64 3658V3534.5L5757.11 3434.5L5693.61 3317Z" fill="black"/>
<path d="M4129.61 3466L4032.54 3551.21L3979 3663.34L4093.64 3807V3683.5L4193.11 3583.5L4129.61 3466Z" fill="black"/>
<path d="M4695.78 3232.26L4766.04 3340.64L4787.09 3463.1L4637.73 3570.2L4671.29 3451.35L4602.74 3328.08L4695.78 3232.26Z" fill="black"/>
<path d="M5679.23 3758.49L5639.98 3728.31L5679.02 3699.9L5688.89 3652.64L5743.48 3661.8L5748.62 3689.06L5741.39 3716.95L5717.62 3747.49L5679.23 3758.49Z" fill="black"/>
<path d="M4574.19 3334.76L4428.65 3353.92L4354.35 3539.82L4216.81 3701.43L4355.58 3806.88L4547.59 3565.48L4574.19 3334.76Z" fill="black"/>
<path d="M5782.16 6438.4L5884.95 6555.39L5787.14 6698.3L5761.83 6876.65L5558.27 6823.54L5607.07 6567.1L5782.16 6438.4Z" fill="black"/>
<path d="M4901.81 7919.44L4721.07 7943.91L4617.1 8177.93L4436.76 8381.54L4600.88 8513.81L4853.7 8209.7L4901.81 7919.44Z" fill="black"/>
<path d="M5691.81 7069.72L5791.93 7222.18L5683.55 7454.17L5648.21 7723.86L5440.72 7686.8L5504.33 7296.47L5691.81 7069.72Z" fill="black"/>
<path d="M4222.37 8044.4L4373.83 8146.01L4364.05 8401.89L4436.21 8664.13L4230.6 8710.55L4137.66 8326.16L4222.37 8044.4Z" fill="black"/>
<path d="M2718.47 4505.72L2900.8 4500.64L3041.23 4714.77L3252.12 4886.55L3111.55 5043.61L2812.89 4784.38L2718.47 4505.72Z" fill="black"/>
<path d="M1412.12 2163.57L1362.26 2335.41L1528.86 2529.35L1638.22 2778.29L1820.66 2689.05L1650.78 2332L1412.12 2163.57Z" fill="black"/>
<path d="M4634 5975.5L4410.19 6144.81L4597.6 6151.6L4719.5 6079.94L4826.88 6150.33L4872 6079.94L4839.5 5940.5L4634 5975.5Z" fill="black"/>
<path d="M1039.81 4236.24L816 4066.93L1003.41 4060.14L1125.31 4131.81L1232.7 4061.41L1277.81 4131.81L1245.31 4271.24L1039.81 4236.24Z" fill="black"/>
<path d="M4463.5 2871.9L4357.5 2981.59L4463.5 3229.5L4206.39 3171.98L4212.78 2981.59L3995.95 2959.65L4037.94 2871.9L4239.89 2805.15L4463.5 2871.9Z" fill="black"/>
<path d="M2423.71 1758.08L2634.69 1758.08L2778.2 1500.71L2545.18 1489.37L2539.01 1340.54L2359.2 1405.58L2359.2 1670.08L2423.71 1758.08Z" fill="black"/>
<path d="M2545.81 3965.23L2717 4175.5L2854.02 3986.73L2717 3854.39L2857.52 3687.81L2766.32 3653.96L2574.8 3746.48L2545.81 3965.23Z" fill="black"/>
<path d="M4474.96 5767.49L4306.5 5674L4126.11 5805L3991.5 5850L4092.5 5943.5L4263.54 5879.87L4474.96 5767.49Z" fill="black"/>
<path d="M2834.92 5918.51L2829.1 5800.69L2759.35 5641.63L2562.75 5593.41L2468.49 5691.88L2650.64 5765.64L2834.92 5918.51Z" fill="black"/>
<path d="M4409.25 8993.73L4309.13 8931.35L4138.68 8898L3987 9032.04L4014.18 9165.62L4178.61 9058L4409.25 8993.73Z" fill="black"/>
<path d="M1550.69 5694.21L1484.35 5791.75L1341.95 5891.18L1149.02 5829.94L1119.86 5696.77L1313.76 5728.7L1550.69 5694.21Z" fill="black"/>
<path d="M2357.53 7170.99L2291.89 7123.7L2347.42 7078.55L2368.19 6997.4L2457.9 7009.53L2467.64 7053.83L2457.16 7099.82L2419.77 7151L2357.53 7170.99Z" fill="black"/>
<path d="M1625.06 8453.41L1536.28 9038.54L1966.49 9090.03L2057.97 8654.67L2563.09 8726.08L2516.49 8503.6L2094.58 8239.37L1625.06 8453.41Z" fill="black"/>
<path d="M1603.53 7703L1464.16 7835.82L1342 8091.6L1492.03 8385.92L1793.62 8302.47L1632.12 8020.97L1603.53 7703Z" fill="black"/>
<path d="M1332.38 7052.46L1320.84 6860.28L1204.26 6601.91L882.603 6526.62L751.752 6810.87L1071.02 6869.13L1332.38 7052.46Z" fill="black"/>
<path d="M1289.5 7892.76L1213.52 7715.86L1201.68 7432.65L1455.28 7220.95L1699.83 7416.18L1440.72 7611.59L1289.5 7892.76Z" fill="black"/>
<path d="M1595.42 5183.55L1451.5 5413.82L1595.42 5692.5L1595.42 5869L1827.5 5744.5L1654.5 5509.55L1595.42 5183.55Z" fill="black"/>
<path d="M3757.5 4553.5L3687.73 4769.68L3884.3 4801.9L3965.26 4877.93L4018.98 4682.7L3828.58 4687.05L3757.5 4553.5Z" fill="black"/>
<path d="M2239.08 4938.53L2375.39 4735.36L2226.76 4526.58L2222.49 4383.73L2024.5 4597.5L2172.95 4681.56L2239.08 4938.53Z" fill="black"/>
<path d="M2750.58 9486.59V8945L2558.5 8371V7919.96L2776.7 7628L3068.67 7909.21L2940.5 8619.33L3047.92 9377.48L2750.58 9486.59Z" fill="black"/>
<path d="M2671.5 2589.5L2715 2407L2890.67 2238L2741.5 1836.5L3088.93 427.661L3204.5 -5.00024L3468 -5.00025L3204.5 1718L3204.5 2349.5L3151.54 2852.39L2944 2440.5L2838.5 2613.5L2671.5 2589.5Z" fill="black"/>
<path d="M4268 2561.5L4021.7 2266L4021.7 1732.26L3999.86 1.00024L3728.25 1L3707.5 530L3573.5 1639.5L3511.89 2026L3389.39 2353.5L3448.78 2857.5L4268 2561.5Z" fill="black"/>
<path d="M3545 9312L3683.08 8533.01L3631.9 7857.58L3894.65 7628L4129 7931.11L3852.67 9261.45L3545 9312Z" fill="black"/>
<path d="M5775.38 3986.44L5873.14 3251.54L5593.81 2942.6L5682.37 2580.14L5950 2518.5L6054.51 3488.84L6201.5 3588.5L6073 3818.5L5775.38 3986.44Z" fill="black"/>
<path d="M2018 5692.5L1741 5477L1772.8 5242.91L1583.18 4945.32L1771.52 4730.27L2047.36 4777.89L2047.36 5412L2018 5692.5Z" fill="black"/>
<path d="M2483.09 3793.55L2129.84 3556.68L1957.89 3248.54L1679.22 3312.26L1590.22 3577.66L2225.36 3957.81L2483.09 3793.55Z" fill="black"/>
<path d="M3167.5 7878L3002.5 7780L2838 7626.5L2955.5 7478.5L3085.09 7657.5L3234.31 7706.22L3167.5 7878Z" fill="black"/>
<path d="M5172.41 4150.38L5352.81 4156.88L5497.43 4227.7L5453.58 4472.19L5368.04 4344.71L5174.39 4324.95L5172.41 4150.38Z" fill="black"/>
<path d="M2727.24 3270L2761.25 3299.74L2780 3338.87L2739.84 3389V3345.9L2705 3311L2727.24 3270Z" fill="black"/>
<path d="M2743.37 3111.57L2776.46 3055.17L2726.91 3033.72L2678.79 2986.7L2616.43 3024.96L2603.9 3066.46L2623.69 3111.57L2690.82 3117.12L2743.37 3111.57Z" fill="black"/>
<path d="M2759.93 3157.99L2849.84 3161.23L2921.92 3196.52L2900.06 3318.37L2857.43 3254.84L2760.91 3244.99L2759.93 3157.99Z" fill="black"/>
<path d="M2108.6 2501.5L2105.23 2559.17L2080.41 2608.76L1998.31 2607.33L2041.83 2573.62L2049.76 2511.07L2108.6 2501.5Z" fill="black"/>
<path d="M2301.44 2618.99L2372.89 2575.48L2330.05 2521.31L2304.31 2439.18L2210.86 2444.52L2171.62 2483.7L2166.59 2546.51L2238.87 2593.41L2301.44 2618.99Z" fill="black"/>
<path d="M2205.68 2893.12L2305.03 2951.23L2364.87 3034.65L2266.45 3158.72L2256.89 3061.3L2154.1 2991.76L2205.68 2893.12Z" fill="black"/>
<path d="M2552.01 2331.52L2580.39 2249.77L2636.46 2188.25L2754.54 2223.14L2677.9 2254.3L2640.95 2341.27L2552.01 2331.52Z" fill="black"/>
<path d="M4128.28 3198.6L4128.28 3026.33L4007.38 3044.98L3962.5 3168.15L3829.49 3198.6L3901.5 3276.65L4061.5 3323.65L4128.28 3198.6Z" fill="black"/>
<path d="M3774.03 2876.73L3888.3 2959.9L3864.57 3155.88L3733.89 3070.16L3671.88 3148.34L3600.12 3042.22L3704.39 2898.96L3774.03 2876.73Z" fill="black"/>
<path d="M4503.22 5734.5L4596.85 5832.33L4720.66 5886.88L4880.77 5773.54L4743.93 5772.43L4633.93 5672.06L4503.22 5734.5Z" fill="black"/>
<path d="M3806.92 4269.15L4087.95 4167.45L4402.03 4348.28L4313.1 4526.33L4429.1 4679.69L4194.49 4764.68L3817.6 4515.84L3806.92 4269.15Z" fill="black"/>
<path d="M1897.63 1855.96L1890.92 2017.53L1735.97 2137.7L1665.06 2056.66L1564.49 2083.29L1570.04 1948.4L1771.93 1810.72L1897.63 1855.96Z" fill="black"/>
<path d="M747.922 1405.14L1028.95 1303.44L1343.03 1484.27L1254.1 1662.32L1370.1 1815.68L1158.5 1862.5L758.597 1651.83L747.922 1405.14Z" fill="black"/>
<path d="M6149.97 1890C6189.18 1752.16 6097.06 1569.11 6149.97 1504H6781V9360.49C6674.99 9379.52 5800.44 9214.54 5800.44 9047.18C5800.44 8876.58 6662.82 8778.58 6571.6 8430.91C6505.1 8177.47 6355.74 7944.35 6084.82 8204.86C5720.12 8555.52 5625.13 7404.38 5885.9 7271.58C6127.33 7148.62 6350.7 7368.11 6533.92 7229.83C6717.15 7091.56 6545.91 6649.71 6414.88 6780.44C6032.1 7162.34 6137.71 6656.98 5942.24 6473.16C5785.86 6326.1 6030.34 6060.24 5885.9 5956.5C5789.25 5887.07 6008.96 5664.24 6086.5 5466C6134.67 5342.83 6212.55 5122.37 6336.5 5066C6460.45 5009.62 6095.19 5588.13 6149.97 5734.5C6209.14 5892.6 6182.21 5842.81 6261.74 5799.5C6414.88 5716.11 6370.48 5360.38 6513.12 5251.94C6655.76 5143.49 6284.76 4635.51 6467.98 4497.23C6651.21 4358.96 6647.92 3583.91 6513.12 3354C6378.33 3124.08 6494.92 2713.38 6533.92 2655C6661.13 2464.54 6383.43 2291.54 6187.95 2268.5C5992.47 2245.45 6100.95 2062.29 6149.97 1890Z" fill="black"/>
<path d="M4591.44 1866L4740 1840.43L4717.9 1732.15L4605.32 1745.01L4582.01 1617L4531.98 1646.17L4502 1769.55L4591.44 1866Z" fill="black"/>
<path d="M4976.49 2031.87L4873.4 1864.02L4752.95 1943.31L4823.18 2073.66L4679.41 2163.99L4739.04 2210.55L4903.06 2187.13L4976.49 2031.87Z" fill="black"/>
<path d="M4760.98 2404.33L4695.39 2461.32L4655.32 2401.92L4582.2 2350.64L4616.98 2259.88L4665.68 2260.57L4711.16 2282.79L4755.43 2334.39L4760.98 2404.33Z" fill="black"/>
<path d="M5057 2037L5175 2153L5033.5 2317.5L5159.5 2528.5L4905.49 2500.04L4850 2275L4977.5 2184L5057 2037Z" fill="black"/>
<path d="M4934.83 2586.57L4816.79 2537.68L4671.38 2642.7L4490.45 2702.41L4543.18 2840.31L4803.41 2745.32L4934.83 2586.57Z" fill="black"/>
<path d="M5639.43 2609.39L5510.71 2520.71L5316.45 2613.06L5090.07 2641.39L5122.51 2822.62L5450.07 2770.74L5639.43 2609.39Z" fill="black"/>
<path d="M535.919 8764.75C535.919 8971.25 167 9116.78 167 9229.5H0V1523H355.497C380.255 1577.83 418.133 1715.74 371.582 1828.67C313.393 1969.84 535.918 2204.35 813.44 2227.69C1090.96 2251.02 858.087 2033.65 1107.22 2081.49C1306.53 2119.75 1250.19 2256.1 1197.11 2319.49C1052.82 2311.91 1162.1 2691.45 1019.7 2802.29C877.306 2913.13 1162.1 3048.46 1197.11 3167.47C1232.12 3286.47 632.25 3137.13 509.722 3272.47C411.699 3380.74 316.862 3622.87 221.615 3601.48C160.123 3757.72 48.9404 3996.41 311.501 4044.25C327.585 4203.51 886.294 4144 947.972 4318.43C997.315 4457.96 1241.85 4344.68 1357.96 4270.59C1529.98 4270.59 1369.65 4467.32 1550.97 4494.6C1624.63 4505.68 1650.03 4438.98 1761.02 4426.35C1862.26 4448.51 2069 4385.51 2069 4385.51C2069 4385.51 1945.05 4691.19 1796.98 4641.6C1530.07 4552.23 1620.99 5440.21 1431.28 5241.29C1345.84 5151.69 1062.28 5366.13 1019.7 5497.97C977.126 5629.81 1001.19 5830.92 1134.98 5888.99C1330.83 5974.01 922.528 6058.41 906.916 6002.99C878.144 5900.86 621.197 5598.24 534.5 5281C484.704 5098.78 814.535 4792.45 690 4721.5C632.955 4688.99 268.435 4567.23 193.5 4641.6C116.255 4718.27 175.609 5057.21 193.5 5164C229.675 5379.91 498.876 5623 355.497 5654.31C169.166 5694.99 323.446 5935.71 278.089 6002.99C233.951 6106.13 453.425 6185.74 371.582 6283.16C289.739 6380.58 638.577 6791.26 638.577 6791.26C638.577 6791.26 947.972 7189.11 947.972 7302.28C947.972 7415.45 654.078 7543.44 763.766 7579.96C811.075 7595.71 1032.48 7476.12 985.169 7554.87C937.86 7633.63 937.86 7733.38 854.598 7733.38C771.336 7733.38 807.61 7830.16 763.766 7832.55C669.528 7837.68 677.626 7995.69 693.455 8074.06C698.753 8165.99 670.747 8248.48 670.747 8248.48C670.747 8248.48 574.238 8351.73 535.919 8419.4C497.599 8487.07 535.919 8558.24 535.919 8764.75Z" fill="black"/>
</g>
<defs>
<clipPath id="clip0_19_553">
<rect width="6781" height="9486" fill="white"/>
</clipPath>
</defs>
</svg>
