<svg xmlns="http://www.w3.org/2000/svg" viewBox="0 0 3085.59 6988.53"><defs><style>.cls-1{fill-rule:evenodd;}</style></defs><g id="Ebene_2" data-name="Ebene 2"><g id="Ebene_1-2" data-name="Ebene 1"><path class="cls-1" d="M2201.73,4217.69c-14.82,124.73-152.24,24.34-266.3,77.46-104.62,48.74-182.63,145.18-199.22,156.53C1651,4509.92,1565.53,4484.61,1503,4481c-76-4.33-161.3-5.91-217.24-79.21-39.44-51.68-81-132.18-156.66-159.83-80.79-29.55-192.18-.59-244.34-7-30.7-64.77,4.85-129.42,9.49-166.66,7.15-57.26,1.92-114.19,42.18-148.23,20.78-17.58,80.44,2,97.69-19.63,16.17-20.3-18.65-66-12.77-95.8,11.91-60.3,80.49-80.22,107.15-112.68,33.15-40.37,39.85-105.77,82.25-131.47,14.09-8.53,57.1,28.52,71.1,19.29,13.66-9-4.84-62,8.22-72.75,39.07-32.13,108.4-42.81,130-89.54,21.26-46-13.69-115.07.77-162,11.93-38.68,73.8-56.7,87.37-87.84,17.6-40.41,3.54-106.95,34.82-120.42,43-18.49,57.19,41.1,77.59,79.8,15.51,29.44,76.74,48.23,87.86,86.13,9.23,31.42-32.21,80.94-21.29,104.79,16.17,35.29,49.91,19.81,81.41,5.49,52.65-23.94,69,30.86,72.51,85.16,2.2,34.32,44.25,88.78,21.44,137-29.23,61.76-123.11,97.39-188.73,152.79-60.71,51.26-110.3,139-186.87,154.37-66.94,13.44-138.84,7.21-163.79,47-35.81,57.1,9.91,121.05,38.41,152.32,16,17.5,22.85,90.88,71.11,110.81,35.33,14.59,83.54-28.09,126.87-33.57,39.59-5,104.31,21.38,140.87-9.75,34.37-29.28,18.82-95.41,30.73-137.91,25.66-91.54,135.53-10.93,231.67,66.22C2062.92,4128.21,2217.73,4083.06,2201.73,4217.69ZM1212.14,1482.94c42.55,6,85.28,40.56,119.87,17.3,30.91-20.78,26.26-91.17,56.75-121,22.53-22.07,81.79-4.67,106.76-25.3,24.71-20.41,31.75-86.51,61-100.2,52,6.93,129.17,81.6,213.71,133,64.93,39.5,165,58.76,206,133.87,26.45,48.44-7.08,114.72,3.93,160.29,12.47,51.64,71.07,92.13,76.4,140.15s-71.5,182.89-73,303.93c-1.62,127.48,49.34,216,153.59,207.28,69.16,20,123.13,39,150-1.75,23.11-35.09-3-114,29.54-159.77,18.64-26.19,73.42-33.31,81.11-59,9.73-32.6-6.52-92.25,31-91.17,46.23-5.28,94.36,14.48,108.55-9.45,22.19-37.44-4.84-122.7,22.29-125.77,24.05-2.71,48.75,55,79.72,63.2,25.72,6.85,68.65-35.57,96.37-26.19,45.38,15.34,79.28,83.33,121.14,89.35,51.81,7.44,78.09-41.65,105.58-82.82,40.4-60.47,116.82-106.49,122.86-172,5.87-63.62-58-117.47-98.95-184-16.91-27.47-4-88-35.62-112.25-26.74-20.52-88.46,3.38-120-17.38-57.09-37.63-83.59-119-132-168.15-48.63-49.36-131-86.17-139-161-4.24-39.75,52.09-75.39,58.46-110.73,7.05-39.17-34-88.4-23.59-122.13l52.78,8-52.77-8c3.15-10.19,57.9-4.5,60.76-14.19,3-10.3-46.28-34.37-43.9-44.11,5-20.55,64.33-15,81-33.1,15-16.28-4.76-70.41,12.34-85.25,23.37-20.27,85.88-4.49,97.86-23.2,14.92-23.32-23.91-38.26-57.48-61.42-20.46-14.11-5-70.35-19.65-82.65-20.07-16.81-71.61,8.39-84.6-4.15-39.11-37.75-46.49-98.46-98.8-78.7-25.65,9.68-36.91,76.64-86.6,105.19-41,23.56-85.37-15.89-106.66-14.12-38,3.17-73.85,17.38-93.14-17.08-14.73-26.31,8.47-91.63-24.47-118.8-23-18.95-77.87,11-120.09-.88-53.47-15-49.39-70.41-59.39-88.23-15.07-26.85-37.22-60.38-10.45-96,15.44-20.53,78.12-15,89.54-39.13,11.28-23.89-33.51-56.11-38.92-84.09C2079.79,38,2029.4-6.24,1940.34.72,1873.54,6,1801,75.88,1738.51,89.24c-66.87.38-64.27-60-130.87-66.15S1536.72,69.5,1470,64.65c8.19,3.15,8.82,4.64,17,7.75s25.94,7.95,34.14,10.88c-65.24-.34-64.34-55.78-129.55-57.57S1331,45.91,1271.89,73.57c-17.38,72.77-5.77,140.34,55.11,199,59.57,57.37,164,56.08,222.69,73.83,38.69,11.71,32.54,69.88,47.11,89,18.45,24.21,71.28,32.8,76.44,64.87,1.68,10.43-49.67,30.93-47.4,41.88,2.14,10.34,56.83,7,60.34,17.63,6.63,20.16,1.26,151.82,91,231.69,53.94,48,146.74,40.52,242.23,48.77,28.45,2.47,23.48,58.9,37.57,77.44,13.79,18.14,69.61,15.07,78.89,38.4,10.06,25.29-25.63,78-9.68,97.06,15.64,18.69,58-13,90.4-12.49,46.32.73,65.45,62.88,91,80,44.38,29.78,102.72,45,106,61.1,11.63,57-197,16.38-385.81-17.09-187.12-33.16-204.89,28.62-388.83-27.69-77.22-23.63-62.82-86.57-139.06-103.63-65.35-14.63-111.05,19.31-127.34,62.77-20.13,53.71-93.86,47.31-140.73,63.3-46.47,15.86-89.52,71.78-137.85,74.87-24.09,1.54-52.45-50.67-72.48-47.79-27,3.86-26.39,56.54-39.61,69.18-36.73,35.12-27.77,100.78,41.53,161.73C1072.34,1460.4,1159.93,1455.71,1212.14,1482.94ZM2580.42,6507.38c-3.67-46.19,72.95-61.75,137.06-94.47,40.67-20.76,71.88-89.47,130.33-107.41,54.28-16.66,112.37,18,138,4.29,79.76-42.67,10.75-79.09,10.43-107.74-36.47-43.32-4.73-74.77-47.69-111.66s-66-3-116.07-29.39c-24.69-13-14.95-51.29-42.85-51.69s-24.93,49.22-52.59,52.95c-34.84,13-85.3-14-110.5,8.6-26.9,24.16-10.87,88.92-32.41,114.86-21.36,25.72-79.59,12-101.37,30.23-24.84,20.75-35.94,81.32-69.21,79.51-21.43-1.16-21.54-56.77-34.61-65.13-15.81-10.1-62.48,16.23-73.54,2.93s12.74-66.63-1.66-75.12c-12.48-7.36-39.15,38.72-59.86,40.5-60.52,5.22-130.23-19.36-159.33,19.87-24.39,32.86,11.55,96.43,11.55,163,0,82.53-33,173.72-.44,236.38,39.39,75.91,126.47,88.89,202.31,95.73,54.65,4.94,104.22,67.07,154.57,80.18,77.23,20.09,167.85,28.89,160,67-6.49,31.46-.2,92.72,50.85,118s96.56-2.81,115.33-40.61c17.94-36.14,86.7-18.93,103.75-34.51,18.57-17-15.71-41.76-42.2-89.45-24.61-44.31-41.45-128.57-97.28-178C2689,6579.8,2583.62,6547.67,2580.42,6507.38Zm-698.24-950.12c-6.66-20.11,55.57-25.23,58.85-46.17s-46.42-24-47.07-45.22c-8.86-32.46,2.47-93.57-44.87-132.09-33.71-27.43-104.46-9.61-149.72-33.44-67.07-35.31-117-114.71-186-163.59-63.43-44.94-160-71.17-192.43-155.55-10-26,58.23-23.47,94.31-36,34.7-12,35.37-47.17,36.06-68.49-2.1-.32-36.88-74.5-113.32-124.31s-172-50.38-174.1-50.72c-75.91-12.58-107.39-91.77-157.95-139.5-44.28-41.81-115.62-50.9-165.83-111.73-63,7.58-118.49-22.34-163.06.89-63.63,33.16-70.16,111.54-89.37,146.5-23.44,55.47-102.88,131.16-111,219.65-8.06,88.07,48.74,157.45,104.72,208.32,67,60.85,32.9,172,16.1,264.07-18.39,100.83-25.46,222.2-71.64,262.19-24,20.75-134.92,80.7-186.89,191.85-38.45,82.2-16.27,184.8-11.3,267.25,5.13,85-9,178.45,34.18,239.77,67,95.16,175.72,111.79,201.41,111.79,17.6,0,44-1.77,36.35-39.35-3.9-19.18-62.37-29.95-68.89-55.31-19.17-74.67,9.23-176.36,13.16-263,4-88.22,1.67-193.18,101.17-228.71,30.52-10.9,82.65,13.27,100.43-8.65,18.28-22.55-12.91-78.43.73-104.67,15.91-30.63,75.12-29.88,97.9-53.61,21.44-22.33,26.1-84.24,65.83-89.42,44.24-5.77,97.42,12.46,114-15.91,18.42-31.42-25.09-88.43-19.74-121,2.54-15.4,57.39-17.44,60.61-28.5,5.13-17.62-7.65-61.81,6.83-58.7,34.5,7.4,25,74,40.76,114.84,12.1,31.42,72.36,53.13,81.25,91.14,7.48,32-36.87,79-27.21,108.16,11.31,34.15,70.13,36.37,90.48,56.54,22.77,22.54-42.18,82.59-82.41,149.76-24.47,40.86-9.91,115.39-40.93,161-31.74,46.66-109.09,64.48-134.26,106.71-40.77,68.41-21.37,119.91,1.71,144,31.07,32.4,39.62,95.64,69.71,99.48,34.81,4.44,51.1-54.56,79.54-86.31,30.09-33.61,94.56,10.15,142.24,24,57.31,16.62,143,27.57,143,51,0,23-2.39,87.75,41.28,109.14,37.92,18.58,72.73-19.17,102.32-53.33,11.57-13.36,65.3-3.3,71.21-21,5.48-16.41-42.55-48.54-38.56-66.57,8.42-38.07,64.77-55,89.07-86.2,20-25.71,24.57-89,74.43-98.09,81.62-14.89,182.6-49.52,231.91-136.35,53.27-93.77,30-207.28,10.69-270.11-7.75-25.18,13.52-78.71-15.71-104.47C1979.62,5569.29,1909.42,5577.85,1882.18,5557.26Zm740.25-2842.42c58.43-50.48,127.24-16.11,169-19.36,64.7-5,86.54-27.5,123.61-89.29,25.7-42.86,103.44-74.39,122.67-125.59,26.36-70.24-.07-117.4-47.09-133.07-37.11-12.38-122.48-26-199.43,16.4-91.62,50.47-58.07,152.14-162.34,161.07-87.8,7.53-89.44-97.6-183.61-54.19-40.81,18.82-51.41,94.12-94.43,157.63-45.33,66.94-125,91.93-148.87,135.29-51.14,92.72-9.54,142.65,8.93,184.2,17.85,40.19-7,73.26-12.22,131.82-2.69,30.31,37.51,83.39,12.09,138.87-28.91,63.09-71.81,114.82-60.14,160.49,18.41,72.06,73.85,137.95-17.37,142.1-35.26,1.6-92.38-4.09-107.19,33.37-14.45,36.59,30.53,70,57.3,96.76,37.31,37.31,40.62,52.94,110.12,41.6,31.46-5.14,73.87-59.65,133-49.09,76.71,13.7,104.31,74.89,134.35,89.53,44.24,21.55,72.47,32.59,73.76,32.83,47.08,8.87,74.11,29.28,38.11-70.3-24.58-68-102.84-128.31-108.28-163.68-6.85-44.56,68.6-81.74,90-127.17,20.86-44.4-11-92-27.72-138.92-18.34-51.35,1.6-100.68-14.76-138.45-13.88-32-68-68.11-46.27-130.27,27.17-77.66,72.93-92.27,92.63-132.55C2572.86,2834.85,2558.78,2769.82,2622.43,2714.84ZM120.1,2598.56C72.58,2716.26,7.35,2745,.59,2789.67-6.14,2834.2,47.15,2889,26.86,3013c-8.67,53-41.74,128.84-8.93,204.84,25.16,58.28,106.81,95.9,143.32,157.37,41.48,69.83,40.87,167.46,81.38,229.06,59.64,90.68,157.29,141.64,170.37,179.32,6.09,17.51,47.23,60.13,104.53,44.52,41.29-11.25,49.67-71.66,67.76-112.17,11.93-26.7,76-52.44,84.73-94.35,9.55-45.61-38.18-88.68-45.32-112.88-7.41-25.11-31.17-88.59-94-119.82-60.15-29.91-155.71-20.13-171.29-43.16-23.2-34.27.86-94.37-14.34-127.54-17.84-38.93-74.8-75.83-59.91-113.23,21.6-54.27,140.42-91.45,228.09-141.66,94.88-54.36,202.43-128.84,249.36-88.92,57.89,49.25,98.73,51.11,123.41-12.45,15.63-40.27-23.64-110.32-10.68-167.91,16.42-73,85-134.29,112.19-195.61,34.73-78.37,67.49-166.22,151.06-143.52,64.76,17.59,136.76,28.56,185.3-18,68.74-65.95,110-75.95,70.41-164.4-33.6-75.09-55.75-18.81-140.55-7.32-58.25,7.9-118.8,65.94-162.35,58.2-25,2.31-51.55-46-69.71-40.62-23.92,7.16-24,66.42-41.51,74.58-16.23,7.54-49.43-36.12-65.37-31.85-15.06,4-27.38,58.61-46.49,56.28-38.5-4.7-40.91-62-56-75.84-22.89-21-70.75-27.16-73.37-54.54-2.55-26.73,38.37-76.23,17.41-92.4-14-10.79-44.34,29.65-80.34,29.65-60.9,31.53-123.5,4.53-181.85,22.19-47.17,14.28-98.51,76.59-175.22,82-108.74-34.58-169.59,16.18-193.08,124.5C106.66,2405.77,149,2527,120.1,2598.56Z"/></g></g></svg>