<svg xmlns="http://www.w3.org/2000/svg" viewBox="0 0 6971 7609.79"><defs><style>.cls-1{fill-rule:evenodd;}</style></defs><g id="Ebene_2" data-name="Ebene 2"><g id="Ebene_1-2" data-name="Ebene 1"><path class="cls-1" d="M3820.28-10180.61c-141.53-482.32-471.24,70.64-962.75,175.29s-486.94,123-970,261.67c-25,80-52.64,152.21-17.11,219.59,34.15,64.78,124.48,73.35,220.31,83.64,37.25,4,69.85,68.2,110,86.3,49.48,22.3,127.29,27.7,127.79,60,.57,36.27-68.77,81.93-88.05,133.92-22.7,61.21,3.3,133.3-.51,152.88-.9,4.62,19.83,63.53,81.55,106.38,60.86,42.24,162.19,70.63,159.54,79.95-9.95,35-80.46,34-122.75,64.08-29.53,21-35.71,87.67-76.39,113-37.72,23.46-118.07,9.25-145.71,37.31-34,34.47-11.07,62.9,65.55,91.49,69.39,20.59,123,96.53,185.64,131.28,75.58,41.95,172.6,69.77,178.16,138.34,9,110.65-26.41,193.48-73.46,299.78-31.16,70.39-48.4,179.16-155.51,272.28-52.85,36.34-77.24,159.08-40.25,300.95,31.14,119.41,126.72,226.28,152,295.72,19.9,54.62-12.24,123.61-.7,170.77,16.81,68.72,58.45,140.13,18.78,167.61-36.8,25.49-101.66,33.93-120.16,81.28-16.22,41.48,23.37,104.63,11.69,151.19-12.29,49-75.67,80.95-93,123.15-20.31,49.39-10.68,124.22-53.31,145.37-43.83,21.75-109.47-15.59-165.76-32.7-45.85-13.93-121.06-11.55-147.63-76.23-12.26-29.87,39.79-66,47-99.69,6.19-28.94-34.6-74.32-22.87-107,19.57-54.43,93.51-103.51,98.37-171.24,4-55.81-55-107.91-84.3-175.06-60.94-139.76-169.66,75.25-224.84,331.35-45.3,210.24-14.46,420.15,64.41,471.77,35.6,23.29,10,80.13,15.91,113.41,5.77,32.61,55.51,66.84,51.68,104.32-4.25,41.67-62,87.44-53.71,129,7.52,37.82,69.57,48.52,107.73,81.21,33.78,28.95,16.75,99,36.62,139.74,19.7,40.4,84.37,63.24,98.37,104.13,33.7,98.37,39.53,217.76,118.45,209.87,46.72-4.67,90.2-88.3,183.58-173.19,72.81-66.19,150,55.25,179.95,174.26,24,95.2,54,221.51-27.45,277.51-46.92,32.27-111.89-6.09-163.72-5.87-49.86.22-106.63,44.11-160.36,34.13-59.14-11-114.08-30.63-160.52,6.21-38.74,30.74-51.67,113.22-106.31,138.58-94.18,43.7-197,63.26-218.75,136.7-18.63,62.78,44.41,136.45,99.13,239.5,11.53,21.73,37.34,90.2,100.91,122.24,57.38,28.92,146.53,14,171.17,36.48,36,32.73,26.65,109.5,53.37,138.66,37.61,41,73.3,24.92,117.31-13.63,36-31.57,113.42-16.07,158.93-39.47,61-31.37,100.28-103.31,123.66-108.81,54.61-12.85,19.39,104.08,9.46,214.85-6.5,72.53,41.79,147.59,59.92,210.54,32.72,113.66,11.55,136.2-27.84,166.33-26.54,20.29-54.72,84.42-151.23,120.55-23.14,8.66-134.74-11.25-228.15,19.82-95,31.58-170.86,113.82-191,122.16-37.47,15.48-94.67-14.81-119,2.39-38.5,27.27-16.8,77.84-16.8,104.79,0,27.3-.88,78,49.61,113.1,34.07,23.71,106.49,8.94,138.71,40.37,66.18,64.55,477.77,159.66,911.46,191.33,454.15,33.16,884.69,20.43,922.66,14.22,8.81-1814.4-112.28-1817.94,33.58-3626.49C4040.4-8379.83,4331.12-8439.62,3820.28-10180.61ZM4.75-3206.53c-16.27,2.35-97.17-38.1-170.85-26.71-69.77,10.78-138.76,73.71-162.41,71.36-28.53-2.84-49.79-58-70.14-58.39-39.85-.72-47.9,50.41-56.94,52.72-25.45,24.88-99.81,12.32-165.18,27.37-47.61,11-106,62.93-163.5,41.18-32.25-12.2-20.69-66.68-30.06-76.12-19.84-20-45.17-.84-64.64-25.64-10.07-12.82-17.61-54.07-41.16-49.09-23.11,4.88-35.27,65.57-47,65.57-30.78,6.69-43-44.61-73.48-36.71s-17.56,61.41-48.3,68.3c-9.6,0-21.87-62.06-43-76.38-20.86-14.17-68.51,17.24-76.59,13.21-10.87-5.42-49.54-19.58-79.53,11.5-28.47,29.5-18.81,100.37-26.38,106.84-16.85,14.39-56.43-33.6-90-35.35-21.23-1.1-46.69,51.24-76.89,52.59-42.52,1.91-53.44-117.14-77.28-212.41-19.89-79.44-84.57-159.09-84.57-207.06,0-24.93,70.34-31.13,110.47-61.57,25.94-19.68,26.13-84.52,59.24-106.47,51.5-34.13,139.72-28.1,185.24-67.62,55.37-48.08,51.13-120.48,51.13-176.34,0-31.1,52.66-60.64,50.81-85.18-2.41-32.25-59.55-54-62.51-77.34-3.33-26.3,47.7-51.3,47.69-70.13,0-24.27-44.66-59.42-31.13-78.81,16.2-23.21,83.44-16.72,108.85-42.07,38.11-38,2.78-65.68,34.6-105.76,23.72-29.87,60.48-9.15,67.66-52.27,3.78-22.67-47.22-48.86-49.15-76-7.84-31.47,30.32-74.07,26.58-102.46-4.25-32.2-21.66-79.79,31.27-82.13,12.38-.55,39.42,7,70.63-20,17.71-15.33,26.9-73.9,64.4-71.47,48.91,3.15,112.12,19.63,132.75-12.24,23.66-36.56-21.7-76.39-77.81-98.11-35.26-31.08-1.35-92.8-56.88-94.95-23.16-.89-49.8,59.49-86.33,80.15-38.23-10.33-16.19-35.43,11.93-59.55,15.93-13.66,5.42-71.77,29.36-88.22,27-18.57,88.78,4.32,112.92-16.17,31.17-26.46,9.74-74.4,9.74-100.81,0-44.63-21.35-158-96.07-249-87.69-106.74-125.34-72.52-222.92-169.9-96.07-95.87-60.28-131.91-144-235.43-76.72-94.88-179.18-198.67-137.82-238.61,21-20.25,73.75-19.59,73.07-35.95-.82-19.85-62.33-21.54-74.87-40-10.29-15.16,27.56-52.92,22.89-70.07-4.31-15.8-52.23-40.77-41.87-60.4,12.58-15.13,58.19-44.13,48.83-90.43-6.3-31.17-67.9-53.72-76.59-87.18-13.35-51.34,26.61-65,35.83-72.22,9.87-7.75,35.29-32.64,74.65,4.21,20.17,18.89,67.3-70.78,31.48-172.24-19-53.75-96.48-74.51-172.35-111.28-62.7-30.39-4.81-136.92,38.56-248.7,28.69-73.94,16.83-176,47.4-255.16,35.61-92.19,110.35-133.08,128.5-187.59,21-63-18.07-132.46-3.54-226.92,3.9-25.36,64.49-34.19,79.51-60.62,13-22.91-16.28-44.11,2.36-66.72-50.39-24.11,48.51-94,58.37-160.21,6.52-43.78-40.09-69.4-109-112.06-89.74-13.26-148.84-74.55-204.43-86.53-107.09-23.09-176.7-41.19-133.51-128.92,1.82-3.7,52.08,16.45,53.85,12.84s-18.39-46.19-16.63-49.81c37.91,6.91,92.87,27.51,130.86-11.48,28.1-28.84,15.6-100.62,43.94-137.24,16.76-21.66,75.67-9.6,92.56-29.88,18.43-22.13-1.8-79.92,16.82-96.6,38.56-34.55,140.93-.37,237.93-4.15,72.76-2.83,152.94-54.51,228-52.37,54.87,1.57,106.48,57,150.45,56.37,84.93-1.28,114.22-28.36,102.56-60.53-7.55-20.81,17.62-71.23-5.82-92.91-18.72-17.31-75.77,6.1-97.66-11.43-36.86-29.51-35.58-96.66-57.9-125.62-29.18-37.87-69.08-81-15.11-115.08,37.21-23.49,102.8-28.47,124.29-74.22,19.18-40.8-15.91-106.61-1.4-151.05,15-46,79.19-69.71,97.23-105.12,24.05-47.2,20.51-115.89,66.86-113.92,34.95-33.86,104.15-80.9,75.58-127.85-17.29-28.39-85.49-12-164.85-24.33-48.14-7.5-85-59.28-110.67-52.69-43.62,11.21-33.48,79.91-53.19,108.44-20.43,29.6-72.13,19.5-123.25,35.54-29.23,9.18-61.93,66.15-116,62.47-116.08-7.92-207.62-94.46-290.7-142.92-126.78-73.94-220.64-127.52-183.5-200.62-290.23-104.69-286.61-117.29-588.1-182.79s-475.82-384.43-583.42-95.19c-625,1680-67.45,1783.11-75,3575.57-7.51,1785.3,30.55,3545.88,60.7,3559.36,31.49,14.07,320.83,91.87,623.74,99.75,278.32,7.25,544.37-50.68,618.18-97.85,72.36-46.25,142.3-7.28,198.11,2.46,61.17,10.67,136.13-4,197.77,34.25,27.78,17.26,29.61,81.9,60.62,98.66,28.83,15.59,81.47-19,114.73-7,90,32.44,160.16,88.46,225.11,77.2,83.6-14.48,132.63-104.12,195.28-141.13,41.92-24.76,104.06.56,145.21-13.3,42.46-14.29,85.87-69.64,135-54.12,87.56,27.67,171.75,32.19,226.81-29,57.19-63.52,48.78-169.83,66.7-229.95,1.22-28.51,19.82-35.66-17.69-46.85-14.83-4.42-48.67,42.85-71.06,39-34.29-13.19-60.4-62.75-79.55-55.59C30.22-3286.62,26.49-3209.67,4.75-3206.53Z" transform="translate(2861.18 10375.26)"/></g></g></svg>