<svg width="4321" height="7706" viewBox="0 0 4321 7706" fill="none" xmlns="http://www.w3.org/2000/svg">
<path d="M1533.03 4734.16L1778.16 4563.19L2128.34 4656.57L2088.52 4851.57L2240.26 4969.68L2035.65 5112.5L1607.19 4969.68L1533.03 4734.16Z" fill="black"/>
<path d="M2547.53 5124.99L2486.43 5183.21L2432.89 5295.34L2498.65 5424.36L2596.05 5429.39L2608.26 5246.82L2547.53 5124.99Z" fill="black"/>
<path d="M2697.96 4690.26L2526.26 4933.22L2708.01 5053.26L2847.18 4878.22L3058.09 5024.09L3087.26 4913.61L2957.18 4699.83L2697.96 4690.26Z" fill="black"/>
<path d="M2739.16 5185.52L2716.46 5370.5L2861.5 5461.73L3049.42 5439.03L3169.24 5268.35L3109.54 5182.58L3015.37 5128.35L2870.33 5111.53L2739.16 5185.52Z" fill="black"/>
<path d="M1395.62 5139.15L1397.65 5054.78L1356.23 4937.63L1218.5 4892.9L1146.07 4958.21L1266.53 5095.95L1395.62 5139.15Z" fill="black"/>
<path d="M2422.13 4419.3L2363.91 4358.2L2251.78 4304.65L2122.76 4370.42L2117.73 4467.81L2300.3 4480.03L2422.13 4419.3Z" fill="black"/>
<path d="M2851.35 4302.8L2895.7 4059.19L2716.42 4032.35L2672.79 4213.29L2462.43 4177.19L2479.17 4270.81L2652.35 4386.52L2851.35 4302.8Z" fill="black"/>
<path d="M3041.69 4414.59L3018.99 4599.57L3164.03 4690.8L3351.95 4668.09L3471.76 4497.41L3412.07 4411.64L3317.89 4357.41L3172.86 4340.59L3041.69 4414.59Z" fill="black"/>
<path d="M1718.22 5411.62L1912.35 5378.26L1883.47 5236.97L1736.36 5253.76L1705.9 5086.72L1640.52 5124.79L1601.34 5285.78L1718.22 5411.62Z" fill="black"/>
<path d="M2015.37 5217.11L2006.25 5291.47L2064.55 5328.15L2140.1 5319.02L2188.27 5250.41L2164.27 5215.93L2126.41 5194.13L2068.1 5187.37L2015.37 5217.11Z" fill="black"/>
<path d="M3558.99 4641.16L3426.95 4766.99L3311.21 5009.34L3453.36 5288.19L3663.86 5299.06L3690.26 4904.47L3558.99 4641.16Z" fill="black"/>
<path d="M3728.72 5734.67L3554.46 5680.78L3286.45 5697.96L3112.36 5958.08L3205.55 6147.14L3562.89 5977.71L3728.72 5734.67Z" fill="black"/>
<path d="M3538.98 4029.18L3301.97 4065.39L3333.93 4237.98L3513.34 4220.87L3546.62 4424.84L3627.05 4380L3678.37 4184.96L3538.98 4029.18Z" fill="black"/>
<path d="M3668.64 3826.73L3568.52 3764.35L3398.07 3731L3246.39 3865.04L3273.57 3998.62L3524.94 3951.45L3668.64 3826.73Z" fill="black"/>
<path d="M1336.13 5246.96L1349.41 5326.76L1421 5346.91L1496.45 5314.37L1525.35 5228.58L1489.96 5200.21L1444.09 5189.21L1381.64 5200.03L1336.13 5246.96Z" fill="black"/>
<path d="M532.059 6636.41L443.279 7221.54L873.489 7273.03L964.969 6837.67L1470.09 6909.08L1423.49 6686.6L1001.58 6422.37L532.059 6636.41Z" fill="black"/>
<path d="M462.911 5810.53L323.541 5943.35L201.381 6199.13L351.411 6493.45L573.581 6504.93L601.461 6088.46L462.911 5810.53Z" fill="black"/>
<path d="M1657.58 7474.76L1465.5 5908.13L1683.7 5616.17L1975.67 5897.38L1954.92 7365.65L1657.58 7474.76Z" fill="black"/>
<path d="M2451.89 7494.63L2538.81 5940.06L2801.62 5694.67L3036.02 6018.65L2759.63 7440.6L2451.89 7494.63Z" fill="black"/>
</svg>
