<svg xmlns="http://www.w3.org/2000/svg" viewBox="0 0 6972.89 7609.79"><defs><style>.cls-1{fill-rule:evenodd;}</style></defs><g id="Ebene_2" data-name="Ebene 2"><g id="Ebene_1-2" data-name="Ebene 1"><path class="cls-1" d="M-6509-5255.56c-14.83,124.73-152.29,24.34-266.38,77.46-104.65,48.74-182.67,145.18-199.27,156.53-85.19,58.24-170.73,32.92-233.3,29.36-76-4.33-161.34-5.91-217.3-79.21-39.44-51.68-81.06-132.18-156.69-159.83-80.82-29.55-192.24-.59-244.42-7-30.71-64.77,4.85-129.42,9.5-166.66,7.15-57.26,1.92-114.19,42.19-148.23,20.79-17.58,80.46,2,97.71-19.63,16.18-20.3-18.65-66-12.76-95.8,11.91-60.3,80.5-80.22,107.17-112.69,33.16-40.36,39.86-105.76,82.28-131.46,14.09-8.53,57.11,28.52,71.12,19.29,13.66-9-4.85-62,8.22-72.75,39.08-32.13,108.43-42.81,130-89.54,21.27-46-13.69-115.08.78-162,11.93-38.68,73.82-56.7,87.38-87.84,17.61-40.41,3.54-107,34.84-120.42,43-18.49,57.2,41.1,77.6,79.79,15.52,29.44,76.76,48.24,87.89,86.13,9.23,31.43-32.22,80.95-21.29,104.79,16.17,35.3,49.91,19.82,81.43,5.5,52.66-23.94,69.06,30.86,72.53,85.16,2.19,34.32,44.26,88.77,21.44,137-29.24,61.76-123.14,97.39-188.78,152.79-60.73,51.26-110.33,139-186.92,154.37-67,13.44-138.88,7.2-163.83,47-35.82,57.1,9.91,121.05,38.42,152.31,16,17.51,22.85,90.89,71.13,110.82,35.34,14.58,83.56-28.09,126.89-33.57,39.61-5,104.35,21.38,140.92-9.75,34.38-29.28,18.82-95.41,30.73-137.91,25.67-91.54,135.57-10.93,231.74,66.22C-6647.89-5345-6493-5390.19-6509-5255.56Zm-989.87-2734.76c42.57,6,85.31,40.57,119.91,17.31,30.92-20.78,26.27-91.17,56.77-121.05,22.53-22.07,81.81-4.67,106.79-25.3,24.71-20.41,31.75-86.51,61.06-100.2,52,6.93,129.2,81.6,213.77,133,64.94,39.5,165,58.76,206,133.87,26.44,48.44-7.09,114.72,3.92,160.29,12.47,51.64,71.09,92.13,76.42,140.15s-71.52,182.89-73.06,303.93c-1.62,127.48,49.36,216,153.64,207.28,69.17,20,123.16,39,150-1.75,23.11-35.09-3-114,29.54-159.77,18.65-26.19,73.44-33.31,81.13-59.05,9.74-32.6-6.52-92.25,31-91.17,46.23-5.29,94.38,14.47,108.57-9.45,22.2-37.44-4.83-122.7,22.3-125.77,24.06-2.71,48.76,55,79.74,63.2,25.72,6.85,68.67-35.57,96.39-26.19,45.4,15.34,79.31,83.33,121.18,89.35,51.82,7.44,78.11-41.66,105.61-82.82,40.41-60.47,116.85-106.49,122.89-172,5.87-63.63-58-117.47-99-184-16.92-27.47-4-88-35.63-112.25-26.75-20.52-88.49,3.38-120-17.38-57.1-37.63-83.61-119.05-132-168.15-48.65-49.36-131-86.17-139-161.05-4.24-39.76,52.1-75.39,58.47-110.74,7.06-39.16-34-88.39-23.59-122.12l52.8,8-52.79-8c3.15-10.19,57.92-4.5,60.77-14.19,3-10.3-46.29-34.37-43.91-44.11,5-20.55,64.35-15,81-33.1,15-16.28-4.76-70.41,12.34-85.25,23.37-20.27,85.9-4.49,97.88-23.2,14.93-23.32-23.91-38.26-57.49-61.42-20.47-14.11-5-70.35-19.66-82.65-20.08-16.81-71.63,8.39-84.61-4.15-39.12-37.76-46.51-98.46-98.84-78.71-25.66,9.69-36.92,76.65-86.62,105.2-41,23.56-85.39-15.89-106.69-14.12-38.05,3.17-73.87,17.38-93.16-17.08-14.74-26.31,8.47-91.63-24.48-118.81-23-18.94-77.89,11-120.12-.88-53.49-15-49.4-70.4-59.41-88.22-15.07-26.85-37.23-60.38-10.45-96,15.44-20.53,78.14-15,89.56-39.13,11.29-23.89-33.52-56.11-38.92-84.09-12.21-63.23-62.62-107.48-151.7-100.51-66.81,5.22-139.4,75.16-201.88,88.52-66.89.38-64.29-60-130.9-66.15s-70.95,46.41-137.66,41.55c8.19,3.16,8.81,4.65,17,7.76s25.94,7.94,34.15,10.88c-65.26-.35-64.36-55.78-129.59-57.57s-60.66,20.2-119.77,47.86c-17.38,72.77-5.78,140.34,55.12,199,59.6,57.36,164.05,56.08,222.75,73.83,38.7,11.71,32.56,69.88,47.13,89,18.45,24.21,71.29,32.8,76.46,64.87,1.68,10.43-49.68,30.93-47.41,41.88,2.14,10.34,56.84,7,60.36,17.63,6.62,20.16,1.25,151.82,91,231.69,54,48,146.78,40.52,242.29,48.77,28.46,2.47,23.49,58.9,37.58,77.44,13.79,18.14,69.63,15.07,78.91,38.4,10.07,25.29-25.63,78-9.67,97.06,15.64,18.69,58-13,90.41-12.49,46.34.73,65.48,62.88,91,80,44.4,29.78,102.75,45,106,61.1,11.63,57-197,16.38-385.91-17.09C-6870.22-8341.79-6888-8280-7072-8336.32c-77.24-23.64-62.84-86.57-139.1-103.63-65.37-14.63-111.08,19.31-127.37,62.77-20.14,53.71-93.89,47.31-140.77,63.3-46.48,15.86-89.54,71.78-137.89,74.87-24.09,1.54-52.47-50.67-72.5-47.8-27,3.87-26.39,56.55-39.62,69.19-36.73,35.11-27.77,100.78,41.54,161.73C-7638.74-8012.85-7551.13-8017.54-7498.91-7990.32ZM-3880.6-9827.21c-141.56-482.32-471.36,70.64-963,175.29s-487.06,123-970.22,261.67c-25,80-52.66,152.21-17.12,219.59,34.16,64.77,124.52,73.35,220.37,83.64,37.26,4,69.87,68.2,110,86.29,49.49,22.3,127.32,27.71,127.83,60,.56,36.28-68.79,81.94-88.08,133.92-22.71,61.22,3.3,133.3-.51,152.88-.9,4.63,19.84,63.54,81.57,106.38,60.88,42.25,162.24,70.63,159.59,79.95-10,35-80.48,34-122.79,64.08-29.54,21-35.72,87.67-76.41,113-37.73,23.46-118.1,9.24-145.75,37.3-34,34.47-11.07,62.9,65.57,91.5,69.41,20.59,123.06,96.53,185.69,131.28,75.6,41.94,172.65,69.77,178.21,138.34,9,110.64-26.42,193.47-73.48,299.77-31.17,70.4-48.41,179.17-155.56,272.29-52.86,36.34-77.26,159.07-40.25,300.95,31.15,119.41,126.75,226.27,152.06,295.72,19.91,54.62-12.24,123.61-.7,170.77,16.82,68.71,58.47,140.12,18.79,167.6-36.81,25.49-101.68,33.94-120.19,81.28-16.22,41.48,23.38,104.64,11.7,151.2-12.3,49-75.7,80.94-93.06,123.15-20.32,49.38-10.69,124.21-53.32,145.36-43.85,21.75-109.51-15.58-165.81-32.69-45.86-13.94-121.09-11.55-147.67-76.23-12.27-29.87,39.8-66,47-99.69,6.19-28.94-34.61-74.33-22.87-107,19.57-54.43,93.53-103.51,98.39-171.23,4-55.81-55-107.91-84.32-175.06-61-139.76-169.71,75.25-224.9,331.35-45.31,210.23-14.46,420.14,64.43,471.76,35.6,23.3,10,80.13,15.91,113.42,5.77,32.6,55.52,66.84,51.7,104.32-4.26,41.67-62,87.44-53.73,129,7.52,37.82,69.59,48.51,107.76,81.21,33.79,28.94,16.75,99,36.63,139.73,19.71,40.41,84.39,63.24,98.4,104.14,33.7,98.36,39.54,217.75,118.48,209.87,46.73-4.67,90.22-88.31,183.63-173.19,72.83-66.19,150,55.25,180,174.26,24,95.2,54,221.5-27.45,277.51-46.94,32.27-111.93-6.09-163.76-5.87-49.88.22-106.67,44.11-160.41,34.12-59.16-11-114.11-30.62-160.56,6.22-38.75,30.73-51.69,113.22-106.34,138.57-94.21,43.71-197,63.26-218.81,136.7-18.64,62.79,44.42,136.45,99.15,239.51,11.54,21.73,37.35,90.19,100.94,122.24,57.4,28.92,146.58,14.05,171.22,36.48,36,32.73,26.66,109.5,53.39,138.66,37.61,41,73.32,24.91,117.33-13.64,36.05-31.57,113.46-16.06,159-39.47,61-31.37,100.3-103.3,123.69-108.81,54.62-12.85,19.39,104.08,9.46,214.85-6.5,72.53,41.8,147.6,59.94,210.55,32.73,113.65,11.56,136.2-27.85,166.32-26.55,20.3-54.73,84.43-151.27,120.56-23.14,8.66-134.78-11.25-228.21,19.82-95,31.58-170.9,113.82-191.09,122.15-37.47,15.48-94.69-14.81-119,2.4-38.5,27.26-16.79,77.83-16.79,104.79,0,27.3-.88,78,49.62,113.09,34.08,23.71,106.51,8.95,138.74,40.38,66.21,64.54,477.9,159.65,911.71,191.33,454.27,33.16,884.93,20.43,922.91,14.22,8.81-1814.4-112.31-1817.94,33.58-3626.49C-3660.42-8026.43-3369.61-8086.23-3880.6-9827.21ZM-6130.26-2965.87c-3.67-46.19,73-61.76,137.1-94.47,40.68-20.76,71.91-89.47,130.37-107.41,54.29-16.66,112.4,18,138,4.29,79.79-42.67,10.75-79.09,10.44-107.74-36.48-43.32-4.73-74.77-47.7-111.66s-66-3-116.1-29.39c-24.71-13-15-51.29-42.87-51.69s-24.94,49.22-52.6,53c-34.85,13-85.33-14-110.53,8.6-26.91,24.16-10.87,88.92-32.42,114.86-21.37,25.72-79.61,12-101.4,30.22-24.84,20.76-35.95,81.33-69.23,79.52-21.44-1.16-21.54-56.77-34.62-65.13-15.81-10.1-62.49,16.23-73.56,2.93s12.75-66.63-1.65-75.12c-12.49-7.36-39.17,38.72-59.89,40.5-60.53,5.22-130.26-19.36-159.37,19.87-24.39,32.86,11.56,96.43,11.56,163,0,82.53-33,173.72-.44,236.38,39.39,75.91,126.5,88.88,202.37,95.73,54.66,4.94,104.24,67.07,154.61,80.18,77.25,20.09,167.89,28.89,160,67-6.5,31.46-.21,92.72,50.86,118s96.58-2.81,115.36-40.61c17.95-36.14,86.73-18.93,103.78-34.51,18.58-17-15.72-41.76-42.21-89.45-24.62-44.31-41.46-128.57-97.31-178C-6021.61-2893.45-6127.06-2925.58-6130.26-2965.87ZM-6242-7329.77c-9.06,3.08-51.78-28.74-65.55-15.07-15.63,15.53,14,62.32,12,66.67-5,11.05,11.84,40.68,61.55,51.86,42.13,9.48,93.54-36.62,108.63-35.69,14.45.89,35.05,62.83,62.46,69.75,35,8.84,47.55-7.33,44.74-25-1.56-9.77,41.69-47,32.64-69.37-9.66-23.91-68.84-24.39-72.13-30.54-1.85-3.46,49.69-5,57.61-13.1,7.33-7.49-30-23.94-32.18-29.13-6.8-16.5,40.27-5.55,64.73-6.3,20.16-.61,49-50.79,59.58-47.8,12.61,3.57,6.67-16.47-15.78-40.17-19.17-20.24-44.53,2.18-53.38,9-8.13,6.28-21.78-41.75-33-49-10-6.46-45.82,31.48-51.65,24.9-17.21-4.52-36-44.73-44.68-36.53-9.07,8.52,29.67,49.43,25.46,63.05-2.29,7.43-49.81-20.25-63-15.38-12.34,4.56-.93,56.18-7,60.29-7.23,4.87-43.25-41.14-57.09-38.14-18,3.91-6.16,18.67,1.11,28.61,8,11-30.8,13.82-37.48,19.78C-6248.89-7383-6230.29-7333.74-6242-7329.77Zm-725.78,2372.85c-25.75,32-83.87,58.65-86.49,107.94-2.3,43.3,55.06,89,58.85,133.07,2,23.91-8.77,69.4,25.74,79.67,23.81,7.1,60.67-42,91.08-41.77,36.4.32,82.15,48.59,116.59,38.69,39.83-11.45,45.13-72,64.45-97.81,17.14-22.87,79.5-22.18,95.42-53.21,13.87-27-22-78.88-9.62-109.65,9.19-22.9,68.52-27.79,76.61-51.65s-33.22-42.66-26.48-66.47c-27.93-11.64-36.46-70.35-99.59-67.35-31.64,1.51-62.51,61.11-114.36,76.52-9.41,2.79-71.94-42.6-120.12-31.49C-6938.67-5030.51-6954.08-4973.93-6967.76-4956.92ZM-6828.69-3916c-6.66-20.11,55.59-25.23,58.88-46.17s-46.44-24-47.1-45.22c-8.85-32.46,2.48-93.57-44.87-132.09-33.72-27.43-104.49-9.61-149.76-33.44-67.09-35.31-117-114.71-186.07-163.6-63.45-44.93-160-71.16-192.48-155.54-10-26,58.24-23.48,94.33-36,34.71-12,35.38-47.17,36.07-68.49-2.1-.32-36.89-74.5-113.35-124.31s-172.09-50.38-174.15-50.72c-75.93-12.58-107.42-91.77-158-139.5-44.3-41.81-115.65-50.9-165.88-111.73-63,7.58-118.52-22.34-163.1.89-63.64,33.16-70.18,111.54-89.4,146.5-23.44,55.47-102.9,131.15-111,219.65-8.07,88.07,48.75,157.45,104.75,208.32,67,60.85,32.9,172,16.1,264.06-18.4,100.84-25.47,222.21-71.66,262.2-24,20.75-135,80.7-186.94,191.84-38.46,82.21-16.28,184.81-11.3,267.26,5.13,85-9,178.45,34.19,239.77,67,95.16,175.77,111.78,201.45,111.78,17.62,0,44-1.76,36.37-39.34-3.9-19.18-62.39-29.95-68.91-55.31-19.18-74.67,9.23-176.36,13.16-263,4-88.22,1.67-193.18,101.21-228.71,30.52-10.9,82.66,13.27,100.45-8.66,18.29-22.54-12.91-78.42.73-104.66,15.91-30.63,75.14-29.88,97.93-53.61,21.44-22.33,26.1-84.24,65.84-89.42,44.26-5.77,97.45,12.46,114.08-15.91,18.41-31.42-25.11-88.44-19.75-121,2.54-15.4,57.4-17.44,60.62-28.51,5.13-17.62-7.65-61.8,6.84-58.69,34.51,7.4,25,74,40.77,114.84,12.1,31.41,72.37,53.13,81.27,91.13,7.48,32-36.88,79-27.21,108.17,11.31,34.15,70.14,36.37,90.5,56.54,22.78,22.54-42.2,82.58-82.43,149.75-24.48,40.87-9.92,115.4-40.95,161-31.74,46.66-109.11,64.48-134.29,106.71-40.78,68.41-21.38,119.91,1.71,144,31.08,32.4,39.63,95.64,69.73,99.47,34.81,4.45,51.11-54.55,79.55-86.3,30.1-33.61,94.6,10.14,142.29,24,57.32,16.62,143.08,27.57,143.08,51,0,23-2.39,87.76,41.29,109.15,37.93,18.58,72.75-19.17,102.35-53.33,11.58-13.36,65.32-3.3,71.23-21,5.49-16.41-42.56-48.54-38.57-66.57,8.42-38.07,64.79-55,89.09-86.2,20.06-25.72,24.58-89,74.46-98.09,81.64-14.9,182.64-49.52,232-136.35,53.28-93.77,30-207.29,10.69-270.11-7.75-25.18,13.53-78.71-15.71-104.47C-6731.22-3904-6801.44-3895.4-6828.69-3916Zm740.45-2842.42c58.46-50.48,127.28-16.11,169-19.36,64.72-5,86.57-27.5,123.64-89.3,25.72-42.85,103.48-74.38,122.7-125.58,26.38-70.24-.07-117.4-47.1-133.07-37.12-12.38-122.51-26-199.48,16.4-91.64,50.47-58.08,152.14-162.38,161.07-87.82,7.53-89.46-97.6-183.66-54.19-40.82,18.82-51.43,94.12-94.45,157.63-45.35,66.94-125,91.93-148.91,135.29-51.16,92.72-9.55,142.65,8.92,184.2,17.86,40.19-7,73.26-12.22,131.82-2.69,30.31,37.52,83.39,12.09,138.87-28.91,63.09-71.82,114.82-60.15,160.49,18.42,72.05,73.87,138-17.38,142.1-35.26,1.6-92.4-4.09-107.21,33.37-14.46,36.59,30.53,70,57.31,96.75,37.32,37.32,40.63,52.95,110.15,41.61,31.47-5.14,73.89-59.65,133-49.09,76.74,13.7,104.35,74.89,134.4,89.53,44.25,21.55,92.37,13.5,134.25,78.24,44.61,68.94,14.28-14.39-22.36-115.71-24.59-68-102.87-128.31-108.31-163.68-6.85-44.56,68.62-81.74,90-127.17,20.87-44.4-11-92-27.73-138.92-18.34-51.35,1.6-100.68-14.77-138.45-13.87-32-68-68.11-46.28-130.28,27.18-77.65,72.95-92.26,92.66-132.54C-6137.82-6638.4-6151.9-6703.43-6088.24-6758.41ZM-7697.16-2853.13c-16.26,2.35-97.19-38.1-170.89-26.72-69.78,10.79-138.8,73.72-162.46,71.36-28.53-2.84-49.79-58-70.15-58.39-39.86-.72-47.92,50.41-57,52.73-25.46,24.88-99.83,12.32-165.23,27.37-47.62,11-106.06,62.92-163.54,41.18-32.25-12.2-20.69-66.69-30.07-76.13-19.84-20-45.18-.84-64.66-25.64-10.07-12.82-17.6-54.06-41.16-49.09-23.12,4.88-35.28,65.58-47.07,65.58-30.78,6.69-43-44.62-73.5-36.71s-17.57,61.41-48.31,68.29c-9.61,0-21.88-62-43-76.38-20.87-14.16-68.53,17.24-76.61,13.21-10.87-5.42-49.55-19.58-79.56,11.51-28.47,29.49-18.81,100.36-26.38,106.83-16.85,14.4-56.45-33.59-90-35.34-21.23-1.1-46.69,51.23-76.9,52.59-42.54,1.91-53.46-117.15-77.31-212.42-19.89-79.43-84.59-159.09-84.59-207,0-24.94,70.36-31.14,110.5-61.58,26-19.68,26.14-84.52,59.26-106.46,51.51-34.14,139.75-28.1,185.29-67.63,55.38-48.07,51.14-120.48,51.14-176.33,0-31.1,52.67-60.64,50.83-85.19-2.42-32.24-59.57-53.95-62.53-77.34-3.34-26.29,47.71-51.29,47.7-70.13,0-24.27-44.68-59.42-31.14-78.8,16.2-23.21,83.46-16.73,108.88-42.08,38.12-38,2.78-65.68,34.61-105.76,23.73-29.87,60.5-9.14,67.68-52.27,3.78-22.66-47.24-48.85-49.17-76-7.83-31.46,30.33-74.07,26.59-102.45-4.25-32.2-21.66-79.8,31.28-82.14,12.38-.54,39.43,7,70.65-20,17.71-15.33,26.91-73.9,64.42-71.48,48.92,3.16,112.15,19.63,132.78-12.24,23.67-36.56-21.71-76.39-77.82-98.11-35.27-31.07-1.36-92.79-56.9-94.94-23.17-.9-49.82,59.48-86.36,80.14-38.23-10.33-16.19-35.43,11.93-59.54,15.94-13.67,5.43-71.77,29.37-88.23,27-18.56,88.81,4.33,113-16.17,31.17-26.45,9.74-74.39,9.74-100.8,0-44.63-21.36-158-96.1-249-87.72-106.74-125.37-72.51-223-169.89-96.1-95.87-60.31-131.92-144-235.43-76.73-94.89-179.22-198.68-137.85-238.61,21-20.26,73.76-19.59,73.09-36-.83-19.85-62.35-21.53-74.9-40-10.29-15.15,27.58-52.91,22.9-70.06-4.31-15.8-52.24-40.77-41.88-60.4,12.58-15.14,58.21-44.14,48.85-90.43-6.31-31.17-67.92-53.72-76.62-87.18-13.35-51.35,26.62-65,35.85-72.22,9.86-7.75,35.29-32.64,74.66,4.21,20.18,18.88,67.32-70.79,31.49-172.24-19-53.75-96.51-74.51-172.39-111.28-62.72-30.39-4.81-136.92,38.56-248.7,28.7-73.94,16.84-176,47.41-255.16,35.63-92.2,110.39-133.09,128.54-187.6,21-63-18.08-132.45-3.54-226.92,3.9-25.35,64.5-34.18,79.54-60.61,13-22.92-16.29-44.11,2.35-66.72-50.4-24.12,48.52-94,58.39-160.22,6.52-43.78-40.11-69.39-109-112.05-89.77-13.27-148.88-74.55-204.49-86.54-107.12-23.08-176.74-41.18-133.54-128.91,1.82-3.71,52.09,16.45,53.86,12.83s-18.39-46.19-16.63-49.8c37.92,6.9,92.89,27.51,130.89-11.48,28.11-28.84,15.61-100.62,43.95-137.24,16.77-21.67,75.69-9.6,92.59-29.89,18.44-22.12-1.8-79.91,16.82-96.6,38.58-34.55,141-.36,238-4.14,72.79-2.84,153-54.51,228.08-52.37,54.87,1.56,106.5,57,150.48,56.37,85-1.28,114.25-28.36,102.59-60.54-7.55-20.81,17.63-71.23-5.82-92.9-18.73-17.32-75.79,6.09-97.69-11.43-36.87-29.51-35.59-96.67-57.91-125.62-29.19-37.87-69.11-81-15.11-115.09,37.21-23.48,102.82-28.46,124.32-74.21,19.18-40.81-15.92-106.62-1.41-151.06,15-46,79.22-69.7,97.27-105.12,24-47.19,20.51-115.89,66.87-113.91,35-33.86,104.18-80.91,75.59-127.86-17.28-28.39-85.51-12-164.89-24.33-48.15-7.49-85-59.28-110.69-52.68-43.63,11.2-33.5,79.91-53.21,108.44-20.43,29.59-72.15,19.5-123.28,35.54-29.24,9.17-61.95,66.15-116,62.46-116.11-7.91-207.67-94.46-290.77-142.91-126.81-74-220.71-127.52-183.55-200.63-290.31-104.68-286.69-117.28-588.26-182.78s-475.95-384.43-583.58-95.2c-625.16,1680-67.47,1783.12-75,3575.57-7.51,1785.31,30.56,3545.89,60.72,3559.36,31.5,14.07,320.92,91.88,623.91,99.76,278.39,7.24,544.51-50.69,618.34-97.86,72.38-46.24,142.34-7.27,198.17,2.46,61.18,10.67,136.17-4,197.82,34.26,27.79,17.25,29.62,81.9,60.63,98.66,28.85,15.58,81.5-19,114.76-7,90,32.44,160.21,88.46,225.17,77.2,83.63-14.49,132.68-104.13,195.34-141.13,41.93-24.77,104.09.55,145.25-13.3,42.47-14.3,85.9-69.64,135-54.12,87.58,27.66,171.8,32.18,226.87-29,57.2-63.51,48.79-169.83,66.71-229.95,1.23-28.5,19.84-35.65-17.69-46.84-14.83-4.42-48.68,42.85-71.07,39-34.31-13.19-60.43-62.76-79.58-55.6C-7671.68-2933.22-7675.41-2856.28-7697.16-2853.13Zm-894.08-4021.56c-47.53,117.7-112.78,146.4-119.54,191.11-6.74,44.53,46.57,99.3,26.28,223.28-8.68,53-41.76,128.84-8.94,204.84,25.17,58.28,106.84,95.9,143.36,157.37,41.49,69.83,40.88,167.46,81.4,229.06,59.65,90.68,157.33,141.64,170.42,179.32,6.09,17.51,47.24,60.13,104.55,44.52,41.31-11.25,49.69-71.66,67.79-112.18,11.93-26.69,76-52.43,84.75-94.34,9.55-45.61-38.19-88.68-45.33-112.88-7.42-25.11-31.18-88.59-94-119.82-60.17-29.91-155.76-20.13-171.35-43.16-23.2-34.27.87-94.38-14.34-127.54-17.85-38.93-74.82-75.84-59.93-113.23,21.61-54.27,140.47-91.45,228.15-141.67,94.91-54.35,202.49-128.83,249.43-88.91,57.91,49.25,98.76,51.11,123.44-12.45,15.64-40.27-23.64-110.32-10.67-167.91,16.42-73,85-134.29,112.22-195.61,34.73-78.37,67.5-166.22,151.09-143.52,64.78,17.59,136.8,28.56,185.36-18,68.76-65.95,110-75.95,70.42-164.41-33.6-75.08-55.76-18.8-140.59-7.31-58.26,7.9-118.82,65.94-162.39,58.2-25,2.31-51.56-46.05-69.73-40.62-23.92,7.16-24,66.42-41.52,74.58-16.23,7.54-49.44-36.12-65.38-31.85-15.07,4-27.39,58.61-46.51,56.28-38.51-4.7-40.92-62-56-75.84-22.9-21-70.77-27.16-73.39-54.54-2.55-26.73,38.37-76.23,17.41-92.4-14-10.79-44.36,29.65-80.36,29.65-60.92,31.53-123.53,4.53-181.9,22.19-47.18,14.28-98.54,76.58-175.27,82-108.76-34.58-169.63,16.18-193.13,124.5C-8604.69-7067.48-8562.33-6946.28-8591.24-6874.69Z" transform="translate(10563.86 10021.87)"/></g></g></svg>