<svg width="6781" height="9486" viewBox="0 0 6781 9486" fill="none" xmlns="http://www.w3.org/2000/svg">
<g clip-path="url(#clip0_23_723)">
<path d="M2626.03 6551.17L2871.16 6380.2L3221.34 6473.58L3181.52 6668.58L3333.26 6786.69L3128.65 6929.51L2700.19 6786.69L2626.03 6551.17Z" fill="black"/>
<path d="M5696 4622.98L5941.13 4452.01L6291.31 4545.39L6251.49 4740.39L6403.23 4858.5L6198.62 5001.32L5770.16 4858.5L5696 4622.98Z" fill="black"/>
<path d="M4343.37 4901.13L4330.97 5199.74L4044.59 5421.85L3913.53 5272.07L3727.65 5321.29L3737.91 5071.98L4111.04 4817.51L4343.37 4901.13Z" fill="black"/>
<path d="M880.37 3516.13L867.97 3814.73L581.591 4036.84L450.532 3887.06L264.649 3936.28L274.911 3686.97L648.039 3432.51L880.37 3516.13Z" fill="black"/>
<path d="M5258.61 5788.82L5084.66 5545.8L5173.74 5194.5L5369.22 5231.93L5485.46 5078.76L5630.77 5281.6L5493.21 5711.78L5258.61 5788.82Z" fill="black"/>
<path d="M5319.64 6197.81L5179.4 6092.86L5108.78 5906.62L5274.42 5956.99L5327.19 5885.08L5267.23 5797.92L5482.65 5912.63L5437.04 6113.2L5319.64 6197.81Z" fill="black"/>
<path d="M2389.61 7996L2292.54 8081.21L2239 8193.34L2353.64 8337V8213.5L2453.11 8113.5L2389.61 7996Z" fill="black"/>
<path d="M1730.47 7760.99L1671.79 7876.05L1663.51 8000.03L1823.15 8091.11L1777.48 7976.37L1832.92 7846.67L1730.47 7760.99Z" fill="black"/>
<path d="M2495.03 8887.03L2458.65 8792.98L2390.84 8723.6L2254.73 8769.03L2345.26 8802.22L2391.83 8902.01L2495.03 8887.03Z" fill="black"/>
<path d="M4612.61 6655.01L4515.54 6740.22L4462 6852.35L4576.64 6996.01V6872.51L4676.11 6772.51L4612.61 6655.01Z" fill="black"/>
<path d="M3665.19 6875.13L3636.26 7001.01L3658.38 7123.28L3835.38 7172.8L3763.17 7072.61L3785.4 6933.33L3665.19 6875.13Z" fill="black"/>
<path d="M6441.5 6858.51L6247 7008.51V7138.01L6381.64 7232.01L6417.61 7088.51L6533 7008.51L6441.5 6858.51Z" fill="black"/>
<path d="M2213.95 8084.92L1994 7975.59L1877.54 8032.21L1851.87 8194.4L1996.66 8164L2119.06 8232.8L2213.95 8084.92Z" fill="black"/>
<path d="M5526.78 6687.92L5398.33 6701.49L5289.9 6762.17L5300.63 6945.66L5371.89 6844.79L5510.84 6820.52L5526.78 6687.92Z" fill="black"/>
<path d="M1220.61 5295.01L1123.54 5380.22L1070 5492.35L1184.64 5636.01V5512.51L1284.11 5412.51L1220.61 5295.01Z" fill="black"/>
<path d="M4805.61 8386L4708.54 8471.21L4655 8583.34L4769.64 8727V8603.5L4869.11 8503.5L4805.61 8386Z" fill="black"/>
<path d="M5073.61 7671L4976.54 7756.21L4923 7868.34L5037.64 8012V7888.5L5137.11 7788.5L5073.61 7671Z" fill="black"/>
<path d="M4671.5 6423.01L4768.57 6508.22L4822.11 6620.35L4707.47 6764.01V6640.51L4608 6540.51L4671.5 6423.01Z" fill="black"/>
<path d="M3763 6568.51L3638.5 6786.51L3801.01 6870.27L3940.18 6695.23L4151.09 6841.1L4194.5 6695.23L4019.5 6568.51H3763Z" fill="black"/>
<path d="M5344.71 8288.26L5520.21 8331.27L5734.2 8288.26L5582.9 8084.77L5650.21 7863.27L5492.71 7749.77L5492.71 7966.77L5344.71 8129.27L5344.71 8288.26Z" fill="black"/>
<path d="M1871.7 6026.01L1700 6268.97L1881.75 6389.01L2020.92 6213.97L2231.83 6359.84L2261 6249.36L2130.92 6035.58L1871.7 6026.01Z" fill="black"/>
<path d="M4819.41 4597.42L4942.95 4868.06L5138.15 4771.41L5056.92 4563.06L5289.11 4454.21L5208.32 4373.41L4958.12 4378.23L4819.41 4597.42Z" fill="black"/>
<path d="M6186.5 3978.5L6419.09 3845.68L6532.01 4031.64L6419.09 4174.5L6489.61 4379.95L6378.24 4404.88L6169.79 4266.93L6186.5 3978.5Z" fill="black"/>
<path d="M5390.69 1872.87L5332.84 1878.53L5334.87 1834.13L5378.32 1827.32L5379.64 1775.13L5400.33 1781.22L5418.95 1826.01L5390.69 1872.87Z" fill="black"/>
<path d="M4870.91 6227.45L4725.43 6173.78L4689.52 6281.48L4796.41 6327.93L4751.43 6453.79L4810.98 6453.57L4901.06 6359.24L4870.91 6227.45Z" fill="black"/>
<path d="M4254.08 6995.24L4231.86 7200L4076.36 7141.47L3881.05 7141.47L3819.31 6942.28L3902.42 6878.93L4008.68 6856.17L4151.89 6884.61L4254.08 6995.24Z" fill="black"/>
<path d="M2244.32 6717.17L2352.49 6662.88L2373.15 6758.3L2435.39 6854.71L2356.74 6948.67L2298.98 6927.83L2253.88 6882.63L2222.28 6802.87L2244.32 6717.17Z" fill="black"/>
<path d="M2922.01 3875.39L2914.82 3982.92L2949.21 4080.71L3101.56 4098.11L3028.83 4025.12L3028.74 3907.45L2922.01 3875.39Z" fill="black"/>
<path d="M3081.83 3369.52L2969.98 3434.12L2834.49 3575.8L2931.99 3712.59L2969.98 3552.59L3121.15 3497.17L3081.83 3369.52Z" fill="black"/>
<path d="M3050 3554L2925.5 3772L3088.01 3855.76L3227.18 3680.72L3438.09 3826.59L3481.5 3680.72L3306.5 3554H3050Z" fill="black"/>
<path d="M3582.91 4000.72L3567.45 4207.66L3385 4140.45L3159.51 4130.73L3078.31 3925.28L3171.11 3865.06L3292.66 3847.22L3459.43 3883.24L3582.91 4000.72Z" fill="black"/>
<path d="M2520.56 4209.49L2650.73 4150.03L2671 4263.68L2740.37 4380.3L2643.35 4487.92L2576.01 4460.79L2524.67 4405.42L2490.79 4309.8L2520.56 4209.49Z" fill="black"/>
<path d="M1999 2844.64L1945.25 2753.24L2053.5 2753.24L2119.65 2668.31L2209.06 2731.3L2191.74 2783.28L2151.5 2825.71L2078.89 2858.51L1999 2844.64Z" fill="black"/>
<path d="M3043.34 5386.44L3221.6 5489.63L3266.36 5329.62L3381.87 5172.13L3257.77 5004.54L3157.53 5034.09L3076.34 5106.31L3014.57 5238.62L3043.34 5386.44Z" fill="black"/>
<path d="M2117.03 5057.87L2171.89 5372.52L2265.96 5166.8L2310.44 5421.96L2533.77 5232.79L2637.77 5081.18L2456.14 4787.51L2364.8 5014.67L2117.03 5057.87Z" fill="black"/>
<path d="M2213.24 1923.45L2277.56 1727.79L2417.49 1817.38L2608.52 1858L2627.49 2065.68L2533.02 2110.35L2424.36 2110.52L2290.19 2052.92L2213.24 1923.45Z" fill="black"/>
<path d="M4625.02 3202.82L4475.6 3061.06L4616.39 2972.84L4734.74 2817.48L4930.61 2889.06L4930.64 2993.56L4884.35 3091.88L4774.94 3188.57L4625.02 3202.82Z" fill="black"/>
<path d="M5894.36 1814.7L5803.91 1728.89L5889.14 1675.49L5960.77 1581.45L6079.33 1624.78L6079.35 1688.03L6051.33 1747.55L5985.11 1806.07L5894.36 1814.7Z" fill="black"/>
<path d="M5821.85 1851.18L6027.76 1846.39L5990.09 2008.22L6015.67 2201.84L5826.28 2289.14L5752.6 2215.04L5716.12 2112.68L5725.55 1966.97L5821.85 1851.18Z" fill="black"/>
<path d="M1118.95 2825.5L1147.17 3029.53L1300.88 2966.45L1496.1 2960.71L1551.97 2759.8L1467.03 2698.92L1360.15 2679.29L1217.84 2711.92L1118.95 2825.5Z" fill="black"/>
<path d="M1475.77 4081.63L1348.16 4165.61L1439.43 4248.42L1505.54 4377.31L1657.89 4350.63L1671.56 4274.34L1650.62 4196.51L1583.37 4111.62L1475.77 4081.63Z" fill="black"/>
<path d="M2252.55 6980.26L2169.93 6856.61L2213.16 6778.74L2075.43 6734.01L2003 6799.32L2123.46 6937.06L2252.55 6980.26Z" fill="black"/>
<path d="M3291.9 6412.07L3345.86 6328.33L3345.61 6204.07L3230.49 6116.22L3140.51 6153.83L3242.25 6253.68L3291.9 6412.07Z" fill="black"/>
<path d="M5567.4 7113.66L5509.18 7052.56L5397.05 6999.01L5268.03 7064.78L5263 7162.17L5397.05 7113.66H5567.4Z" fill="black"/>
<path d="M2261.7 7592.99L2239 7777.97L2392.87 7724.47L2571.96 7846.5L2691.78 7675.82L2632.08 7590.05L2537.91 7535.82L2392.87 7519L2261.7 7592.99Z" fill="black"/>
<path d="M2673.38 7558.72L2662 7465.53L2739.14 7492.48L2828.93 7431L2889 7516.99L2859.07 7560.2L2811.86 7587.53L2739.14 7596L2673.38 7558.72Z" fill="black"/>
<path d="M3960.92 6158.46L4005.27 5914.85L3825.99 5888.01L3782.36 6068.95L3572 6032.85L3588.74 6126.47L3761.92 6242.18L3960.92 6158.46Z" fill="black"/>
<path d="M2674.92 6158.46L2719.27 5914.85L2539.99 5888.01L2496.36 6068.95L2286 6032.85L2302.74 6126.47L2475.92 6242.18L2674.92 6158.46Z" fill="black"/>
<path d="M5313.92 5083.46L5358.27 4839.85L5178.99 4813.01L5135.36 4993.95L4925 4957.85L4941.74 5051.47L5114.92 5167.18L5313.92 5083.46Z" fill="black"/>
<path d="M4240.53 6203.94L4146.22 6364.68L4287.43 6425.8L4424.56 6559.82L4602.32 6450.78L4638 6332.51L4581.61 6203.94L4390.3 6188.13L4240.53 6203.94Z" fill="black"/>
<path d="M4969.78 4040.01L5038.24 4099.98L5076 4178.9L4995.15 4280.01V4193.09L4925 4122.71L4969.78 4040.01Z" fill="black"/>
<path d="M5298.75 4013.06L5365.15 3899.9L5265.73 3856.87L5169.19 3762.51L5044.05 3839.28L5018.93 3922.55L5058.63 4013.06L5193.31 4024.19L5298.75 4013.06Z" fill="black"/>
<path d="M4024.83 7554.47L3979.41 7669.91L4078.45 7695.5L4182.31 7769.45L4287.85 7679.38L4263.72 7614.17L4212.13 7563.56L4121.58 7528.6L4024.83 7554.47Z" fill="black"/>
<path d="M4895 7698.51L4685.1 7556.01L4417.09 7573.19L4243 7833.31L4458.5 8048.01L4557.5 7762.51L4895 7698.51Z" fill="black"/>
<path d="M2835.88 7215.91L3030.01 7182.55L3001.13 7041.26L2854.02 7058.05L2823.56 6891.01L2758.18 6929.08L2719 7090.07L2835.88 7215.91Z" fill="black"/>
<path d="M2169.88 9033.9L2364.01 9000.54L2335.13 8859.25L2188.02 8876.04L2157.56 8709L2092.18 8747.07L2053 8908.06L2169.88 9033.9Z" fill="black"/>
<path d="M1055.88 7290.91L1250.01 7257.55L1221.13 7116.26L1074.02 7133.05L1043.56 6966.01L978.18 7004.08L939 7165.07L1055.88 7290.91Z" fill="black"/>
<path d="M1761.88 7627.9L1956.01 7594.54L1927.13 7453.25L1780.02 7470.04L1749.56 7303L1684.18 7341.07L1645 7502.06L1761.88 7627.9Z" fill="black"/>
<path d="M407.864 6424.25L525.478 6492.88L573.13 6405.12L487.785 6348.61L546.071 6246.5L494.506 6237.61L402.055 6305.55L407.864 6424.25Z" fill="black"/>
<path d="M2719.76 8957.24L2616.68 8789.39L2496.23 8868.69L2566.46 8999.03L2422.68 9089.36L2482.32 9135.92L2646.34 9112.5L2719.76 8957.24Z" fill="black"/>
<path d="M3108.37 7034.11L3099.25 7108.47L3171.5 7096.5L3233.1 7136.03L3281.27 7067.41L3257.27 7032.93L3219.41 7011.14L3161.1 7004.38L3108.37 7034.11Z" fill="black"/>
<path d="M2129 5980.01L2382.5 5980.01L2382.5 5873.51L2491.5 5768.81L2351.14 5714.31L2294.96 5729.56L2248.86 5768.81L2212.86 5841.75L2129 5980.01Z" fill="black"/>
<path d="M4598.23 7096.49L4558.98 7066.32L4598.02 7037.91L4607.89 6990.64L4662.48 6999.8L4667.62 7027.06L4660.39 7054.96L4636.62 7085.49L4598.23 7096.49Z" fill="black"/>
<path d="M3471.73 6196.43L3413.76 6183.71L3441.63 6132.98L3428.22 6076.67L3492.12 6058.75L3511.61 6085.7L3517.99 6119.66L3507.77 6164.92L3471.73 6196.43Z" fill="black"/>
<path d="M4898.07 6821.89L4736.25 6850.8L4696.44 7049.24L4578.39 7226.22L4762.73 7327.69L4923.71 7064.15L4898.07 6821.89Z" fill="black"/>
<path d="M5693.61 3317L5596.54 3402.21L5543 3514.34L5657.64 3658V3534.5L5757.11 3434.5L5693.61 3317Z" fill="black"/>
<path d="M6475.61 2451L6378.54 2536.21L6325 2648.34L6439.64 2792V2668.5L6539.11 2568.5L6475.61 2451Z" fill="black"/>
<path d="M5941.34 1006.97L5889.18 888.81L5798.27 804.097L5626.84 870.359L5744.65 907.409L5810.2 1032.3L5941.34 1006.97Z" fill="black"/>
<path d="M4129.61 3466L4032.54 3551.21L3979 3663.34L4093.64 3807V3683.5L4193.11 3583.5L4129.61 3466Z" fill="black"/>
<path d="M4695.78 3232.26L4766.04 3340.64L4787.09 3463.1L4637.73 3570.2L4671.29 3451.35L4602.74 3328.08L4695.78 3232.26Z" fill="black"/>
<path d="M5679.23 3758.49L5639.98 3728.31L5679.02 3699.91L5688.89 3652.64L5743.48 3661.8L5748.62 3689.06L5741.39 3716.95L5717.62 3747.49L5679.23 3758.49Z" fill="black"/>
<path d="M4574.19 3334.76L4428.65 3353.92L4354.35 3539.82L4216.81 3701.43L4355.58 3806.88L4547.59 3565.48L4574.19 3334.76Z" fill="black"/>
<path d="M5782.16 6438.4L5884.95 6555.39L5787.14 6698.31L5761.83 6876.65L5558.27 6823.54L5607.07 6567.11L5782.16 6438.4Z" fill="black"/>
<path d="M4901.81 7919.45L4721.07 7943.92L4617.1 8177.93L4436.76 8381.55L4600.88 8513.81L4853.7 8209.7L4901.81 7919.45Z" fill="black"/>
<path d="M5691.81 7069.72L5791.93 7222.18L5683.55 7454.18L5648.21 7723.87L5440.72 7686.8L5504.34 7296.48L5691.81 7069.72Z" fill="black"/>
<path d="M4167.37 8111.4L4318.84 8213.01L4309.05 8468.89L4381.21 8731.13L4175.61 8777.55L4082.66 8393.16L4167.37 8111.4Z" fill="black"/>
<path d="M2718.47 4505.72L2900.8 4500.65L3041.23 4714.77L3252.12 4886.55L3111.55 5043.61L2812.89 4784.38L2718.47 4505.72Z" fill="black"/>
<path d="M1378.12 2238.57L1255 2501L1463.5 2607L1616.78 2716.5L1604.22 2853.3L1786.66 2764.06L1616.78 2407L1378.12 2238.57Z" fill="black"/>
<path d="M4634 5975.51L4410.19 6144.82L4597.6 6151.61L4719.5 6079.94L4826.88 6150.33L4872 6079.94L4839.5 5940.51L4634 5975.51Z" fill="black"/>
<path d="M1039.81 4236.25L816 4066.94L1003.41 4060.14L1125.31 4131.81L1232.7 4061.42L1277.81 4131.81L1245.31 4271.25L1039.81 4236.25Z" fill="black"/>
<path d="M4463.5 2871.9L4357.5 2981.59L4463.5 3229.5L4206.39 3171.98L4212.78 2981.59L3995.95 2959.65L4037.94 2871.9L4239.89 2805.15L4463.5 2871.9Z" fill="black"/>
<path d="M766.548 1762.09L873.068 1808.53L1031 1728.5L901 1655.5L916.655 1576.66L801.5 1546.5L753.344 1703.47L766.548 1762.09Z" fill="black"/>
<path d="M4474.96 5767.5L4306.5 5674.01L4126.11 5805.01L3991.5 5850.01L4092.5 5943.51L4263.54 5879.87L4474.96 5767.5Z" fill="black"/>
<path d="M2834.92 5918.51L2829.1 5800.69L2759.35 5641.63L2562.75 5593.41L2468.49 5691.89L2650.64 5765.64L2834.92 5918.51Z" fill="black"/>
<path d="M4490.25 9029.73L4390.13 8967.35L4219.68 8934L4068 9068.04L4095.18 9201.62L4259.61 9094L4490.25 9029.73Z" fill="black"/>
<path d="M1550.69 5694.22L1484.35 5791.76L1341.95 5891.19L1149.02 5829.94L1119.86 5696.78L1313.76 5728.71L1550.69 5694.22Z" fill="black"/>
<path d="M2108.01 7019.64L2050.82 6948.04L1934.38 6878.53L1787.94 6934.37L1772.96 7037.66L1921.85 7004.22L2108.01 7019.64Z" fill="black"/>
<path d="M2276.53 7147.99L2210.89 7100.71L2266.42 7055.56L2287.19 6974.4L2376.9 6986.54L2386.64 7030.84L2376.16 7076.83L2338.77 7128.01L2276.53 7147.99Z" fill="black"/>
<path d="M1625.06 8453.41L1536.28 9038.54L1966.49 9090.03L2057.97 8654.67L2563.09 8726.08L2516.49 8503.6L2094.58 8239.37L1625.06 8453.41Z" fill="black"/>
<path d="M1603.53 7703L1464.16 7835.82L1342 8091.6L1492.03 8385.92L1793.62 8302.47L1632.12 8020.97L1603.53 7703Z" fill="black"/>
<path d="M1332.38 7052.47L1320.84 6860.29L1204.26 6601.92L882.603 6526.62L751.752 6810.87L1071.02 6869.13L1332.38 7052.47Z" fill="black"/>
<path d="M1344.93 7916.45L1293.05 7795.65L1284.96 7602.25L1458.14 7457.69L1625.14 7591.01L1448.2 7724.45L1344.93 7916.45Z" fill="black"/>
<path d="M1595.42 5183.55L1451.5 5413.82L1595.42 5692.51L1595.42 5869.01L1827.5 5744.51L1654.5 5509.55L1595.42 5183.55Z" fill="black"/>
<path d="M3757.5 4553.51L3687.73 4769.68L3884.3 4801.91L3965.26 4877.93L4018.98 4682.71L3828.58 4687.06L3757.5 4553.51Z" fill="black"/>
<path d="M2239.08 4938.53L2375.39 4735.36L2226.76 4526.59L2222.49 4383.73L2024.5 4597.51L2172.95 4681.57L2239.08 4938.53Z" fill="black"/>
<path d="M2750.58 9486.59L243 9428L549 9122L2804 9151L2482.5 8344L2532.38 8222.46L2841 8098.5L3047.92 8381.5L2872.5 8595.5L3047.92 9377.48L2750.58 9486.59Z" fill="black"/>
<path d="M2671.5 2589.5L2715 2407L2890.67 2238L2741.5 1836.5L3088.93 427.661L2807.5 22.5L3249.5 57.5002L3268 322.5L3411.5 794L3204.5 1718L3204.5 2349.5L3151.54 2852.38L2944 2440.5L2838.5 2613.5L2671.5 2589.5Z" fill="black"/>
<path d="M4285.5 2488.5L4021.7 2266L4021.7 1732.26L4021.7 102L3739.5 22.4994L3511.89 290.5L3808 773.5L3573.5 1639.5L3511.89 2026L3418 2355L3448.78 2857.5L4285.5 2488.5Z" fill="black"/>
<path d="M3545 9312L3683.08 8533.02L3631.9 7857.58L3894.65 7628L4129 7931.11L4041.5 8314.5L4070.5 8784.5L3918 9180L5730.5 9275L5909 9479H3875.5L3545 9312Z" fill="black"/>
<path d="M5775.38 3986.44L5873.14 3251.54L5593.81 2942.6L5682.37 2580.14L5950 2518.5L6118 2815.5L6054.51 3488.84L6201.5 3588.5L6073 3818.5L5775.38 3986.44Z" fill="black"/>
<path d="M4607.79 1541.14L4428.44 863.246L4595.79 492.519L4476.78 168.967L4231.5 168.967L4325.04 1139.11L4258.5 1283L4358.26 1459.89L4607.79 1541.14Z" fill="black"/>
<path d="M4944 1865.91L5272.92 1538.93L5208.19 1296.32L5395.98 1148.28L5577.5 1168.5L5301.61 1714.38L5358.53 1811.31L5193.56 1881.52L4944 1865.91Z" fill="black"/>
<path d="M2018 5692.51L1741 5477.01L1772.8 5242.92L1583.18 4945.32L1771.52 4730.28L2047.36 4777.9L2047.36 5412.01L2018 5692.51Z" fill="black"/>
<path d="M2483.09 3793.55L2129.84 3556.68L1877.5 3312.26L1679.22 3312.26L1590.22 3577.66L2225.36 3957.81L2483.09 3793.55Z" fill="black"/>
<path d="M3167.5 7878.01L3002.5 7780.01L2838 7626.51L2955.5 7478.51L3085.09 7657.51L3234.31 7706.22L3167.5 7878.01Z" fill="black"/>
<path d="M5172.41 4150.39L5352.81 4156.89L5497.43 4227.71L5453.58 4472.2L5368.04 4344.72L5174.39 4324.96L5172.41 4150.39Z" fill="black"/>
<path d="M2727.24 3270L2761.25 3299.74L2780 3338.87L2739.84 3389V3345.9L2705 3311L2727.24 3270Z" fill="black"/>
<path d="M2762.37 3125.57L2795.46 3069.17L2745.91 3047.72L2697.79 3000.7L2635.43 3038.96L2622.9 3080.46L2642.69 3125.57L2709.82 3131.12L2762.37 3125.57Z" fill="black"/>
<path d="M2759.93 3157.99L2849.84 3161.23L2921.92 3196.52L2900.06 3318.37L2857.43 3254.84L2760.91 3244.99L2759.93 3157.99Z" fill="black"/>
<path d="M2108.6 2501.51L2105.23 2559.17L2080.41 2608.76L1998.31 2607.33L2041.83 2573.62L2049.76 2511.07L2108.6 2501.51Z" fill="black"/>
<path d="M2301.44 2618.99L2372.89 2575.48L2330.05 2521.31L2304.31 2439.18L2210.86 2444.52L2171.62 2483.7L2166.59 2546.51L2238.87 2593.41L2301.44 2618.99Z" fill="black"/>
<path d="M2612 729.642L2558.25 638.242L2666.5 638.242L2732.65 553.315L2822.06 616.304L2804.74 668.286L2764.5 710.718L2691.89 743.516L2612 729.642Z" fill="black"/>
<path d="M2721.6 386.51L2718.23 444.177L2693.41 493.762L2611.31 492.339L2654.83 458.628L2662.76 396.074L2721.6 386.51Z" fill="black"/>
<path d="M2914.44 503.994L2985.89 460.483L2943.05 406.311L2917.31 324.182L2823.86 329.522L2784.62 368.7L2779.59 431.516L2851.87 478.417L2914.44 503.994Z" fill="black"/>
<path d="M2205.68 2893.12L2305.03 2951.23L2364.87 3034.65L2266.45 3158.72L2256.89 3061.31L2154.1 2991.76L2205.68 2893.12Z" fill="black"/>
<path d="M2552.01 2331.52L2580.39 2249.77L2636.46 2188.25L2754.54 2223.14L2677.9 2254.3L2640.95 2341.27L2552.01 2331.52Z" fill="black"/>
<path d="M4128.28 3198.6L4128.28 3026.33L4007.38 3044.98L3962.5 3168.15L3829.49 3198.6L3901.5 3276.65L4061.5 3323.65L4128.28 3198.6Z" fill="black"/>
<path d="M3800 2927.72L3912.24 2927.73L3967.77 3117.17L3813.87 3089.97L3787.74 3186.28L3679.93 3117.09L3719.21 2944.3L3800 2927.72Z" fill="black"/>
<path d="M4503.22 5734.51L4596.85 5832.34L4720.66 5886.89L4880.77 5773.54L4743.93 5772.43L4633.93 5672.07L4503.22 5734.51Z" fill="black"/>
<path d="M3806.92 4269.15L4087.95 4167.45L4402.03 4348.28L4313.1 4526.33L4429.1 4679.69L4194.49 4764.69L3817.6 4515.84L3806.92 4269.15Z" fill="black"/>
<path d="M1897.63 1855.96L1890.92 2017.53L1735.97 2137.7L1665.06 2056.66L1564.49 2083.29L1570.04 1948.4L1771.93 1810.72L1897.63 1855.96Z" fill="black"/>
<path d="M1357.38 953.401L1352.66 839.843L1243.75 755.375L1193.91 812.336L1123.22 793.617L1127.12 888.43L1269.02 985.201L1357.38 953.401Z" fill="black"/>
<path d="M922.836 1402.14L1203.86 1300.44L1517.94 1481.28L1429.01 1659.33L1545.01 1812.68L1333.41 1859.5L933.512 1648.83L922.836 1402.14Z" fill="black"/>
<path d="M6149.97 1890C6189.18 1752.16 6097.06 1569.11 6149.97 1504L6342 5.5H6781V1504V9481.5C6724.44 9491.65 6010 9481.5 6010 9481.5C6010 9481.5 5800.44 9125.24 5800.44 9047.18C5800.44 8876.58 6662.82 8778.58 6571.6 8430.91C6505.1 8177.47 6355.74 7944.35 6084.82 8204.86C5720.12 8555.52 5625.13 7404.38 5885.9 7271.57C6127.33 7148.62 6350.7 7368.11 6533.92 7229.83C6717.15 7091.56 6545.91 6649.71 6414.88 6780.44C6032.1 7162.34 6137.71 6656.97 5942.24 6473.16C5785.86 6326.1 6030.34 6060.24 5885.9 5956.49C5789.25 5887.07 6008.96 5664.24 6086.5 5465.99C6134.67 5342.83 6212.55 5122.37 6336.5 5065.99C6460.45 5009.62 6095.19 5588.13 6149.97 5734.49C6209.14 5892.6 6182.21 5842.81 6261.74 5799.5C6414.88 5716.11 6370.48 5360.38 6513.12 5251.93C6655.76 5143.49 6284.76 4635.51 6467.98 4497.23C6651.21 4358.96 6647.92 3583.91 6513.12 3354C6378.33 3124.08 6494.92 2713.39 6533.92 2655C6661.13 2464.54 6383.43 2291.54 6187.95 2268.5C5992.47 2245.45 6100.95 2062.29 6149.97 1890Z" fill="black"/>
<path d="M4542.44 1848L4691 1822.43L4668.9 1714.15L4556.32 1727.02L4533.01 1599L4482.98 1628.17L4453 1751.56L4542.44 1848Z" fill="black"/>
<path d="M4647.76 2072.24L4544.68 1904.39L4424.23 1983.69L4494.46 2114.04L4350.68 2204.36L4410.32 2250.93L4574.34 2227.5L4647.76 2072.24Z" fill="black"/>
<path d="M4760.98 2404.33L4695.39 2461.32L4655.32 2401.92L4582.2 2350.64L4616.98 2259.89L4665.68 2260.57L4711.16 2282.79L4755.43 2334.39L4760.98 2404.33Z" fill="black"/>
<path d="M5075.38 2097.21L5193.38 2213.21L5051.88 2377.71L5177.88 2588.71L4923.87 2560.25L4868.38 2335.21L4995.88 2244.21L5075.38 2097.21Z" fill="black"/>
<path d="M4934.83 2586.57L4816.79 2537.68L4671.38 2642.7L4490.45 2702.41L4543.18 2840.31L4803.41 2745.32L4934.83 2586.57Z" fill="black"/>
<path d="M6083.52 1495.82L6122.47 1374.14L6005.77 1237.92L5931.3 1062.55L5798.23 1126.51L5914.43 1377.98L6083.52 1495.82Z" fill="black"/>
<path d="M5421.57 2636.62L5303.95 2570.42L5144.14 2665.02L4951.69 2707.07L4993.75 2860.37L5271.36 2790.16L5421.57 2636.62Z" fill="black"/>
<path d="M535.919 8764.75C535.919 8971.25 167 9372.28 167 9485H0V1522.99V10H743.5V961L330 1322L291.5 1927.5L813.44 2227.69L1155 2100.5C1155 2100.5 1250.19 2323.11 1197.11 2386.5C1052.82 2378.92 1162.1 2691.45 1019.7 2802.29C877.306 2913.13 1162.1 3048.46 1197.11 3167.47C1232.12 3286.47 632.25 3137.13 509.722 3272.47C411.699 3380.74 316.862 3622.87 221.615 3601.48C160.123 3757.71 48.9404 3996.41 311.501 4044.25C327.585 4203.5 813.796 4144 875.474 4318.42C924.817 4457.96 1169.36 4344.68 1285.46 4270.59C1457.48 4270.59 1297.15 4467.32 1478.48 4494.6C1552.13 4505.68 1577.54 4438.98 1688.52 4426.35C1789.76 4448.51 1996.5 4385.51 1996.5 4385.51C1996.5 4385.51 1872.55 4691.19 1724.48 4641.6C1457.57 4552.22 1548.49 5440.21 1358.79 5241.29C1273.34 5151.69 989.782 5366.13 947.205 5497.97C904.628 5629.8 928.69 5830.92 1062.48 5888.99C1258.34 5974.01 850.029 6058.41 834.418 6002.99C805.645 5900.86 548.699 5598.24 462.002 5280.99C412.206 5098.78 742.037 4792.45 617.502 4721.49C560.457 4688.99 268.435 4567.23 193.5 4641.6C116.255 4718.27 175.609 5057.21 193.5 5163.99C229.675 5379.91 356.505 5431.66 250 5588C142.622 5745.62 323.446 5935.71 278.089 6002.99C233.951 6106.13 453.425 6185.74 371.582 6283.16C289.739 6380.58 638.577 6791.26 638.577 6791.26C638.577 6791.26 947.972 7189.11 947.972 7302.28C947.972 7415.45 654.078 7543.44 763.766 7579.96C811.075 7595.71 1032.48 7476.12 985.169 7554.87C937.86 7633.62 937.86 7733.38 854.598 7733.38C771.336 7733.38 807.61 7830.16 763.766 7832.55C669.528 7837.68 677.626 7995.69 693.455 8074.06C698.753 8165.99 670.747 8248.48 670.747 8248.48C670.747 8248.48 574.238 8351.73 535.919 8419.4C497.599 8487.07 535.919 8558.24 535.919 8764.75Z" fill="black"/>
<path d="M5128.04 443.484L5090.49 567.068L5104.12 690.574L5277.28 752.197L5212.16 647.259L5243.95 509.842L5128.04 443.484Z" fill="black"/>
<path d="M5218.6 109.827L5098.93 61.2215L4903.91 41.2895L4855.82 202.241L5005.42 133.972L5142 219.241L5218.6 109.827Z" fill="black"/>
<path d="M5252.07 108L5127.57 326L5290.08 409.76L5429.25 234.72L5640.16 380.59L5683.57 234.72L5508.57 108H5252.07Z" fill="black"/>
<path d="M5784.98 554.719L5769.52 761.661L5587.07 694.447L5361.58 684.729L5280.38 479.278L5373.19 419.051L5494.73 401.213L5661.5 437.234L5784.98 554.719Z" fill="black"/>
<path d="M4982.84 926.865L5300.5 848.501L5174 759.001L5048.63 733.83L5087 403.501L4942 448.501L4870.16 737.143L4982.84 926.865Z" fill="black"/>
<path d="M1259.6 111.827L1139.93 63.2215L944.906 43.2895L896.815 204.241L1046.42 135.972L1183 221.241L1259.6 111.827Z" fill="black"/>
<path d="M1852.85 979.811L1809.37 1080.65L1809.13 1186.32L1949.54 1254.92L1904.52 1160.03L1944.45 1046.95L1852.85 979.811Z" fill="black"/>
<path d="M2251.22 1165.56L2235.83 1264.57L2162.76 1392.73L1992.4 1415.98L1921.53 1324.41L2081.96 1278.31L2251.22 1165.56Z" fill="black"/>
<path d="M1958.54 1099.18L2140.94 1181.02L2166.02 1083.73L2377.73 1004.3L2234.54 838.173L2207.64 950.573L1958.54 1099.18Z" fill="black"/>
<path d="M1591.13 535.98L1529.35 456.696L1504.76 363.177L1613.33 270.067L1595.33 364.474L1656.8 455.414L1591.13 535.98Z" fill="black"/>
<path d="M1760.69 720.219L1601.1 607.289L1688.26 494.707L1844.08 572.487L1944.98 400.142L2023.6 488.83L1941.76 635.845L1760.69 720.219Z" fill="black"/>
<path d="M1967.04 257.689L1884.07 120.555L1793.62 212.959L1655.86 277.155L1677.78 437.954L1757.22 455.318L1839.66 436.446L1931.33 369.312L1967.04 257.689Z" fill="black"/>
</g>
<defs>
<clipPath id="clip0_23_723">
<rect width="6781" height="9486" fill="white"/>
</clipPath>
</defs>
</svg>
