<svg xmlns="http://www.w3.org/2000/svg" viewBox="0 0 4341 7719.78"><g id="Ebene_2" data-name="Ebene 2"><g id="Ebene_4" data-name="Ebene 4"><path d="M3790.09,4047c-9.87,69.07-2.26,139.93,16.29,207.09-374-109.82-1146.08-131.93-1161.07,404.87-99.88,66.05-111.09,221-24.94,303,61.06,59.94,155.68,75.52,232.2,36.82,150,106.77,322.28,184.71,507.73,198.7-39.17,14.95-71.38,42.11-103.59,68.19-160.05,54.18-519.25,90.94-663.78,13.31-91.17-146.19-222.3-151.71-377.61-168.6-222.39-20.78-460.66,29.49-629.33,182.84-369.16,70.9-517.44-182.32-979.78-138.73,3.12-25,6.82-52.64,21.57-73.57,293.25-122.48,642.36,67.5,917-120.46,287.36-320,560.31-43.78,829.18-290.49,91.84-102.79,27.24-282.19-103.89-314-50.36-10.17-103.07-9.53-148.42,17-155.74,39.65-324.42-6.82-479.05,48.39-150.84,34.21-236,186-379.09,227.92-93.82,6.39-187.45-9.72-281.12-12.35C873.87,4553.7,786.94,4447.13,693,4348.18c88.08-21.71,180.17-5.75,262.61,29.64,401.67,203.65,989.43-311.5,1376.79-118.55C2596.14,4371.7,2764.55,4219,2963,4071.64c221.94-51.57,457.38-13.78,684.08-26.6C3694.69,4044.81,3742.53,4043.53,3790.09,4047ZM174.34,7685.56c48.41-45.46,84.31-102.54,141.91-138.17,141.31-92.54,286.12-97.47,403.27,34.71C838.13,7456,883.71,7566,835.61,7332.57c-144.08-84.45-329.34-63.74-471.9-152.29-205.63-122.77-206.79-426.9-46.6-588.41-139.21-94.4-203.4-359.4-112.6-501.75-39.45-81.52-13.65-187.09,41.67-255.4,56.95-79.53,154.46-118.91,250-123.81,133.79,4.83,270.7,16.63,401.47,46.19,134.39,47.5,254.23,127.13,380.13,192.65,50.83-22.11,108-21.06,160.47-4.18,57.13,3.74,114.54,4.91,171.14,14.55-69.69-79.59-175.09-137.67-193-251.83-206.67,3.79-384.65-111.81-581.4-150-155.93-1.9-321.49,14.23-461.4-69.34C85.85,5317.45,189.36,4819.9,482.39,4708.37c-60.32-65.14-119-136.12-200.1-175.95-76.48-43.75-116.17-141.13-91.91-225.86,11.39-25.55,19.63-53.93,38.66-75,5.51-62.79,43.72-120.08,97.67-151.68,244.58-177.48,571.21-173.28,837.39-49.52,37.08.51,72.59-13.65,108.39-22-138.9-59.37-270.65-137.5-423.71-154.22-242.53-23.94-631,60.67-626.77-301.47-69.78-91.52-58.29-214.11-22.69-317,43.87-161.32,78.75-369.94,271.38-411.27-60.94-227.8-295-212.18-225.37-522.22-107.81-113.58-78.17-295.38,57.28-371.94,77.25-43,41.68,300.15,89.39,227.75,261-396,115-119,660.88-184.57,183.6-22.06,427-52.12,305.12,181.57-78.32,128.94-308.62,265.39-425,204-76.16,99.48-2,161-186.34,125.51.42.08,128.29,74,147.34,193.49,11,69-82.37,138.23-18.64,157,490.14,5.27,690.93,110.89,1096.15,361.18-3.32-67,13.83-133.54,43.39-193.51-22.57-40.78-28.61-91.13-19.09-136.43.35-4.49-1.48-8.67-3.94-12.32-15.3-19-32-37.68-43.36-59.39-186.46,102-588.64,49.45-529.8-232.92,11.79-26.82,20.72-56.59,41.35-78,6.91-66.9,51.84-119,99.47-163C1465.38,2169.39,1531.29,2094,1708,2033c154.33-46.8,519.52-128.61,456,19,145.6-20.11,112.27,128.78,128.19,295.43,38,38,65.69,85.05,81.47,136.35,10.17,29.83,2.92,63.34,16.14,91.69C2809.49,2404.74,3421,2667.3,3851,2625c-67.48-56.94-300.38-122.61-379.24-162.25-98.91,13.68-139.3-39.13-209.94-89.63-248.06-56.41-397.62,3.75-609.82-197.12-214.41-238.23-372.13-458.6-785.71-398.3-461.48,138.09-577.54,113-1029.5-13.89-165.22-33.21-480.21,6.39-573.09-149.31-56.61-90.72-20.94-221.92,71.75-273.65,78.38-49.31,167.11-14.3,250.32-1.68,149.05,17.32,300.58,21.5,447.26,55.79,75.21-581.81,1333.9-658.87,1682.5-303.57,145.91,125.32,268.47,306.06,467.77,346.1C3409.49,1429.71,3526,1731,3926,1653c0,0,14.08-786.48-149-705-225.65,112.74-336.49,213.42-526.75-199.1a238,238,0,0,0-73.56,3.92c-97.87,352.74-520.79,264.86-706.05,34.49-322.39-227.5-572.37,68.64-956.95-95.85-39.71-4.57-75.23,6-107.52,29.39-21.45,17.27-36,40.16-47.27,65.07-60.87,183.84-188,271.22-377.63,286.33C896.41,1264.44,661.57,1255,484,1246.12,82.73,1268.46-.16,853.71,280.86,620.4c-199-189.48-95.19-394.57-9.68-606.4H0V7716H150C157.84,7705.65,165.9,7695.44,174.34,7685.56ZM656.64,143c-27.13,69.15-56.36,137.35-82.47,206.91,158.48,136.32,165.3,339.55,36.63,498.37,11.87.11,23.75.12,35.62-.08,64.07-125.54,199.51-163.74,329.32-177.87,81.55-259.33,360.92-426.63,627.55-367.6,84.52,11.31,164.65,54.86,251.31,44,357.1-100.19,684.52-58.36,956.72,209.53,122.94-241.81,518.5-274.46,711.79-101.35,56.94,50.59,88,122.09,124.5,187.19,136.11,15.36,280.31,25.32,394.62,110.6,196.65,134.18,244.09,373.61,138,581.68,63.55,96.34,127,374,139.75,491.64L4341,0C4290.65,60.5,538.33-101.78,656.64,143ZM2216.89,5509.39l40.22,5.4C2243.62,5512.76,2230.08,5511.18,2216.89,5509.39Zm1224.77,380.83c111.3,7.49,208.11-78.31,322.46-56.5,25.23,4.7,24.06.56,46.24-8.15-.59-44.95-3.57-89.88-7.49-134.65-9.76-70.62-50.39-132.09-62.67-201.94-68.49,28.61-132.79,69.78-209.53,71.15-31.52,42-75.83,72.83-127.28,85.4,21.66,79.1,29.35,161.55,32.44,243.39C3437.77,5889.37,3439.71,5889.81,3441.66,5890.22Zm-373.4,1815.72c32-119.91,175.2-183.41,284.93-124.79q16.21,1.34,32.43,2.79c-19.82-63.7-21.49-251.68-90.56-264-25,7.78-46.74,23.73-70.27,35-69.76,36.48-145.55,64.42-225.35,62.57-53.13,44.91-114.82,78.07-184.42,82.34,15.57,53,12.9,109.11-13.87,157.73,36.52,10.64,70.9,28.71,95.34,58.38h169.35C3066.57,7712.65,3067.36,7709.29,3068.26,7705.94ZM679.42,6842.7a423.6,423.6,0,0,0-50.63,12.84c213.82,48.17,530.79,101,585.58,352.5,44.6,139.23,51.42,296.07,7.36,436.3,33.33,14.78,59.21,41.8,79.85,71.66h573.09c-85.58-173.38-150.82-597.77,134.25-606.76,85.68-1.19,165.5,58,190.25,139.49,76,33.47,122.28,110.85,120.2,193.34,10.59,10.13,18.36,23.14,28,34.26,28.74-18.42,34.13-57.55,63.85-77-3-23.47-21.14-41.64-25.45-66q-2.88-21.39-5.75-42.79c-229.8-211-35.86-528.6-400.05-330.9-80.49,96.56-152.76,199.65-212,310.55-18.06,24.63-35.15,49.22-60.84,66.92-37.71,53.86-99.36,83.24-164.44,85.42-88-1.35-170.25-60.46-192.86-146.83-14.38-71.05-3.84-144.24-18.77-214.52-36.73-46-61-103.27-74.42-162.14C1065,6878.11,872.85,6831,679.42,6842.7ZM4127,1871c-107.11,235.88-280.14,262-447.64,85-172.4-202.74-183-136.6-422.24-118.38C2846.85,1866.15,2624.49,1447.69,2333,1247c-282.66-90-252,92-904,110-9,.25,5.83,106.35,7.55,115.15C2054,1273.66,1957.68,1419,2550,1759c537.72,308.69,677.16,139.55,903.48,263.33,468.09,131.39,1093.81,707.62,344,967.45-316.74,60.49-641.19-51.63-959.49-68.77-305-28.19-402.55,163.37-551.91,410.7,33.63,13.19,63.85,35.71,84.33,66.16,476.21-455.7,904.31-201.66,1412.77-255.56C3942.47,3106.91,3634,3273,3885,3364c356.41,129.22-289.18,195.68-520.53,149.79-149.72-31.85-341-203.15-450.87-91.57-64.68,65.71-237.75,213.14-418.89,241.85-522.4,82.8-874.92-315.4-1330.8-407.18-181.19-19.25-363.31-23.31-544.73-40.48-12,50.17-27.53,98.09-41.81,147.86,14.65,24.61,27.56,52.05,34.5,80.13,272.75-11.33,536.36,47.43,774.63,181.17,183.56,51.64,376.55,19.88,476.74,227.34,150.44-38.5,309.37-68.43,461.7-22.26,66.21,18.73,127.84,57,196,66.76,18.53-5.73,34.09-18.86,50.23-29.4,276.44-296,698.16-208.4,1061.54-222.9,215.83-14.31,494.7,27.81,567,266.69,23.64,73.72-11.35,140.24-13.85,212,65,144.9,78.94,237.92-19,373.86-66.9,168.55-272.59,288.58-440.37,182.13-65.68-43.21-66.06-68.2-152.76-81.2-169.93-2.88-373.73-14.15-525.66,51.11,119.52,76.66,177.93,125.29,325.32,149.05,207.62,6.73,411.43-20.91,537,185.49,53.25,121.87,21.6,46,114.06,122.36,119.14,49.5,151.23,174.58,106.3,288.68,3.77,45.32,30.87,86.37,43.26,130,37.26,165.35,64.76,353.3-10.13,511.93,34.6,141.53-108.15,279.58-248.43,236.29-189.36-46.63-138.16-55.73-320.94,3.37-215.08,51-490.13-33-543.37-270.68-22.36-96.89-7.23-198.89-45.51-292.23-250.59,7.23-566.39,32.21-731.25-196.23-150.89-21.32-335.58-28.54-444.75,96.62,92.07,79.9,167.48,186.38,190.1,307.86,268.42-122,697.19-90.24,777.16,248.22,31.6,25.35,63.83,49.87,86.45,84.16,105.45,52.76,143,207.92,63.67,298-72.45,108.63-238.16,91.48-331.25,20.89-30.61-19.67-57.76-59.61-69-94.06-72.85-50.12-118-127.89-138.43-212.77-45-22.14-127.84-4.84-177.06,3-92.24,204-371.51,280.93-568,189.75-46.62-21.51-80.92-61-108.92-103.15-26-8.33-53.61-6.66-80.57-8.52-103.55,108.11-238.75,43.92-344.64-23.56-109.28-58.88-217.2-120.42-327.34-177.67-200-53.12-100.28-8-235.38,51.57-.34,21.22-1.34,42.49-.79,63.72,37.6,3.49,72.34,20.11,105.86,36.5,29.52,18.27,56.18,41,83,62.91,47,37.25,113.24,41.7,151.64,90.52,242.72,59.47,610.38-18.38,715.88,269.81,277.3-270,920-349.91,990.92,142,28.74,14.66,47,39.47,65.74,64.31,22.37,7.4,45.6,16.56,65.76,28.79,69-20.42,89.71-93.37,158.85-114.38,102.77-270.88,387.76-367.71,635.22-458.48,128.48-55.31,282.83,19.73,359.55,128.15,207-170.86,387.8,54.81,367.66,270.86-5.64,65.71-14.12,131.63-6.81,197.55,16.81,69.42,19.05,141.61-17.7,205.7-119,198.36-417.35,110.22-440.7-110.15-101-69.7-165.26-166.69-202-283-96.14,30-198.51,59.41-274.39,128.78,163.68,11.72,313,127.4,386.43,270.57,22.39,37.79,37,81.42,29.65,125.61,18.21,84.66,34,169.87,46.65,255.54,351.45,128.38,41.06,158.13,533.17,142.56l1-6305C4315.27,1461.52,4149.51,1822.89,4127,1871ZM992,6862.84l-35.33-4.75Z"/></g></g></svg>