<svg xmlns="http://www.w3.org/2000/svg" viewBox="0 0 938.2 979.23"><defs><style>.cls-1{fill-rule:evenodd;}</style></defs><g id="Ebene_2" data-name="Ebene 2"><g id="Ebene_1-2" data-name="Ebene 1"><path class="cls-1" d="M494.4,498.08c-3.67-46.2,73-61.76,137.07-94.48,40.67-20.75,71.88-89.46,130.33-107.4,54.28-16.66,112.37,18,138,4.29,79.76-42.67,10.74-79.1,10.43-107.75-36.47-43.32-4.73-74.76-47.69-111.65s-66-3-116.07-29.39C721.72,38.7,731.47.4,703.57,0S678.64,49.22,651,53c-34.84,13-85.3-14-110.5,8.59-26.9,24.16-10.87,88.92-32.41,114.86-21.36,25.72-79.59,12-101.37,30.23-24.84,20.76-35.94,81.33-69.21,79.52C316.05,285,316,229.38,302.87,221c-15.8-10.1-62.47,16.22-73.53,2.93s12.74-66.63-1.66-75.12c-12.49-7.36-39.16,38.72-59.86,40.5C107.3,194.55,37.59,170,8.48,209.2-15.9,242.07,20,305.64,20,372.2c0,82.53-33,173.72-.44,236.38,39.38,75.9,126.47,88.88,202.31,95.73,54.65,4.93,104.22,67.07,154.57,80.17,77.23,20.1,167.84,28.9,160,67-6.49,31.46-.21,92.73,50.85,118s96.56-2.82,115.32-40.61c18-36.14,86.71-18.94,103.76-34.52,18.57-17-15.72-41.75-42.2-89.44-24.61-44.31-41.45-128.57-97.29-178C603,570.5,497.61,538.37,494.4,498.08Z"/></g></g></svg>