<svg xmlns="http://www.w3.org/2000/svg" viewBox="0 0 1409.76 1774.35"><defs><style>.cls-1{fill-rule:evenodd;}</style></defs><g id="Ebene_2" data-name="Ebene 2"><g id="Ebene_1-2" data-name="Ebene 1"><path class="cls-1" d="M120.1,541.47C72.58,659.17,7.35,687.87.59,732.58c-6.73,44.53,46.56,99.3,26.27,223.28-8.67,53-41.74,128.84-8.93,204.84,25.16,58.28,106.81,95.9,143.32,157.37,41.48,69.83,40.87,167.46,81.38,229.06,59.64,90.68,157.29,141.64,170.37,179.32,6.09,17.52,47.23,60.13,104.53,44.52,41.29-11.24,49.67-71.66,67.76-112.17,11.93-26.7,76-52.44,84.73-94.35,9.55-45.61-38.18-88.68-45.32-112.88-7.41-25.11-31.17-88.59-94-119.82-60.15-29.91-155.71-20.13-171.29-43.16-23.2-34.27.86-94.37-14.34-127.53-17.84-38.94-74.8-75.84-59.91-113.24,21.6-54.27,140.42-91.44,228.09-141.66,94.88-54.36,202.43-128.84,249.36-88.92,57.89,49.25,98.73,51.11,123.41-12.45,15.63-40.27-23.64-110.32-10.68-167.91,16.42-73,85-134.28,112.19-195.61,34.73-78.37,67.49-166.22,151.06-143.52,64.76,17.59,136.76,28.56,185.3-18,68.74-66,110-76,70.41-164.4-33.6-75.09-55.75-18.81-140.55-7.32-58.25,7.9-118.8,65.94-162.35,58.2-25,2.31-51.55-46-69.71-40.62-23.92,7.16-24,66.43-41.51,74.58-16.23,7.54-49.43-36.12-65.37-31.85-15.06,4-27.38,58.61-46.49,56.28-38.5-4.7-40.91-62-56-75.84-22.89-21-70.75-27.16-73.37-54.54C736.4,67.5,777.32,18,756.36,1.83,742.38-9,712,31.48,676,31.48,615.12,63,552.52,36,494.17,53.67,447,68,395.66,130.26,319,135.64c-108.74-34.59-169.59,16.18-193.08,124.49C106.66,348.68,149,469.88,120.1,541.47Z"/></g></g></svg>