<svg xmlns="http://www.w3.org/2000/svg" viewBox="0 0 1723.24 1987.95"><defs><style>.cls-1{fill-rule:evenodd;}</style></defs><g id="Ebene_2" data-name="Ebene 2"><g id="Ebene_1-2" data-name="Ebene 1"><path class="cls-1" d="M1565.39,1115c-6.66-20.12,55.57-25.24,58.86-46.17s-46.43-24-47.08-45.23c-8.86-32.45,2.47-93.57-44.87-132.09-33.71-27.43-104.46-9.61-149.72-33.44-67.07-35.31-117-114.7-186-163.59-63.43-44.94-160-71.17-192.43-155.55-10-26,58.23-23.47,94.32-36,34.69-12.05,35.36-47.16,36-68.49-2.1-.32-36.88-74.5-113.32-124.31s-172-50.37-174.1-50.71c-75.91-12.59-107.39-91.77-158-139.51C644.85,78.05,573.51,69,523.3,8.12c-63,7.59-118.49-22.34-163.06.89-63.62,33.17-70.16,111.54-89.37,146.51C247.43,211,168,286.67,159.89,375.16c-8.07,88.07,48.73,157.45,104.72,208.32,67,60.85,32.89,172,16.09,264.07-18.39,100.84-25.46,222.2-71.64,262.19-24,20.75-134.92,80.7-186.89,191.85-38.44,82.21-16.27,184.81-11.3,267.25,5.13,85-8.95,178.45,34.19,239.77,66.94,95.17,175.72,111.79,201.4,111.79,17.61,0,44-1.76,36.35-39.35-3.9-19.18-62.37-30-68.89-55.3-19.17-74.68,9.23-176.37,13.16-263,4-88.22,1.67-193.17,101.18-228.71,30.51-10.9,82.64,13.27,100.42-8.65,18.29-22.55-12.91-78.42.73-104.66,15.91-30.64,75.12-29.89,97.9-53.62,21.44-22.33,26.1-84.23,65.83-89.42,44.24-5.77,97.42,12.46,114-15.91,18.42-31.41-25.09-88.43-19.73-121,2.53-15.4,57.38-17.44,60.6-28.5,5.13-17.62-7.65-61.81,6.83-58.7,34.51,7.41,25,74,40.76,114.84,12.1,31.42,72.36,53.13,81.25,91.14,7.48,32-36.87,79-27.2,108.16,11.3,34.16,70.12,36.38,90.48,56.54,22.76,22.55-42.19,82.59-82.42,149.76-24.47,40.86-9.91,115.39-40.93,161-31.74,46.67-109.08,64.48-134.26,106.72-40.77,68.41-21.37,119.9,1.72,144,31.06,32.4,39.62,95.64,69.7,99.48,34.81,4.44,51.1-54.56,79.54-86.31,30.09-33.6,94.56,10.15,142.24,24,57.31,16.62,143,27.57,143,51,0,23-2.39,87.75,41.28,109.15,37.92,18.57,72.73-19.17,102.32-53.33,11.57-13.36,65.3-3.31,71.21-21,5.48-16.42-42.55-48.54-38.56-66.58,8.42-38.07,64.77-55,89.07-86.2,20-25.71,24.57-89,74.43-98.08,81.62-14.9,182.6-49.53,231.91-136.35,53.27-93.78,30-207.29,10.69-270.12-7.75-25.17,13.52-78.71-15.71-104.47C1662.83,1127,1592.63,1135.53,1565.39,1115Z"/></g></g></svg>