<svg xmlns="http://www.w3.org/2000/svg" viewBox="0 0 1024.9 1438.97"><defs><style>.cls-1{fill-rule:evenodd;}</style></defs><g id="Ebene_2" data-name="Ebene 2"><g id="Ebene_1-2" data-name="Ebene 1"><path class="cls-1" d="M599.21,379.67c58.44-50.49,127.24-16.11,169-19.36,64.71-5,86.54-27.51,123.61-89.3,25.71-42.86,103.44-74.38,122.67-125.59,26.37-70.24-.07-117.39-47.09-133.07C930.26,0,844.89-13.64,767.94,28.75c-91.61,50.48-58.07,152.14-162.33,161.08-87.81,7.52-89.45-97.6-183.62-54.19-40.8,18.81-51.41,94.12-94.42,157.63-45.34,66.93-125,91.92-148.87,135.29-51.15,92.72-9.55,142.64,8.92,184.2,17.85,40.18-7,73.26-12.22,131.81-2.68,30.32,37.51,83.4,12.09,138.87-28.91,63.1-71.81,114.83-60.14,160.49C145.77,1116,201.2,1181.89,110,1186c-35.25,1.6-92.38-4.09-107.18,33.37-14.46,36.58,30.52,70,57.29,96.75,37.31,37.32,40.62,52.94,110.12,41.6,31.46-5.13,73.87-59.64,133-49.09,76.72,13.71,104.31,74.89,134.36,89.53,44.24,21.56,72.46,32.59,73.75,32.84,47.08,8.87,74.11,29.28,38.11-70.3-24.58-68-102.84-128.31-108.28-163.69-6.85-44.56,68.6-81.73,90-127.17,20.86-44.39-11-92-27.72-138.91C485,879.62,505,830.28,488.6,792.52c-13.87-32-68-68.11-46.27-130.28C469.5,584.58,515.26,570,535,529.7,549.64,499.68,535.57,434.65,599.21,379.67Z"/></g></g></svg>