<svg xmlns="http://www.w3.org/2000/svg" viewBox="0 0 520.09 450.03"><defs><style>.cls-1{fill-rule:evenodd;}</style></defs><g id="Ebene_2" data-name="Ebene 2"><g id="Ebene_1-2" data-name="Ebene 1"><path class="cls-1" d="M86.54,128.65C60.8,160.67,2.68,187.3.07,236.58c-2.3,43.3,55,89,58.83,133.08,2.06,23.9-8.76,69.39,25.74,79.67,23.8,7.09,60.65-42,91.05-41.77,36.39.32,82.13,48.59,116.56,38.69,39.82-11.45,45.12-72,64.43-97.81,17.13-22.87,79.48-22.18,95.4-53.21,13.86-27-22-78.89-9.62-109.65,9.19-22.9,68.5-27.79,76.59-51.66s-33.22-42.65-26.47-66.46C464.66,55.81,456.12-2.89,393,.11c-31.63,1.51-62.49,61.11-114.32,76.51-9.42,2.8-71.93-42.59-120.1-31.48C115.62,55.05,100.22,111.63,86.54,128.65Z"/></g></g></svg>